STARTFONT 2.1
COMMENT
COMMENT Converted from OpenType font "Q:\font stuff\winfont\Colony Wars Normal.ttf" by "otf2bdf 3.0".
COMMENT
FONT -FreeType-Colony Wars-Medium-R-Normal--72-720-72-72-P-858-ISO10646-1
SIZE 72 72 72
FONTBOUNDINGBOX 112 74 0 0
STARTPROPERTIES 19
FOUNDRY "FreeType"
FAMILY_NAME "Colony Wars"
WEIGHT_NAME "Medium"
SLANT "R"
SETWIDTH_NAME "Normal"
ADD_STYLE_NAME ""
PIXEL_SIZE 72
POINT_SIZE 720
RESOLUTION_X 72
RESOLUTION_Y 72
SPACING "P"
AVERAGE_WIDTH 858
CHARSET_REGISTRY "ISO10646"
CHARSET_ENCODING "1"
FONT_ASCENT 73
FONT_DESCENT 4
COPYRIGHT "(c)2000 Neale Davidson"
_OTF_FONTFILE "Q:\font stuff\winfont\Colony Wars Normal.ttf"
_OTF_PSNAME "ColonyWarsNormal"
ENDPROPERTIES
CHARS 96
STARTCHAR 0020
ENCODING 32
SWIDTH 1027 0
DWIDTH 74 0
BBX 0 0 0 0
BITMAP
ENDCHAR
STARTCHAR 0021
ENCODING 33
SWIDTH 458 0
DWIDTH 33 0
BBX 14 65 1 0
BITMAP
FFFC
FFFC
FFFC
FFFC
FFFC
FFFC
FFFC
FFFC
FFFC
FFFC
FFFC
FFFC
FFFC
FFFC
FFFC
FFFC
FFFC
FFFC
FFFC
FFFC
FFFC
FFFC
FFFC
FFFC
FFFC
FFFC
FFFC
FFFC
FFFC
FFFC
FFFC
FFFC
FFFC
FFFC
FFFC
FFFC
FFFC
FFFC
FFFC
FFFC
0000
0000
0000
0000
0000
0000
0000
0000
0000
0000
0000
FFFC
FFFC
FFFC
FFFC
FFFC
FFFC
FFFC
FFFC
FFFC
FFFC
FFFC
FFFC
FFFC
FFFC
ENDCHAR
STARTCHAR 0022
ENCODING 34
SWIDTH 722 0
DWIDTH 52 0
BBX 37 14 1 60
BITMAP
FFFC01FFF8
FFFC01FFF8
FFFC01FFF8
FFFC01FFF8
FFFC01FFF8
FFF801FFF0
FFF801FFF0
FFF801FFF0
FFF001FFE0
FFE001FFC0
FFE001FFC0
FF8001FF00
FF0001FE00
F80001F000
ENDCHAR
STARTCHAR 0023
ENCODING 35
SWIDTH 1291 0
DWIDTH 93 0
BBX 74 54 1 11
BITMAP
0007FFE00003FFF00000
0007FFE00003FFF00000
0007FFE00003FFF00000
0007FFE00003FFF00000
0007FFE00003FFF00000
0007FFE00003FFF00000
0007FFE00003FFF00000
0007FFE00003FFF00000
0007FFE00003FFF00000
0007FFE00003FFF00000
FFFFFFFFFFFFFFFFFFC0
FFFFFFFFFFFFFFFFFFC0
FFFFFFFFFFFFFFFFFFC0
FFFFFFFFFFFFFFFFFFC0
FFFFFFFFFFFFFFFFFFC0
FFFFFFFFFFFFFFFFFFC0
FFFFFFFFFFFFFFFFFFC0
FFFFFFFFFFFFFFFFFFC0
FFFFFFFFFFFFFFFFFFC0
FFFFFFFFFFFFFFFFFFC0
FFFFFFFFFFFFFFFFFFC0
FFFFFFFFFFFFFFFFFFC0
FFFFFFFFFFFFFFFFFFC0
FFFFFFFFFFFFFFFFFFC0
0007FFE00003FFF00000
0007FFE00003FFF00000
0007FFE00003FFF00000
0007FFE00003FFF00000
0007FFE00003FFF00000
0007FFE00003FFF00000
0007FFE00003FFF00000
0007FFE00003FFF00000
0007FFE00003FFF00000
FFFFFFFFFFFFFFFFFFC0
FFFFFFFFFFFFFFFFFFC0
FFFFFFFFFFFFFFFFFFC0
FFFFFFFFFFFFFFFFFFC0
FFFFFFFFFFFFFFFFFFC0
FFFFFFFFFFFFFFFFFFC0
FFFFFFFFFFFFFFFFFFC0
FFFFFFFFFFFFFFFFFFC0
FFFFFFFFFFFFFFFFFFC0
FFFFFFFFFFFFFFFFFFC0
FFFFFFFFFFFFFFFFFFC0
FFFFFFFFFFFFFFFFFFC0
0007FFE00003FFF00000
0007FFE00003FFF00000
0007FFE00003FFF00000
0007FFE00003FFF00000
0007FFE00003FFF00000
0007FFE00003FFF00000
0007FFE00003FFF00000
0007FFE00003FFF00000
0007FFE00003FFF00000
ENDCHAR
STARTCHAR 0024
ENCODING 36
SWIDTH 1805 0
DWIDTH 130 0
BBX 111 65 1 0
BITMAP
00000001FFF80000FFFC00000000
00000001FFF80000FFFC00000000
00000001FFF80000FFFC00000000
00000001FFF80000FFFC00000000
00000001FFF80000FFFC00000000
0000000FFFFFFFFFFFFFFFFFFFFE
0000007FFFFFFFFFFFFFFFFFFFFE
000003FFFFFFFFFFFFFFFFFFFFFE
00000FFFFFFFFFFFFFFFFFFFFFFE
00003FFFFFFFFFFFFFFFFFFFFFFE
0000FFFFFFFFFFFFFFFFFFFFFFFE
0001FFFFFFFFFFFFFFFFFFFFFFFE
0007FFFFFFFFFFFFFFFFFFFFFFFE
000FFFFFFFFFFFFFFFFFFFFFFFFE
001FFFFFFFFFFFFFFFFFFFFFFFFE
003FFFFFFFFFFFFFFFFFFFFFFFFE
007FFFFFFFFFFFFFFFFFFFFFFFFE
00FFFFFFFFFFFFFFFFFFFFFFFFFE
01FFFFFFFFFFFFFFFFFFFFFFFFFE
03FFFFFFFFF80000FFFC00000000
03FFFFF9FFF80000FFFC00000000
07FFFFC1FFF80000FFFC00000000
0FFFFF01FFF80000FFFC00000000
0FFFFE01FFF80000FFFC00000000
1FFFFC01FFF80000FFFC00000000
1FFFF801FFF80000FFFC00000000
3FFFF801FFF80000FFFC00000000
3FFFF001FFF80000FFFC00000000
3FFFFFFFFFFFFFFFFFFFFFFFFFFE
7FFFFFFFFFFFFFFFFFFFFFFFFFFE
7FFFFFFFFFFFFFFFFFFFFFFFFFFE
7FFFFFFFFFFFFFFFFFFFFFFFFFFC
7FFFFFFFFFFFFFFFFFFFFFFFFFFC
7FFFFFFFFFFFFFFFFFFFFFFFFFFC
FFFFFFFFFFFFFFFFFFFFFFFFFFFC
FFFFFFFFFFFFFFFFFFFFFFFFFFFC
FFFFFFFFFFFFFFFFFFFFFFFFFFFC
FFFFFFFFFFFFFFFFFFFFFFFFFFF8
FFFFFFFFFFFFFFFFFFFFFFFFFFF8
FFFFFFFFFFFFFFFFFFFFFFFFFFF8
00000001FFF80000FFFC003FFFF0
00000001FFF80000FFFC003FFFF0
00000001FFF80000FFFC007FFFE0
00000001FFF80000FFFC007FFFE0
00000001FFF80000FFFC00FFFFC0
00000001FFF80000FFFC01FFFF80
00000001FFF80000FFFC07FFFF00
00000001FFF80000FFFC3FFFFE00
FFFFFFFFFFFFFFFFFFFFFFFFFE00
FFFFFFFFFFFFFFFFFFFFFFFFF800
FFFFFFFFFFFFFFFFFFFFFFFFF000
FFFFFFFFFFFFFFFFFFFFFFFFE000
FFFFFFFFFFFFFFFFFFFFFFFFC000
FFFFFFFFFFFFFFFFFFFFFFFF0000
FFFFFFFFFFFFFFFFFFFFFFFC0000
FFFFFFFFFFFFFFFFFFFFFFF00000
FFFFFFFFFFFFFFFFFFFFFFC00000
FFFFFFFFFFFFFFFFFFFFFE000000
FFFFFFFFFFFFFFFFFFFFF0000000
FFFFFFFFFFFFFFFFFFFF00000000
00000001FFF80000FFFC00000000
00000001FFF80000FFFC00000000
00000001FFF80000FFFC00000000
00000001FFF80000FFFC00000000
00000001FFF80000FFFC00000000
ENDCHAR
STARTCHAR 0025
ENCODING 37
SWIDTH 1736 0
DWIDTH 125 0
BBX 111 65 1 0
BITMAP
FFFFFFFFFFFC0000000001FFFF80
FFFFFFFFFFFC0000000003FFFF00
FFFFFFFFFFFC000000000FFFFE00
FFFFFFFFFFFC000000001FFFF800
FFFFFFFFFFFC000000007FFFF000
FFFFFFFFFFFC00000000FFFFE000
FFFFFFFFFFFC00000001FFFF8000
FFFFFFFFFFFC00000007FFFF0000
FFFFFFFFFFFC0000000FFFFE0000
FFFFFFFFFFFC0000001FFFF80000
FFFFFFFFFFFC0000007FFFF00000
7FFFFFFFFFF8000000FFFFE00000
7FFFFFFFFFF8000001FFFF800000
7FFFFFFFFFF8000007FFFF000000
7FFC0000FFF800000FFFFC000000
7FFC0000FFF800001FFFF8000000
7FFC0000FFF800007FFFF0000000
7FFC0000FFF00000FFFFC0000000
3FFE0001FFF00001FFFF80000000
3FFE0001FFF00007FFFF00000000
3FFF0003FFF0000FFFFC00000000
3FFF8003FFE0001FFFF800000000
1FFFC007FFE0007FFFF000000000
1FFFF01FFFE000FFFFC000000000
0FFFFFFFFFC001FFFF8000000000
0FFFFFFFFFC007FFFF0000000000
0FFFFFFFFF800FFFFC0000000000
07FFFFFFFF803FFFF80000000000
07FFFFFFFF007FFFF0003FF00000
03FFFFFFFE00FFFFC001FFFE0000
01FFFFFFFE03FFFF8007FFFFC000
01FFFFFFFC07FFFF001FFFFFE000
00FFFFFFF80FFFFC003FFFFFF000
007FFFFFF03FFFF8007FFFFFFC00
001FFFFFE07FFFF000FFFFFFFC00
000FFFFF80FFFFC001FFFFFFFE00
0003FFFE03FFFF8003FFFFFFFF00
00003FF007FFFF0003FFFFFFFF80
000000000FFFFC0007FFFFFFFF80
000000003FFFF80007FFFFFFFFC0
000000007FFFE0000FFFFFFFFFC0
00000000FFFFC0000FFFFFFFFFE0
00000003FFFF80000FFFF81FFFE0
00000007FFFE00001FFFC007FFF0
0000000FFFFC00001FFF8003FFF0
0000003FFFF800001FFF0001FFF0
0000007FFFE000003FFF0000FFF0
000000FFFFC000003FFE0000FFF8
000003FFFF8000003FFE0000FFF8
000007FFFE0000003FFE0000FFF8
00000FFFFC0000003FFC00007FF8
00003FFFF80000007FFFFFFFFFFC
00007FFFE00000007FFFFFFFFFFC
0001FFFFC00000007FFFFFFFFFFC
0003FFFF800000007FFFFFFFFFFC
0007FFFE000000007FFFFFFFFFFC
001FFFFC000000007FFFFFFFFFFC
003FFFF8000000007FFFFFFFFFFC
007FFFE0000000007FFFFFFFFFFC
01FFFFC0000000007FFFFFFFFFFC
03FFFF80000000007FFFFFFFFFFC
07FFFE00000000007FFFFFFFFFFE
1FFFFC00000000007FFFFFFFFFFE
3FFFF000000000007FFFFFFFFFFE
7FFFE000000000007FFFFFFFFFFE
ENDCHAR
STARTCHAR 0026
ENCODING 38
SWIDTH 1805 0
DWIDTH 130 0
BBX 111 65 1 0
BITMAP
FFFFFFFFFFFFFFFFFFC000000000
FFFFFFFFFFFFFFFFFFC000000000
FFFFFFFFFFFFFFFFFFC000000000
FFFFFFFFFFFFFFFFFFC000000000
FFFFFFFFFFFFFFFFFFC000000000
FFFFFFFFFFFFFFFFFF8000000000
FFFFFFFFFFFFFFFFFF8000000000
FFFFFFFFFFFFFFFFFF8000000000
FFFFFFFFFFFFFFFFFF8000000000
7FFFFFFFFFFFFFFFFF8000000000
7FFFFFFFFFFFFFFFFF8000000000
7FFFFFFFFFFFFFFFFF0000000000
7FFFFFFFFFFFFFFFFF0000000000
7FFFFFFFFFFFFFFFFF0000000000
7FFFE000000007FFFF0000000000
7FFFE000000007FFFE0000000000
3FFFE000000007FFFE0000000000
3FFFF00000000FFFFE0000000000
3FFFF00000000FFFFC0000000000
3FFFF80000001FFFFC0000000000
1FFFFC0000003FFFF80000000000
1FFFFE0000003FFFF80000000000
0FFFFE0000007FFFF00000000000
0FFFFF800000FFFFF00000000000
07FFFFC00003FFFFE00000000000
07FFFFF0000FFFFFC00000000000
03FFFFFE00FFFFFFC00000000000
01FFFFFFFFFFFFFF800000000000
00FFFFFFFFFFFFFF000000000000
007FFFFFFFFFFFFE000000000000
001FFFFFFFFFFFFC000000000000
0001FFFFFFFFFFF8000000000000
0001FFFFFFFFFFF0000000000000
0003FFFFFFFFFFF8000000000000
000FFFFFFFFFFFFC000000000000
001FFFFFFFFFFFFE000000000000
003FFFFFFFFFFFFF000000000000
003FFFFE01FFFFFF80000007FFFE
007FFFE0003FFFFFC0000007FFFE
00FFFF80000FFFFFE0000007FFFE
01FFFF000003FFFFE0000007FFFE
01FFFE000001FFFFF0000007FFFE
03FFFC000000FFFFF8000007FFFE
07FFF80000007FFFF8000007FFFE
07FFF80000003FFFFC000007FFFE
0FFFF00000001FFFFC000007FFFE
0FFFF00000001FFFFC000007FFFE
0FFFE00000000FFFFE000007FFFE
1FFFE000000007FFFE000007FFFE
1FFFE000000007FFFF000007FFFE
3FFFC000000007FFFF000007FFFE
3FFFFFFFFFFFFFFFFFFFFFFFFFFE
3FFFFFFFFFFFFFFFFFFFFFFFFFFE
7FFFFFFFFFFFFFFFFFFFFFFFFFFE
7FFFFFFFFFFFFFFFFFFFFFFFFFFE
7FFFFFFFFFFFFFFFFFFFFFFFFFFE
7FFFFFFFFFFFFFFFFFFFFFFFFFFE
7FFFFFFFFFFFFFFFFFFFFFFFFFFE
FFFFFFFFFFFFFFFFFFFFFFFFFFFE
FFFFFFFFFFFFFFFFFFFFFFFFFFFE
FFFFFFFFFFFFFFFFFFFFFFFFFFFE
FFFFFFFFFFFFFFFFFFFFFFFFFFFE
FFFFFFFFFFFFFFFFFFFFFFFFFFFE
FFFFFFFFFFFFFFFFFFFFFFFFFFFE
FFFFFFFFFFFFFFFFFFFFFFFFFFFE
ENDCHAR
STARTCHAR 0027
ENCODING 39
SWIDTH 458 0
DWIDTH 33 0
BBX 14 14 1 60
BITMAP
FFFC
FFFC
FFFC
FFFC
FFFC
FFF8
FFF8
FFF8
FFF0
FFE0
FFE0
FF80
FF00
F800
ENDCHAR
STARTCHAR 0028
ENCODING 40
SWIDTH 916 0
DWIDTH 66 0
BBX 46 65 1 0
BITMAP
0000000000FC
000000000FFC
000000007FFC
00000001FFFC
00000007FFFC
0000001FFFFC
0000003FFFFC
000000FFFFFC
000001FFFFFC
000003FFFFFC
000007FFFFFC
00000FFFFFFC
00001FFFFFFC
00003FFFFFFC
00007FFFFFE0
0000FFFFFE00
0001FFFFF800
0003FFFFE000
0007FFFFC000
0007FFFF0000
000FFFFE0000
001FFFFC0000
001FFFF80000
003FFFF00000
007FFFF00000
007FFFE00000
00FFFFC00000
00FFFF800000
01FFFF800000
01FFFF000000
03FFFF000000
03FFFE000000
07FFFE000000
07FFFC000000
07FFFC000000
0FFFF8000000
0FFFF8000000
0FFFF8000000
1FFFF0000000
1FFFF0000000
1FFFF0000000
1FFFF0000000
3FFFE0000000
3FFFE0000000
3FFFE0000000
3FFFE0000000
3FFFE0000000
7FFFE0000000
7FFFE0000000
7FFFC0000000
7FFFC0000000
7FFFFFFFFFFC
7FFFFFFFFFFC
7FFFFFFFFFFC
FFFFFFFFFFFC
FFFFFFFFFFFC
FFFFFFFFFFFC
FFFFFFFFFFFC
FFFFFFFFFFFC
FFFFFFFFFFFC
FFFFFFFFFFFC
FFFFFFFFFFFC
FFFFFFFFFFFC
FFFFFFFFFFFC
FFFFFFFFFFFC
ENDCHAR
STARTCHAR 0029
ENCODING 41
SWIDTH 916 0
DWIDTH 66 0
BBX 46 65 1 0
BITMAP
FC0000000000
FFC000000000
FFF800000000
FFFE00000000
FFFF80000000
FFFFE0000000
FFFFF0000000
FFFFFC000000
FFFFFE000000
FFFFFF000000
FFFFFF800000
FFFFFFE00000
FFFFFFF00000
FFFFFFF80000
0FFFFFFC0000
01FFFFFC0000
007FFFFE0000
001FFFFF0000
000FFFFF8000
0003FFFFC000
0001FFFFC000
0000FFFFE000
00007FFFF000
00003FFFF000
00001FFFF800
00001FFFF800
00000FFFFC00
000007FFFC00
000007FFFE00
000003FFFE00
000003FFFF00
000001FFFF00
000001FFFF80
000000FFFF80
000000FFFF80
0000007FFFC0
0000007FFFC0
0000007FFFC0
0000003FFFE0
0000003FFFE0
0000003FFFE0
0000001FFFE0
0000001FFFF0
0000001FFFF0
0000001FFFF0
0000001FFFF0
0000001FFFF8
0000001FFFF8
0000000FFFF8
0000000FFFF8
0000000FFFF8
FFFFFFFFFFF8
FFFFFFFFFFF8
FFFFFFFFFFFC
FFFFFFFFFFFC
FFFFFFFFFFFC
FFFFFFFFFFFC
FFFFFFFFFFFC
FFFFFFFFFFFC
FFFFFFFFFFFC
FFFFFFFFFFFC
FFFFFFFFFFFC
FFFFFFFFFFFC
FFFFFFFFFFFC
FFFFFFFFFFFC
ENDCHAR
STARTCHAR 002A
ENCODING 42
SWIDTH 777 0
DWIDTH 56 0
BBX 37 23 1 51
BITMAP
C001FC0018
FC01FC01F8
FF81FC0FF8
FFF9FCFFF8
FFFFFFFFF8
FFFFFFFFF8
FFFFFFFFF8
7FFFFFFFF0
07FFFFFF00
007FFFF800
000FFF8000
0001FC0000
0001FC0000
003FFFE000
03FFFFFE00
7FFFFFFFF0
FFFFFFFFF8
FFFFFFFFF8
FFFFFFFFF8
FFFFFFFFF8
FFE1FC3FF8
FE01FC03F8
C001FC0018
ENDCHAR
STARTCHAR 002B
ENCODING 43
SWIDTH 1041 0
DWIDTH 75 0
BBX 55 40 1 11
BITMAP
000007FFE00000
000007FFE00000
000007FFE00000
000007FFE00000
000007FFE00000
000007FFE00000
000007FFE00000
000007FFE00000
000007FFE00000
000007FFE00000
000007FFE00000
000007FFE00000
000007FFE00000
000007FFE00000
FFFFFFFFFFFFFE
FFFFFFFFFFFFFE
FFFFFFFFFFFFFE
FFFFFFFFFFFFFE
FFFFFFFFFFFFFE
FFFFFFFFFFFFFE
FFFFFFFFFFFFFE
FFFFFFFFFFFFFE
FFFFFFFFFFFFFE
FFFFFFFFFFFFFE
FFFFFFFFFFFFFE
FFFFFFFFFFFFFE
000007FFE00000
000007FFE00000
000007FFE00000
000007FFE00000
000007FFE00000
000007FFE00000
000007FFE00000
000007FFE00000
000007FFE00000
000007FFE00000
000007FFE00000
000007FFE00000
000007FFE00000
000007FFE00000
ENDCHAR
STARTCHAR 002C
ENCODING 44
SWIDTH 458 0
DWIDTH 33 0
BBX 14 14 1 0
BITMAP
FFFC
FFFC
FFFC
FFFC
FFFC
FFF8
FFF8
FFF8
FFF0
FFE0
FFE0
FF80
FF00
F800
ENDCHAR
STARTCHAR 002D
ENCODING 45
SWIDTH 1041 0
DWIDTH 75 0
BBX 55 12 1 25
BITMAP
FFFFFFFFFFFFFE
FFFFFFFFFFFFFE
FFFFFFFFFFFFFE
FFFFFFFFFFFFFE
FFFFFFFFFFFFFE
FFFFFFFFFFFFFE
FFFFFFFFFFFFFE
FFFFFFFFFFFFFE
FFFFFFFFFFFFFE
FFFFFFFFFFFFFE
FFFFFFFFFFFFFE
FFFFFFFFFFFFFE
ENDCHAR
STARTCHAR 002E
ENCODING 46
SWIDTH 458 0
DWIDTH 33 0
BBX 14 14 1 0
BITMAP
FFFC
FFFC
FFFC
FFFC
FFFC
FFFC
FFFC
FFFC
FFFC
FFFC
FFFC
FFFC
FFFC
FFFC
ENDCHAR
STARTCHAR 002F
ENCODING 47
SWIDTH 722 0
DWIDTH 52 0
BBX 32 65 1 0
BITMAP
00001FFF
00003FFF
00003FFF
00003FFE
00007FFE
00007FFE
00007FFC
00007FFC
0000FFFC
0000FFFC
0000FFF8
0001FFF8
0001FFF8
0001FFF0
0001FFF0
0003FFF0
0003FFF0
0003FFE0
0007FFE0
0007FFE0
0007FFC0
0007FFC0
000FFFC0
000FFFC0
000FFF80
001FFF80
001FFF80
001FFF00
001FFF00
003FFF00
003FFF00
003FFE00
003FFE00
007FFE00
007FFC00
007FFC00
00FFFC00
00FFFC00
00FFF800
00FFF800
01FFF800
01FFF800
01FFF000
03FFF000
03FFF000
03FFE000
03FFE000
07FFE000
07FFE000
07FFC000
0FFFC000
0FFFC000
0FFF8000
0FFF8000
1FFF8000
1FFF8000
1FFF0000
3FFF0000
3FFF0000
3FFE0000
3FFE0000
7FFE0000
7FFE0000
7FFC0000
FFFC0000
ENDCHAR
STARTCHAR 0030
ENCODING 48
SWIDTH 1805 0
DWIDTH 130 0
BBX 111 65 1 0
BITMAP
0000000000FFFFFFFFFFFFFFFFFE
000000000FFFFFFFFFFFFFFFFFFE
000000007FFFFFFFFFFFFFFFFFFE
00000001FFFFFFFFFFFFFFFFFFFE
00000007FFFFFFFFFFFFFFFFFFFE
0000001FFFFFFFFFFFFFFFFFFFFC
0000003FFFFFFFFFFFFFFFFFFFFC
000000FFFFFFFFFFFFFFFFFFFFFC
000001FFFFFFFFFFFFFFFFFFFFFC
000003FFFFFFFFFFFFFFFFFFFFFC
000007FFFFFFFFFFFFFFFFFFFFFC
00000FFFFFFFFFFFFFFFFFFFFFFC
00001FFFFFFFFFFFFFFFFFFFFFFC
00003FFFFFFFFFFFFFFFFFFFFFFC
00007FFFFFFFF0000000000FFFFC
0000FFFFFFFC00000000000FFFFC
0001FFFFFFE000000000000FFFF8
0003FFFFFF0000000000000FFFF8
0007FFFFFC0000000000000FFFF8
0007FFFFF00000000000000FFFF8
000FFFFFE00000000000000FFFF8
001FFFFF800000000000001FFFF0
003FFFFF000000000000001FFFF0
003FFFFE000000000000001FFFF0
007FFFFC000000000000001FFFF0
007FFFF8000000000000003FFFE0
00FFFFF0000000000000003FFFE0
00FFFFE0000000000000003FFFE0
01FFFFC00003FFF00000007FFFE0
01FFFF800003FFF00000007FFFC0
03FFFF800003FFF0000000FFFFC0
03FFFF000003FFF0000000FFFF80
07FFFE000003FFF0000001FFFF80
07FFFE000003FFF0000001FFFF80
07FFFC000003FFF0000003FFFF00
0FFFFC000003FFF0000007FFFF00
0FFFF8000003FFF000000FFFFE00
0FFFF8000003FFF000000FFFFE00
1FFFF8000003FFF000001FFFFC00
1FFFF0000003FFF000003FFFFC00
1FFFF0000000000000007FFFF800
1FFFF000000000000000FFFFF800
3FFFE000000000000001FFFFF000
3FFFE000000000000007FFFFE000
3FFFE00000000000000FFFFFE000
3FFFE00000000000003FFFFFC000
3FFFE00000000000007FFFFF8000
7FFFE0000000000003FFFFFF8000
7FFFE000000000000FFFFFFF0000
7FFFC00000000000FFFFFFFE0000
7FFFC0000000001FFFFFFFFC0000
7FFFFFFFFFFFFFFFFFFFFFF80000
7FFFFFFFFFFFFFFFFFFFFFF00000
7FFFFFFFFFFFFFFFFFFFFFE00000
FFFFFFFFFFFFFFFFFFFFFFC00000
FFFFFFFFFFFFFFFFFFFFFF800000
FFFFFFFFFFFFFFFFFFFFFF000000
FFFFFFFFFFFFFFFFFFFFFC000000
FFFFFFFFFFFFFFFFFFFFF8000000
FFFFFFFFFFFFFFFFFFFFE0000000
FFFFFFFFFFFFFFFFFFFFC0000000
FFFFFFFFFFFFFFFFFFFF00000000
FFFFFFFFFFFFFFFFFFF800000000
FFFFFFFFFFFFFFFFFFE000000000
FFFFFFFFFFFFFFFFFC0000000000
ENDCHAR
STARTCHAR 0031
ENCODING 49
SWIDTH 652 0
DWIDTH 47 0
BBX 28 65 1 0
BITMAP
FFFFFFF0
FFFFFFF0
FFFFFFF0
FFFFFFF0
FFFFFFF0
FFFFFFF0
FFFFFFF0
FFFFFFF0
FFFFFFF0
FFFFFFF0
FFFFFFF0
FFFFFFF0
FFFFFFF0
FFFFFFF0
0003FFF0
0003FFF0
0003FFF0
0003FFF0
0003FFF0
0003FFF0
0003FFF0
0003FFF0
0003FFF0
0003FFF0
0003FFF0
0003FFF0
0003FFF0
0003FFF0
0003FFF0
0003FFF0
0003FFF0
0003FFF0
0003FFF0
0003FFF0
0003FFF0
0003FFF0
0003FFF0
0003FFF0
0003FFF0
0003FFF0
0003FFF0
0003FFF0
0003FFF0
0003FFF0
0003FFF0
0003FFF0
0003FFF0
0003FFF0
0003FFF0
0003FFF0
0003FFF0
0003FFF0
0003FFF0
0003FFF0
0003FFF0
0003FFF0
0003FFF0
0003FFF0
0003FFF0
0003FFF0
0003FFF0
0003FFF0
0003FFF0
0003FFF0
0003FFF0
ENDCHAR
STARTCHAR 0032
ENCODING 50
SWIDTH 1805 0
DWIDTH 130 0
BBX 111 65 1 0
BITMAP
FFFFFFFFFFFFFFFFFFFE00000000
FFFFFFFFFFFFFFFFFFFFE0000000
FFFFFFFFFFFFFFFFFFFFFC000000
FFFFFFFFFFFFFFFFFFFFFF000000
FFFFFFFFFFFFFFFFFFFFFFC00000
FFFFFFFFFFFFFFFFFFFFFFF00000
FFFFFFFFFFFFFFFFFFFFFFF80000
FFFFFFFFFFFFFFFFFFFFFFFE0000
FFFFFFFFFFFFFFFFFFFFFFFF0000
FFFFFFFFFFFFFFFFFFFFFFFF8000
FFFFFFFFFFFFFFFFFFFFFFFFC000
FFFFFFFFFFFFFFFFFFFFFFFFE000
FFFFFFFFFFFFFFFFFFFFFFFFF000
FFFFFFFFFFFFFFFFFFFFFFFFF800
000000000000000003FFFFFFFC00
0000000000000000000FFFFFFE00
00000000000000000001FFFFFE00
000000000000000000007FFFFF00
000000000000000000001FFFFF80
000000000000000000000FFFFF80
0000000000000000000003FFFFC0
0000000000000000000001FFFFC0
0000000000000000000000FFFFE0
0000000000000000000000FFFFE0
00000000000000000000007FFFF0
00000000000000000000007FFFF0
00000000000000000000003FFFF0
00000000000000000000003FFFF8
00000001FFFFFFFFFFFFFFFFFFF8
0000001FFFFFFFFFFFFFFFFFFFF8
000000FFFFFFFFFFFFFFFFFFFFF8
000003FFFFFFFFFFFFFFFFFFFFFC
00001FFFFFFFFFFFFFFFFFFFFFFC
00003FFFFFFFFFFFFFFFFFFFFFFC
0000FFFFFFFFFFFFFFFFFFFFFFFC
0001FFFFFFFFFFFFFFFFFFFFFFFC
0007FFFFFFFFFFFFFFFFFFFFFFFC
000FFFFFFFFFFFFFFFFFFFFFFFFE
001FFFFFFFFFFFFFFFFFFFFFFFFE
003FFFFFFFFFFFFFFFFFFFFFFFFE
007FFFFFFF000000000000000000
00FFFFFF80000000000000000000
01FFFFF800000000000000000000
01FFFFE000000000000000000000
03FFFF8000000000000000000000
07FFFF0000000000000000000000
07FFFE0000000000000000000000
0FFFFC0000000000000000000000
0FFFF80000000000000000000000
1FFFF80000000000000000000000
1FFFF00000000000000000000000
3FFFFFFFFFFFFFFFFFFFFFFFFFFE
3FFFFFFFFFFFFFFFFFFFFFFFFFFE
3FFFFFFFFFFFFFFFFFFFFFFFFFFE
7FFFFFFFFFFFFFFFFFFFFFFFFFFE
7FFFFFFFFFFFFFFFFFFFFFFFFFFE
7FFFFFFFFFFFFFFFFFFFFFFFFFFE
7FFFFFFFFFFFFFFFFFFFFFFFFFFE
FFFFFFFFFFFFFFFFFFFFFFFFFFFE
FFFFFFFFFFFFFFFFFFFFFFFFFFFE
FFFFFFFFFFFFFFFFFFFFFFFFFFFE
FFFFFFFFFFFFFFFFFFFFFFFFFFFE
FFFFFFFFFFFFFFFFFFFFFFFFFFFE
FFFFFFFFFFFFFFFFFFFFFFFFFFFE
FFFFFFFFFFFFFFFFFFFFFFFFFFFE
ENDCHAR
STARTCHAR 0033
ENCODING 51
SWIDTH 1805 0
DWIDTH 130 0
BBX 111 65 1 0
BITMAP
FFFFFFFFFFFFFFFFFFFFFFFFFFFE
FFFFFFFFFFFFFFFFFFFFFFFFFFFE
FFFFFFFFFFFFFFFFFFFFFFFFFFFE
FFFFFFFFFFFFFFFFFFFFFFFFFFFE
FFFFFFFFFFFFFFFFFFFFFFFFFFFC
FFFFFFFFFFFFFFFFFFFFFFFFFFFC
FFFFFFFFFFFFFFFFFFFFFFFFFFFC
FFFFFFFFFFFFFFFFFFFFFFFFFFFC
FFFFFFFFFFFFFFFFFFFFFFFFFFFC
FFFFFFFFFFFFFFFFFFFFFFFFFFFC
FFFFFFFFFFFFFFFFFFFFFFFFFFFC
FFFFFFFFFFFFFFFFFFFFFFFFFFF8
FFFFFFFFFFFFFFFFFFFFFFFFFFF8
FFFFFFFFFFFFFFFFFFFFFFFFFFF8
00000000000000000000003FFFF8
00000000000000000000003FFFF0
00000000000000000000007FFFF0
00000000000000000000007FFFF0
0000000000000000000000FFFFE0
0000000000000000000000FFFFE0
0000000000000000000001FFFFC0
0000000000000000000003FFFFC0
000000000000000000000FFFFF80
000000000000000000001FFFFF80
000000000000000000007FFFFF00
00000000000000000001FFFFFE00
0000000000000000000FFFFFFE00
000000000000000001FFFFFFFC00
000001FFFFFFFFFFFFFFFFFFF800
000001FFFFFFFFFFFFFFFFFFF000
000001FFFFFFFFFFFFFFFFFFE000
000001FFFFFFFFFFFFFFFFFFC000
000001FFFFFFFFFFFFFFFFFF0000
000001FFFFFFFFFFFFFFFFFFC000
000001FFFFFFFFFFFFFFFFFFE000
000001FFFFFFFFFFFFFFFFFFF000
000001FFFFFFFFFFFFFFFFFFF800
000001FFFFFFFFFFFFFFFFFFFC00
000001FFFFFFFFFFFFFFFFFFFE00
000001FFFFFFFFFFFFFF0FFFFF00
0000000000000000000007FFFF00
0000000000000000000003FFFF80
0000000000000000000001FFFF80
0000000000000000000001FFFFC0
0000000000000000000000FFFFC0
0000000000000000000000FFFFE0
00000000000000000000007FFFE0
00000000000000000000007FFFF0
00000000000000000000003FFFF0
00000000000000000000003FFFF0
00000000000000000000003FFFF8
FFFFFFFFFFFFFFFFFFFFFFFFFFF8
FFFFFFFFFFFFFFFFFFFFFFFFFFF8
FFFFFFFFFFFFFFFFFFFFFFFFFFF8
FFFFFFFFFFFFFFFFFFFFFFFFFFFC
FFFFFFFFFFFFFFFFFFFFFFFFFFFC
FFFFFFFFFFFFFFFFFFFFFFFFFFFC
FFFFFFFFFFFFFFFFFFFFFFFFFFFC
FFFFFFFFFFFFFFFFFFFFFFFFFFFC
FFFFFFFFFFFFFFFFFFFFFFFFFFFC
FFFFFFFFFFFFFFFFFFFFFFFFFFFC
FFFFFFFFFFFFFFFFFFFFFFFFFFFC
FFFFFFFFFFFFFFFFFFFFFFFFFFFE
FFFFFFFFFFFFFFFFFFFFFFFFFFFE
FFFFFFFFFFFFFFFFFFFFFFFFFFFE
ENDCHAR
STARTCHAR 0034
ENCODING 52
SWIDTH 1805 0
DWIDTH 130 0
BBX 111 74 1 0
BITMAP
0000000007FFFFFFFFC000000000
0000000007FFFFFFFFC000000000
0000000007FFFFFFFFC000000000
0000000007FFFFFFFFC000000000
0000000007FFFFFFFFC000000000
0000000007FFFFFFFFC000000000
0000000007FFFFFFFFC000000000
0000000000000000000000000000
0000000000000000000000000000
00000003FFFF000000000007FFFE
0000001FFFFF000000000007FFFE
000000FFFFFF000000000007FFFE
000003FFFFFF000000000007FFFE
00000FFFFFFF000000000007FFFE
00003FFFFFFF000000000007FFFE
00007FFFFFFF000000000007FFFE
0000FFFFFFFF000000000007FFFE
0003FFFFFFFF000000000007FFFE
0007FFFFFFFF000000000007FFFE
000FFFFFFFFF000000000007FFFE
001FFFFFFFFF000000000007FFFE
003FFFFFFFFF000000000007FFFE
007FFFFFFFFF000000000007FFFE
007FFFFFFF80000000000007FFFE
00FFFFFFE000000000000007FFFE
01FFFFFF0000000000000007FFFE
03FFFFF80000000000000007FFFE
03FFFFE00000000000000007FFFE
07FFFFC00000000000000007FFFE
07FFFF800000000000000007FFFE
0FFFFF000000000000000007FFFE
0FFFFE000000000000000007FFFE
1FFFFC000000000000000007FFFE
1FFFFC000000000000000007FFFE
3FFFF8000000000000000007FFFE
3FFFF8000000000000000007FFFE
3FFFF0000000000000000007FFFE
7FFFFFFFFFFFFFFFFFFFFFFFFFFE
7FFFFFFFFFFFFFFFFFFFFFFFFFFE
7FFFFFFFFFFFFFFFFFFFFFFFFFFE
7FFFFFFFFFFFFFFFFFFFFFFFFFFE
7FFFFFFFFFFFFFFFFFFFFFFFFFFE
FFFFFFFFFFFFFFFFFFFFFFFFFFFE
FFFFFFFFFFFFFFFFFFFFFFFFFFFE
FFFFFFFFFFFFFFFFFFFFFFFFFFFE
FFFFFFFFFFFFFFFFFFFFFFFFFFFE
FFFFFFFFFFFFFFFFFFFFFFFFFFFE
FFFFFFFFFFFFFFFFFFFFFFFFFFFE
FFFFFFFFFFFFFFFFFFFFFFFFFFFE
000000000000000000000007FFFE
000000000000000000000007FFFE
000000000000000000000007FFFE
000000000000000000000007FFFE
000000000000000000000007FFFE
000000000000000000000007FFFE
000000000000000000000007FFFE
000000000000000000000007FFFE
000000000000000000000007FFFE
000000000000000000000007FFFE
000000000000000000000007FFFE
000000000000000000000007FFFE
000000000000000000000007FFFE
000000000000000000000007FFFE
000000000000000000000007FFFE
000000000000000000000007FFFE
000000000000000000000007FFFE
000000000000000000000007FFFE
000000000000000000000007FFFE
000000000000000000000007FFFE
000000000000000000000007FFFE
000000000000000000000007FFFE
000000000000000000000007FFFE
000000000000000000000007FFFE
000000000000000000000007FFFE
ENDCHAR
STARTCHAR 0035
ENCODING 53
SWIDTH 1805 0
DWIDTH 130 0
BBX 111 65 1 0
BITMAP
FFFFFFFFFFFFFFFFFFFFFFFFFFFE
FFFFFFFFFFFFFFFFFFFFFFFFFFFE
FFFFFFFFFFFFFFFFFFFFFFFFFFFE
FFFFFFFFFFFFFFFFFFFFFFFFFFFE
FFFFFFFFFFFFFFFFFFFFFFFFFFFE
FFFFFFFFFFFFFFFFFFFFFFFFFFFE
FFFFFFFFFFFFFFFFFFFFFFFFFFFE
FFFFFFFFFFFFFFFFFFFFFFFFFFFE
FFFFFFFFFFFFFFFFFFFFFFFFFFFE
FFFFFFFFFFFFFFFFFFFFFFFFFFFE
FFFFFFFFFFFFFFFFFFFFFFFFFFFE
FFFFFFFFFFFFFFFFFFFFFFFFFFFE
FFFFFFFFFFFFFFFFFFFFFFFFFFFE
FFFFFFFFFFFFFFFFFFFFFFFFFFFE
FFFC000000000000000000000000
FFFC000000000000000000000000
FFFC000000000000000000000000
FFFC000000000000000000000000
FFFC000000000000000000000000
FFFC000000000000000000000000
FFFC000000000000000000000000
FFFC000000000000000000000000
FFFC000000000000000000000000
FFFC000000000000000000000000
FFFC000000000000000000000000
FFFC000000000000000000000000
FFFC000000000000000000000000
FFFC000000000000000000000000
FFFFFFFFFFFFFFFFFFFFFFFFFFFE
FFFFFFFFFFFFFFFFFFFFFFFFFFFE
FFFFFFFFFFFFFFFFFFFFFFFFFFFE
FFFFFFFFFFFFFFFFFFFFFFFFFFFC
FFFFFFFFFFFFFFFFFFFFFFFFFFFC
FFFFFFFFFFFFFFFFFFFFFFFFFFFC
FFFFFFFFFFFFFFFFFFFFFFFFFFFC
FFFFFFFFFFFFFFFFFFFFFFFFFFFC
FFFFFFFFFFFFFFFFFFFFFFFFFFFC
FFFFFFFFFFFFFFFFFFFFFFFFFFFC
FFFFFFFFFFFFFFFFFFFFFFFFFFF8
FFFFFFFFFFFFFFFFFFFFFFFFFFF8
00000000000000000000003FFFF8
00000000000000000000003FFFF0
00000000000000000000007FFFF0
00000000000000000000007FFFF0
0000000000000000000000FFFFE0
0000000000000000000001FFFFE0
0000000000000000000003FFFFC0
0000000000000000000007FFFF80
000000000000000000001FFFFF80
000000000000000000007FFFFF00
00000000000000000001FFFFFE00
0000000000000000001FFFFFFC00
000000000000000003FFFFFFFC00
FFFFFFFFFFFFFFFFFFFFFFFFF800
FFFFFFFFFFFFFFFFFFFFFFFFF000
FFFFFFFFFFFFFFFFFFFFFFFFC000
FFFFFFFFFFFFFFFFFFFFFFFF8000
FFFFFFFFFFFFFFFFFFFFFFFF0000
FFFFFFFFFFFFFFFFFFFFFFFE0000
FFFFFFFFFFFFFFFFFFFFFFF80000
FFFFFFFFFFFFFFFFFFFFFFE00000
FFFFFFFFFFFFFFFFFFFFFF800000
FFFFFFFFFFFFFFFFFFFFFE000000
FFFFFFFFFFFFFFFFFFFFF0000000
FFFFFFFFFFFFFFFFFFFF80000000
ENDCHAR
STARTCHAR 0036
ENCODING 54
SWIDTH 1805 0
DWIDTH 130 0
BBX 111 65 1 0
BITMAP
0000000000FFFFFFFFFFFFFFFFFE
000000000FFFFFFFFFFFFFFFFFFE
000000007FFFFFFFFFFFFFFFFFFE
00000001FFFFFFFFFFFFFFFFFFFE
00000007FFFFFFFFFFFFFFFFFFFE
0000001FFFFFFFFFFFFFFFFFFFFE
0000003FFFFFFFFFFFFFFFFFFFFE
000000FFFFFFFFFFFFFFFFFFFFFE
000001FFFFFFFFFFFFFFFFFFFFFE
000003FFFFFFFFFFFFFFFFFFFFFE
000007FFFFFFFFFFFFFFFFFFFFFE
00000FFFFFFFFFFFFFFFFFFFFFFE
00001FFFFFFFFFFFFFFFFFFFFFFE
00003FFFFFFFFFFFFFFFFFFFFFFE
00007FFFFFFFF000000000000000
0000FFFFFFFC0000000000000000
0001FFFFFFE00000000000000000
0003FFFFFF000000000000000000
0007FFFFFC000000000000000000
0007FFFFF0000000000000000000
000FFFFFE0000000000000000000
001FFFFF80000000000000000000
001FFFFF00000000000000000000
003FFFFE00000000000000000000
007FFFFC00000000000000000000
007FFFF800000000000000000000
00FFFFF000000000000000000000
00FFFFE000000000000000000000
01FFFFC007FFFFFFFFFFFFFFFFFE
01FFFF8007FFFFFFFFFFFFFFFFFE
03FFFF8007FFFFFFFFFFFFFFFFFE
03FFFF0007FFFFFFFFFFFFFFFFFC
07FFFE0007FFFFFFFFFFFFFFFFFC
07FFFE0007FFFFFFFFFFFFFFFFFC
07FFFC0007FFFFFFFFFFFFFFFFFC
0FFFFC0007FFFFFFFFFFFFFFFFFC
0FFFF80007FFFFFFFFFFFFFFFFFC
0FFFF80007FFFFFFFFFFFFFFFFFC
1FFFF80007FFFFFFFFFFFFFFFFFC
1FFFF00007FFFFFFFFFFFFFFFFF8
1FFFF000000000000000000FFFF8
1FFFF000000000000000000FFFF8
3FFFE000000000000000000FFFF8
3FFFE000000000000000000FFFF0
3FFFE000000000000000001FFFF0
3FFFE000000000000000003FFFF0
3FFFE000000000000000007FFFE0
7FFFE00000000000000000FFFFE0
7FFFE00000000000000003FFFFE0
7FFFC0000000000000003FFFFFC0
7FFFC00000000000000FFFFFFFC0
7FFFFFFFFFFFFFFFFFFFFFFFFF80
7FFFFFFFFFFFFFFFFFFFFFFFFF00
7FFFFFFFFFFFFFFFFFFFFFFFFF00
FFFFFFFFFFFFFFFFFFFFFFFFFE00
FFFFFFFFFFFFFFFFFFFFFFFFFC00
FFFFFFFFFFFFFFFFFFFFFFFFF800
FFFFFFFFFFFFFFFFFFFFFFFFF000
FFFFFFFFFFFFFFFFFFFFFFFFC000
FFFFFFFFFFFFFFFFFFFFFFFF8000
FFFFFFFFFFFFFFFFFFFFFFFE0000
FFFFFFFFFFFFFFFFFFFFFFF80000
FFFFFFFFFFFFFFFFFFFFFFC00000
FFFFFFFFFFFFFFFFFFFFFE000000
FFFFFFFFFFFFFFFFFFFF00000000
ENDCHAR
STARTCHAR 0037
ENCODING 55
SWIDTH 1805 0
DWIDTH 130 0
BBX 111 65 1 0
BITMAP
FFFFFFFFFFFFFFFFFFFFFFFFFFFE
FFFFFFFFFFFFFFFFFFFFFFFFFFFE
FFFFFFFFFFFFFFFFFFFFFFFFFFFE
FFFFFFFFFFFFFFFFFFFFFFFFFFFE
FFFFFFFFFFFFFFFFFFFFFFFFFFFE
FFFFFFFFFFFFFFFFFFFFFFFFFFFE
FFFFFFFFFFFFFFFFFFFFFFFFFFFE
FFFFFFFFFFFFFFFFFFFFFFFFFFFE
FFFFFFFFFFFFFFFFFFFFFFFFFFFE
FFFFFFFFFFFFFFFFFFFFFFFFFFFE
FFFFFFFFFFFFFFFFFFFFFFFFFFFE
FFFFFFFFFFFFFFFFFFFFFFFFFFFE
FFFFFFFFFFFFFFFFFFFFFFFFFFFE
FFFFFFFFFFFFFFFFFFFFFFFFFFFE
0000000000001FFFFFFFFFFE0000
0000000000007FFFFFFFFF800000
000000000001FFFFFFFFF0000000
000000000003FFFFFFFF80000000
00000000000FFFFFFFF800000000
00000000003FFFFFFFC000000000
00000000007FFFFFFF0000000000
0000000001FFFFFFF80000000000
0000000003FFFFFFE00000000000
0000000007FFFFFF800000000000
000000001FFFFFFE000000000000
000000003FFFFFF8000000000000
000000007FFFFFE0000000000000
00000000FFFFFF80000000000000
00000001FFFFFE00000000000000
00000007FFFFFC00000000000000
0000000FFFFFF000000000000000
0000001FFFFFE000000000000000
0000003FFFFFC000000000000000
0000003FFFFF0000000000000000
0000007FFFFE0000000000000000
000000FFFFFC0000000000000000
000001FFFFF80000000000000000
000003FFFFF00000000000000000
000003FFFFE00000000000000000
000007FFFFC00000000000000000
000007FFFF800000000000000000
00000FFFFF000000000000000000
00000FFFFE000000000000000000
00001FFFFE000000000000000000
00001FFFFC000000000000000000
00001FFFFC000000000000000000
00003FFFF8000000000000000000
00003FFFF8000000000000000000
00003FFFF0000000000000000000
00003FFFF0000000000000000000
00003FFFF0000000000000000000
00003FFFF0000000000000000000
00003FFFF0000000000000000000
00003FFFF0000000000000000000
00003FFFF0000000000000000000
00003FFFF0000000000000000000
00003FFFF0000000000000000000
00003FFFF0000000000000000000
00003FFFF0000000000000000000
00003FFFF0000000000000000000
00003FFFF0000000000000000000
00003FFFF0000000000000000000
00003FFFF0000000000000000000
00003FFFF0000000000000000000
00003FFFF0000000000000000000
ENDCHAR
STARTCHAR 0038
ENCODING 56
SWIDTH 1805 0
DWIDTH 130 0
BBX 111 65 1 0
BITMAP
FFFFFFFFFFFFFFFFFFFFFFFFFFFE
FFFFFFFFFFFFFFFFFFFFFFFFFFFE
FFFFFFFFFFFFFFFFFFFFFFFFFFFE
FFFFFFFFFFFFFFFFFFFFFFFFFFFE
FFFFFFFFFFFFFFFFFFFFFFFFFFFC
FFFFFFFFFFFFFFFFFFFFFFFFFFFC
FFFFFFFFFFFFFFFFFFFFFFFFFFFC
FFFFFFFFFFFFFFFFFFFFFFFFFFFC
7FFFFFFFFFFFFFFFFFFFFFFFFFFC
7FFFFFFFFFFFFFFFFFFFFFFFFFFC
7FFFFFFFFFFFFFFFFFFFFFFFFFFC
7FFFFFFFFFFFFFFFFFFFFFFFFFF8
7FFFFFFFFFFFFFFFFFFFFFFFFFF8
7FFFFFFFFFFFFFFFFFFFFFFFFFF8
3FFFE000000000000000003FFFF8
3FFFE000000000000000003FFFF0
3FFFF000000000000000007FFFF0
1FFFF800000000000000007FFFF0
1FFFF80000000000000000FFFFE0
1FFFFC0000000000000000FFFFE0
0FFFFE0000000000000001FFFFC0
0FFFFF0000000000000003FFFFC0
07FFFFC000000000000007FFFF80
03FFFFE00000000000000FFFFF80
03FFFFF80000000000007FFFFF00
01FFFFFF000000000003FFFFFE00
00FFFFFFFFFFFFFFFFFFFFFFFE00
007FFFFFFFFFFFFFFFFFFFFFFC00
003FFFFFFFFFFFFFFFFFFFFFF800
000FFFFFFFFFFFFFFFFFFFFFF000
0003FFFFFFFFFFFFFFFFFFFFE000
0000FFFFFFFFFFFFFFFFFFFFC000
0001FFFFFFFFFFFFFFFFFFFF0000
0003FFFFFFFFFFFFFFFFFFFFC000
000FFFFFFFFFFFFFFFFFFFFFE000
001FFFFFFFFFFFFFFFFFFFFFF800
003FFFFFFFFFFFFFFFFFFFFFF800
003FFFFFFFFFFFFFFFFFFFFFFC00
007FFFFFE0000000000FFFFFFE00
00FFFFFF000000000001FFFFFF00
01FFFFF80000000000007FFFFF00
01FFFFE00000000000001FFFFF80
03FFFF800000000000000FFFFF80
07FFFF0000000000000007FFFFC0
07FFFE0000000000000003FFFFC0
0FFFFC0000000000000001FFFFE0
0FFFF80000000000000000FFFFE0
0FFFF000000000000000007FFFE0
1FFFE000000000000000007FFFF0
1FFFE000000000000000003FFFF0
3FFFE000000000000000003FFFF0
3FFFFFFFFFFFFFFFFFFFFFFFFFF0
3FFFFFFFFFFFFFFFFFFFFFFFFFF8
7FFFFFFFFFFFFFFFFFFFFFFFFFF8
7FFFFFFFFFFFFFFFFFFFFFFFFFF8
7FFFFFFFFFFFFFFFFFFFFFFFFFF8
7FFFFFFFFFFFFFFFFFFFFFFFFFF8
7FFFFFFFFFFFFFFFFFFFFFFFFFFC
FFFFFFFFFFFFFFFFFFFFFFFFFFFC
FFFFFFFFFFFFFFFFFFFFFFFFFFFC
FFFFFFFFFFFFFFFFFFFFFFFFFFFC
FFFFFFFFFFFFFFFFFFFFFFFFFFFC
FFFFFFFFFFFFFFFFFFFFFFFFFFFC
FFFFFFFFFFFFFFFFFFFFFFFFFFFC
FFFFFFFFFFFFFFFFFFFFFFFFFFFE
ENDCHAR
STARTCHAR 0039
ENCODING 57
SWIDTH 1805 0
DWIDTH 130 0
BBX 111 65 1 0
BITMAP
00000003FFFFFFFFFFFFFFFFFFFE
000000FFFFFFFFFFFFFFFFFFFFFE
00000FFFFFFFFFFFFFFFFFFFFFFE
00003FFFFFFFFFFFFFFFFFFFFFFE
0000FFFFFFFFFFFFFFFFFFFFFFFE
0003FFFFFFFFFFFFFFFFFFFFFFFC
000FFFFFFFFFFFFFFFFFFFFFFFFC
001FFFFFFFFFFFFFFFFFFFFFFFFC
003FFFFFFFFFFFFFFFFFFFFFFFFC
007FFFFFFFFFFFFFFFFFFFFFFFFC
00FFFFFFFFFFFFFFFFFFFFFFFFFC
01FFFFFFFFFFFFFFFFFFFFFFFFFC
03FFFFFFFFFFFFFFFFFFFFFFFFFC
03FFFFFFFFFFFFFFFFFFFFFFFFFC
07FFFFFFE00000000000000FFFFC
07FFFFF0000000000000000FFFFC
0FFFFF80000000000000000FFFF8
0FFFFE00000000000000000FFFF8
1FFFF800000000000000000FFFF8
1FFFF000000000000000000FFFF8
3FFFF000000000000000000FFFF8
3FFFE000000000000000001FFFF0
3FFFE000000000000000001FFFF0
3FFFE000000000000000001FFFF0
7FFFC000000000000000001FFFF0
7FFFFFFFFFFFFFFFFFC0003FFFE0
7FFFFFFFFFFFFFFFFFC0003FFFE0
7FFFFFFFFFFFFFFFFFC0003FFFE0
7FFFFFFFFFFFFFFFFFC0007FFFE0
7FFFFFFFFFFFFFFFFFC0007FFFC0
FFFFFFFFFFFFFFFFFFC000FFFFC0
FFFFFFFFFFFFFFFFFFC000FFFF80
FFFFFFFFFFFFFFFFFFC001FFFF80
FFFFFFFFFFFFFFFFFFC001FFFF80
FFFFFFFFFFFFFFFFFFC003FFFF00
FFFFFFFFFFFFFFFFFFC007FFFF00
FFFFFFFFFFFFFFFFFFC00FFFFE00
000000000000000000000FFFFE00
000000000000000000001FFFFC00
000000000000000000003FFFFC00
000000000000000000007FFFF800
00000000000000000000FFFFF800
00000000000000000001FFFFF000
00000000000000000007FFFFE000
0000000000000000000FFFFFE000
0000000000000000003FFFFFC000
0000000000000000007FFFFF8000
000000000000000003FFFFFF8000
00000000000000000FFFFFFF0000
0000000000000000FFFFFFFE0000
000000000000001FFFFFFFFC0000
FFFFFFFFFFFFFFFFFFFFFFF80000
FFFFFFFFFFFFFFFFFFFFFFF00000
FFFFFFFFFFFFFFFFFFFFFFE00000
FFFFFFFFFFFFFFFFFFFFFFC00000
FFFFFFFFFFFFFFFFFFFFFF800000
FFFFFFFFFFFFFFFFFFFFFF000000
FFFFFFFFFFFFFFFFFFFFFC000000
FFFFFFFFFFFFFFFFFFFFF8000000
FFFFFFFFFFFFFFFFFFFFE0000000
FFFFFFFFFFFFFFFFFFFFC0000000
FFFFFFFFFFFFFFFFFFFF00000000
FFFFFFFFFFFFFFFFFFF800000000
FFFFFFFFFFFFFFFFFFE000000000
FFFFFFFFFFFFFFFFFC0000000000
ENDCHAR
STARTCHAR 003A
ENCODING 58
SWIDTH 458 0
DWIDTH 33 0
BBX 14 39 1 0
BITMAP
FFFC
FFFC
FFFC
FFFC
FFFC
FFFC
FFFC
FFFC
FFFC
FFFC
FFFC
FFFC
FFFC
FFFC
0000
0000
0000
0000
0000
0000
0000
0000
0000
0000
0000
FFFC
FFFC
FFFC
FFFC
FFFC
FFFC
FFFC
FFFC
FFFC
FFFC
FFFC
FFFC
FFFC
FFFC
ENDCHAR
STARTCHAR 003B
ENCODING 59
SWIDTH 458 0
DWIDTH 33 0
BBX 14 39 1 0
BITMAP
FFFC
FFFC
FFFC
FFFC
FFFC
FFFC
FFFC
FFFC
FFFC
FFFC
FFFC
FFFC
FFFC
FFFC
0000
0000
0000
0000
0000
0000
0000
0000
0000
0000
0000
FFFC
FFFC
FFFC
FFFC
FFFC
FFF8
FFF8
FFF8
FFF0
FFE0
FFE0
FF80
FF00
F800
ENDCHAR
STARTCHAR 003C
ENCODING 60
SWIDTH 1041 0
DWIDTH 75 0
BBX 55 35 1 20
BITMAP
00000000000002
0000000000001E
000000000000FE
000000000007FE
00000000003FFE
0000000001FFFE
000000000FFFFE
000000007FFFFE
00000003FFFFFE
0000001FFFFFFE
000000FFFFFFFE
000007FFFFFFFE
00003FFFFFFFFE
0001FFFFFFFFFE
000FFFFFFFFFF8
007FFFFFFFFF80
03FFFFFFFFF800
1FFFFFFFFF8000
FFFFFFFFF80000
0FFFFFFFFF8000
01FFFFFFFFF800
003FFFFFFFFF80
0003FFFFFFFFF8
00007FFFFFFFFE
00000FFFFFFFFE
000000FFFFFFFE
0000001FFFFFFE
00000003FFFFFE
000000003FFFFE
0000000007FFFE
0000000000FFFE
00000000000FFE
000000000001FE
0000000000003E
00000000000002
ENDCHAR
STARTCHAR 003D
ENCODING 61
SWIDTH 1041 0
DWIDTH 75 0
BBX 55 35 1 20
BITMAP
FFFFFFFFFFFFFE
FFFFFFFFFFFFFE
FFFFFFFFFFFFFE
FFFFFFFFFFFFFE
FFFFFFFFFFFFFE
FFFFFFFFFFFFFE
FFFFFFFFFFFFFE
FFFFFFFFFFFFFE
FFFFFFFFFFFFFE
FFFFFFFFFFFFFE
FFFFFFFFFFFFFE
FFFFFFFFFFFFFE
FFFFFFFFFFFFFE
FFFFFFFFFFFFFE
00000000000000
00000000000000
00000000000000
00000000000000
00000000000000
00000000000000
00000000000000
00000000000000
00000000000000
FFFFFFFFFFFFFE
FFFFFFFFFFFFFE
FFFFFFFFFFFFFE
FFFFFFFFFFFFFE
FFFFFFFFFFFFFE
FFFFFFFFFFFFFE
FFFFFFFFFFFFFE
FFFFFFFFFFFFFE
FFFFFFFFFFFFFE
FFFFFFFFFFFFFE
FFFFFFFFFFFFFE
FFFFFFFFFFFFFE
ENDCHAR
STARTCHAR 003E
ENCODING 62
SWIDTH 1041 0
DWIDTH 75 0
BBX 55 35 1 20
BITMAP
C0000000000000
F8000000000000
FF000000000000
FFE00000000000
FFFC0000000000
FFFF8000000000
FFFFF000000000
FFFFFE00000000
FFFFFFC0000000
FFFFFFF8000000
FFFFFFFF000000
FFFFFFFFE00000
FFFFFFFFFC0000
FFFFFFFFFF8000
1FFFFFFFFFF000
01FFFFFFFFFE00
001FFFFFFFFFC0
0001FFFFFFFFF8
00003FFFFFFFFE
0003FFFFFFFFF0
003FFFFFFFFF00
03FFFFFFFFF800
3FFFFFFFFFC000
FFFFFFFFFC0000
FFFFFFFFE00000
FFFFFFFF000000
FFFFFFF0000000
FFFFFF80000000
FFFFFC00000000
FFFFC000000000
FFFE0000000000
FFF00000000000
FF000000000000
F8000000000000
C0000000000000
ENDCHAR
STARTCHAR 003F
ENCODING 63
SWIDTH 1805 0
DWIDTH 130 0
BBX 111 65 1 0
BITMAP
FFFFFFFFFFFFFFFFFFFFFFFFFFFE
FFFFFFFFFFFFFFFFFFFFFFFFFFFE
FFFFFFFFFFFFFFFFFFFFFFFFFFFE
FFFFFFFFFFFFFFFFFFFFFFFFFFFC
FFFFFFFFFFFFFFFFFFFFFFFFFFFC
FFFFFFFFFFFFFFFFFFFFFFFFFFFC
FFFFFFFFFFFFFFFFFFFFFFFFFFFC
FFFFFFFFFFFFFFFFFFFFFFFFFFFC
FFFFFFFFFFFFFFFFFFFFFFFFFFFC
FFFFFFFFFFFFFFFFFFFFFFFFFFFC
FFFFFFFFFFFFFFFFFFFFFFFFFFF8
FFFFFFFFFFFFFFFFFFFFFFFFFFF8
FFFFFFFFFFFFFFFFFFFFFFFFFFF8
FFFFFFFFFFFFFFFFFFFFFFFFFFF0
00000000000000000000003FFFF0
00000000000000000000003FFFF0
00000000000000000000007FFFE0
00000000000000000000007FFFE0
0000000000000000000000FFFFC0
0000000000000000000001FFFFC0
0000000000000000000001FFFF80
0000000000000000000003FFFF80
000000000000000000000FFFFF00
000000000000000000001FFFFE00
000000000000000000007FFFFE00
00000000000000000001FFFFFC00
0000000000000000000FFFFFF800
000000000000000001FFFFFFF000
FFFFFFFFFFFFFFFFFFFFFFFFE000
FFFFFFFFFFFFFFFFFFFFFFFFC000
FFFFFFFFFFFFFFFFFFFFFFFF8000
FFFFFFFFFFFFFFFFFFFFFFFF0000
FFFFFFFFFFFFFFFFFFFFFFFE0000
FFFFFFFFFFFFFFFFFFFFFFF80000
FFFFFFFFFFFFFFFFFFFFFFF00000
FFFFFFFFFFFFFFFFFFFFFFC00000
FFFFFFFFFFFFFFFFFFFFFF000000
FFFFFFFFFFFFFFFFFFFFFC000000
FFFFFFFFFFFFFFFFFFFFE0000000
FFFFFFFFFFFFFFFFFFFE00000000
0000000000000000000000000000
0000000000000000000000000000
0000000000000000000000000000
0000000000000000000000000000
0000000000000000000000000000
0000000000000000000000000000
0000000000000000000000000000
0000000000000000000000000000
0000000000000000000000000000
0000000000000000000000000000
0000000000000000000000000000
FFFC000000000000000000000000
FFFC000000000000000000000000
FFFC000000000000000000000000
FFFC000000000000000000000000
FFFC000000000000000000000000
FFFC000000000000000000000000
FFFC000000000000000000000000
FFFC000000000000000000000000
FFFC000000000000000000000000
FFFC000000000000000000000000
FFFC000000000000000000000000
FFFC000000000000000000000000
FFFC000000000000000000000000
FFFC000000000000000000000000
ENDCHAR
STARTCHAR 0040
ENCODING 64
SWIDTH 1805 0
DWIDTH 130 0
BBX 111 65 1 0
BITMAP
0000000000FFFFFFFFFFFFFFFFFE
000000000FFFFFFFFFFFFFFFFFFE
000000007FFFFFFFFFFFFFFFFFFE
00000001FFFFFFFFFFFFFFFFFFFE
00000007FFFFFFFFFFFFFFFFFFFC
0000001FFFFFFFFFFFFFFFFFFFFC
0000003FFFFFFFFFFFFFFFFFFFFC
000000FFFFFFFFFFFFFFFFFFFFFC
000001FFFFFFFFFFFFFFFFFFFFFC
000003FFFFFFFFFFFFFFFFFFFFFC
000007FFFFFFFFFFFFFFFFFFFFFC
00000FFFFFFFFFFFFFFFFFFFFFF8
00001FFFFFFFFFFFFFFFFFFFFFF8
00003FFFFFFFFFFFFFFFFFFFFFF8
00007FFFFFFFF0000000000FFFF8
0000FFFFFFFC00000000000FFFF0
0001FFFFFFE000000000000FFFF0
0003FFFFFF0000000000000FFFF0
0007FFFFFC0000000000001FFFE0
0007FFFFF00000000000001FFFE0
000FFFFFE00000000000003FFFC0
001FFFFF800000000000003FFFC0
001FFFFF000000000000007FFF80
003FFFFE00000000000000FFFF00
007FFFFC00000000000003FFFF00
007FFFF80000000000000FFFFE00
00FFFFF0000000000000FFFFFC00
00FFFFE00000000000FFFFFFF800
01FFFFC00003FFFFFFFFFFFFF000
01FFFF800003FFFFFFFFFFFFE000
03FFFF800003FFFFFFFFFFFF8000
03FFFF000003FFFFFFFFFFFF0000
07FFFE000003FFFFFFFFFFFC0000
07FFFE000003FFFFFFFFFFF00000
07FFFC000003FFFFFFFFFFC00000
0FFFFC000003FFFFFFFFFF000000
0FFFF8000003FFFFFFFFF8000000
0FFFF8000003FFFFFFFFC0000000
1FFFF8000003FFFFFFF800000000
1FFFF0000003FFFFFE0000000000
1FFFF00000000000000000000000
1FFFF00000000000000000000000
3FFFE00000000000000000000000
3FFFE00000000000000000000000
3FFFE00000000000000000000000
3FFFE00000000000000000000000
3FFFE00000000000000000000000
7FFFE00000000000000000000000
7FFFE00000000000000000000000
7FFFC00000000000000000000000
7FFFC00000000000000000000000
7FFFFFFFFFFFFFFFFFFFFFFFFFFE
7FFFFFFFFFFFFFFFFFFFFFFFFFFE
7FFFFFFFFFFFFFFFFFFFFFFFFFFE
FFFFFFFFFFFFFFFFFFFFFFFFFFFE
FFFFFFFFFFFFFFFFFFFFFFFFFFFE
FFFFFFFFFFFFFFFFFFFFFFFFFFFE
FFFFFFFFFFFFFFFFFFFFFFFFFFFE
FFFFFFFFFFFFFFFFFFFFFFFFFFFE
FFFFFFFFFFFFFFFFFFFFFFFFFFFE
FFFFFFFFFFFFFFFFFFFFFFFFFFFE
FFFFFFFFFFFFFFFFFFFFFFFFFFFE
FFFFFFFFFFFFFFFFFFFFFFFFFFFE
FFFFFFFFFFFFFFFFFFFFFFFFFFFE
FFFFFFFFFFFFFFFFFFFFFFFFFFFE
ENDCHAR
STARTCHAR 0041
ENCODING 65
SWIDTH 1805 0
DWIDTH 130 0
BBX 111 65 1 0
BITMAP
000000000FFFFFFFFFFFFFFFFFFE
00000003FFFFFFFFFFFFFFFFFFFE
0000007FFFFFFFFFFFFFFFFFFFFE
000003FFFFFFFFFFFFFFFFFFFFFE
00000FFFFFFFFFFFFFFFFFFFFFFE
00003FFFFFFFFFFFFFFFFFFFFFFE
0000FFFFFFFFFFFFFFFFFFFFFFFE
0003FFFFFFFFFFFFFFFFFFFFFFFE
0007FFFFFFFFFFFFFFFFFFFFFFFE
001FFFFFFFFFFFFFFFFFFFFFFFFE
003FFFFFFFFFFFFFFFFFFFFFFFFE
007FFFFFFFFFFFFFFFFFFFFFFFFE
00FFFFFFFFFFFFFFFFFFFFFFFFFE
01FFFFFFFFFFFFFFFFFFFFFFFFFE
03FFFFFFFFFF0000000000007FFE
03FFFFFFFF800000000000007FFE
07FFFFFFF0000000000000007FFE
07FFFFFF80000000000000007FFE
0FFFFFFC00000000000000007FFE
1FFFFFF000000000000000007FFE
1FFFFFC000000000000000007FFE
1FFFFF8000000000000000007FFE
3FFFFE0000000000000000007FFE
3FFFFC0000000000000000007FFE
3FFFF80000000000000000007FFE
7FFFF00000000000000000007FFE
7FFFE00000000000000000007FFE
7FFFC00000000000000000007FFE
7FFFC00000000000000000007FFE
7FFF800000000000000000007FFE
FFFF800000000000000000007FFE
FFFF000000000000000000007FFE
FFFF000000000000000000007FFE
FFFFFFFFFFFFFFFFFFFFFFFFFFFE
FFFFFFFFFFFFFFFFFFFFFFFFFFFE
FFFFFFFFFFFFFFFFFFFFFFFFFFFE
FFFFFFFFFFFFFFFFFFFFFFFFFFFE
FFFFFFFFFFFFFFFFFFFFFFFFFFFE
FFFFFFFFFFFFFFFFFFFFFFFFFFFE
FFFFFFFFFFFFFFFFFFFFFFFFFFFE
FFFFFFFFFFFFFFFFFFFFFFFFFFFE
FFFFFFFFFFFFFFFFFFFFFFFFFFFE
FFFFFFFFFFFFFFFFFFFFFFFFFFFE
FFFFFFFFFFFFFFFFFFFFFFFFFFFE
FFFFFFFFFFFFFFFFFFFFFFFFFFFE
FFFFFFFFFFFFFFFFFFFFFFFFFFFE
FFFFFFFFFFFFFFFFFFFFFFFFFFFE
FFFC000000000000000000007FFE
FFFC000000000000000000007FFE
FFFC000000000000000000007FFE
FFFC000000000000000000007FFE
FFFC000000000000000000007FFE
FFFC000000000000000000007FFE
FFFC000000000000000000007FFE
FFFC000000000000000000007FFE
FFFC000000000000000000007FFE
FFFC000000000000000000007FFE
FFFC000000000000000000007FFE
FFFC000000000000000000007FFE
FFFC000000000000000000007FFE
FFFC000000000000000000007FFE
FFFC000000000000000000007FFE
FFFC000000000000000000007FFE
FFFC000000000000000000007FFE
FFFC000000000000000000007FFE
ENDCHAR
STARTCHAR 0042
ENCODING 66
SWIDTH 1805 0
DWIDTH 130 0
BBX 111 65 1 0
BITMAP
FFFFFFFFFFFFFFFFFFFFFFFFFFFE
FFFFFFFFFFFFFFFFFFFFFFFFFFFE
FFFFFFFFFFFFFFFFFFFFFFFFFFFE
FFFFFFFFFFFFFFFFFFFFFFFFFFFE
FFFFFFFFFFFFFFFFFFFFFFFFFFFC
FFFFFFFFFFFFFFFFFFFFFFFFFFFC
FFFFFFFFFFFFFFFFFFFFFFFFFFFC
FFFFFFFFFFFFFFFFFFFFFFFFFFFC
FFFFFFFFFFFFFFFFFFFFFFFFFFFC
FFFFFFFFFFFFFFFFFFFFFFFFFFFC
FFFFFFFFFFFFFFFFFFFFFFFFFFFC
FFFFFFFFFFFFFFFFFFFFFFFFFFF8
FFFFFFFFFFFFFFFFFFFFFFFFFFF8
FFFFFFFFFFFFFFFFFFFFFFFFFFF8
FFFC0000000000000000003FFFF8
FFFC0000000000000000003FFFF0
FFFC0000000000000000007FFFF0
FFFC0000000000000000007FFFF0
FFFC000000000000000000FFFFE0
FFFC000000000000000000FFFFE0
FFFC000000000000000001FFFFC0
FFFC000000000000000003FFFFC0
FFFC00000000000000000FFFFF80
FFFC00000000000000001FFFFF80
FFFC00000000000000007FFFFF00
FFFC0000000000000001FFFFFE00
FFFC000000000000000FFFFFFE00
FFFC00000000000001FFFFFFFC00
FFFC01FFFFFFFFFFFFFFFFFFF800
FFFC01FFFFFFFFFFFFFFFFFFF000
FFFC01FFFFFFFFFFFFFFFFFFE000
FFFC01FFFFFFFFFFFFFFFFFFC000
FFFC01FFFFFFFFFFFFFFFFFF0000
FFFC01FFFFFFFFFFFFFFFFFFC000
FFFC01FFFFFFFFFFFFFFFFFFE000
FFFC01FFFFFFFFFFFFFFFFFFF000
FFFC01FFFFFFFFFFFFFFFFFFF800
FFFC01FFFFFFFFFFFFFFFFFFFC00
FFFC01FFFFFFFFFFFFFFFFFFFE00
FFFC01FFFFFFFFFFFFFF0FFFFF00
FFFC000000000000000007FFFF00
FFFC000000000000000003FFFF80
FFFC000000000000000001FFFF80
FFFC000000000000000001FFFFC0
FFFC000000000000000000FFFFC0
FFFC000000000000000000FFFFE0
FFFC0000000000000000007FFFE0
FFFC0000000000000000007FFFF0
FFFC0000000000000000003FFFF0
FFFC0000000000000000003FFFF0
FFFC0000000000000000003FFFF8
FFFFFFFFFFFFFFFFFFFFFFFFFFF8
FFFFFFFFFFFFFFFFFFFFFFFFFFF8
FFFFFFFFFFFFFFFFFFFFFFFFFFF8
FFFFFFFFFFFFFFFFFFFFFFFFFFFC
FFFFFFFFFFFFFFFFFFFFFFFFFFFC
FFFFFFFFFFFFFFFFFFFFFFFFFFFC
FFFFFFFFFFFFFFFFFFFFFFFFFFFC
FFFFFFFFFFFFFFFFFFFFFFFFFFFC
FFFFFFFFFFFFFFFFFFFFFFFFFFFC
FFFFFFFFFFFFFFFFFFFFFFFFFFFC
FFFFFFFFFFFFFFFFFFFFFFFFFFFC
FFFFFFFFFFFFFFFFFFFFFFFFFFFE
FFFFFFFFFFFFFFFFFFFFFFFFFFFE
FFFFFFFFFFFFFFFFFFFFFFFFFFFE
ENDCHAR
STARTCHAR 0043
ENCODING 67
SWIDTH 1805 0
DWIDTH 130 0
BBX 111 65 1 0
BITMAP
0000000000FFFFFFFFFFFFFFFFFE
000000000FFFFFFFFFFFFFFFFFFE
000000007FFFFFFFFFFFFFFFFFFE
00000001FFFFFFFFFFFFFFFFFFFE
00000007FFFFFFFFFFFFFFFFFFFE
0000001FFFFFFFFFFFFFFFFFFFFE
0000003FFFFFFFFFFFFFFFFFFFFE
000000FFFFFFFFFFFFFFFFFFFFFE
000001FFFFFFFFFFFFFFFFFFFFFE
000003FFFFFFFFFFFFFFFFFFFFFE
000007FFFFFFFFFFFFFFFFFFFFFE
00000FFFFFFFFFFFFFFFFFFFFFFE
00001FFFFFFFFFFFFFFFFFFFFFFE
00003FFFFFFFFFFFFFFFFFFFFFFE
00007FFFFFFFF000000000000000
0000FFFFFFFC0000000000000000
0001FFFFFFE00000000000000000
0003FFFFFF000000000000000000
0007FFFFFC000000000000000000
0007FFFFF0000000000000000000
000FFFFFE0000000000000000000
001FFFFF80000000000000000000
001FFFFF00000000000000000000
003FFFFE00000000000000000000
007FFFFC00000000000000000000
007FFFF800000000000000000000
00FFFFF000000000000000000000
00FFFFE000000000000000000000
01FFFFC000000000000000000000
01FFFF8000000000000000000000
03FFFF8000000000000000000000
03FFFF0000000000000000000000
07FFFE0000000000000000000000
07FFFE0000000000000000000000
07FFFC0000000000000000000000
0FFFFC0000000000000000000000
0FFFF80000000000000000000000
0FFFF80000000000000000000000
1FFFF80000000000000000000000
1FFFF00000000000000000000000
1FFFF00000000000000000000000
1FFFF00000000000000000000000
3FFFE00000000000000000000000
3FFFE00000000000000000000000
3FFFE00000000000000000000000
3FFFE00000000000000000000000
3FFFE00000000000000000000000
7FFFE00000000000000000000000
7FFFE00000000000000000000000
7FFFC00000000000000000000000
7FFFC00000000000000000000000
7FFFFFFFFFFFFFFFFFFFFFFFFFFE
7FFFFFFFFFFFFFFFFFFFFFFFFFFE
7FFFFFFFFFFFFFFFFFFFFFFFFFFE
FFFFFFFFFFFFFFFFFFFFFFFFFFFE
FFFFFFFFFFFFFFFFFFFFFFFFFFFE
FFFFFFFFFFFFFFFFFFFFFFFFFFFE
FFFFFFFFFFFFFFFFFFFFFFFFFFFE
FFFFFFFFFFFFFFFFFFFFFFFFFFFE
FFFFFFFFFFFFFFFFFFFFFFFFFFFE
FFFFFFFFFFFFFFFFFFFFFFFFFFFE
FFFFFFFFFFFFFFFFFFFFFFFFFFFE
FFFFFFFFFFFFFFFFFFFFFFFFFFFE
FFFFFFFFFFFFFFFFFFFFFFFFFFFE
FFFFFFFFFFFFFFFFFFFFFFFFFFFE
ENDCHAR
STARTCHAR 0044
ENCODING 68
SWIDTH 1805 0
DWIDTH 130 0
BBX 111 65 1 0
BITMAP
FFFFFFFFFFFFFFFFFFFFFFFFFFFE
FFFFFFFFFFFFFFFFFFFFFFFFFFFE
FFFFFFFFFFFFFFFFFFFFFFFFFFFE
FFFFFFFFFFFFFFFFFFFFFFFFFFFE
FFFFFFFFFFFFFFFFFFFFFFFFFFFE
FFFFFFFFFFFFFFFFFFFFFFFFFFFC
FFFFFFFFFFFFFFFFFFFFFFFFFFFC
FFFFFFFFFFFFFFFFFFFFFFFFFFFC
FFFFFFFFFFFFFFFFFFFFFFFFFFFC
FFFFFFFFFFFFFFFFFFFFFFFFFFFC
FFFFFFFFFFFFFFFFFFFFFFFFFFFC
FFFFFFFFFFFFFFFFFFFFFFFFFFFC
FFFFFFFFFFFFFFFFFFFFFFFFFFFC
FFFFFFFFFFFFFFFFFFFFFFFFFFFC
FFFC0000000000000000000FFFFC
FFFC0000000000000000000FFFFC
FFFC0000000000000000000FFFF8
FFFC0000000000000000000FFFF8
FFFC0000000000000000000FFFF8
FFFC0000000000000000000FFFF8
FFFC0000000000000000000FFFF8
FFFC0000000000000000001FFFF0
FFFC0000000000000000001FFFF0
FFFC0000000000000000001FFFF0
FFFC0000000000000000001FFFF0
FFFC0000000000000000003FFFE0
FFFC0000000000000000003FFFE0
FFFC0000000000000000003FFFE0
FFFC0000000000000000007FFFE0
FFFC0000000000000000007FFFC0
FFFC000000000000000000FFFFC0
FFFC000000000000000000FFFF80
FFFC000000000000000001FFFF80
FFFC000000000000000001FFFF80
FFFC000000000000000003FFFF00
FFFC000000000000000007FFFF00
FFFC00000000000000000FFFFE00
FFFC00000000000000000FFFFE00
FFFC00000000000000001FFFFC00
FFFC00000000000000003FFFFC00
FFFC00000000000000007FFFF800
FFFC0000000000000000FFFFF800
FFFC0000000000000001FFFFF000
FFFC0000000000000007FFFFE000
FFFC000000000000000FFFFFE000
FFFC000000000000003FFFFFC000
FFFC000000000000007FFFFF8000
FFFC00000000000003FFFFFF8000
FFFC0000000000000FFFFFFF0000
FFFC000000000000FFFFFFFE0000
FFFC00000000001FFFFFFFFC0000
FFFFFFFFFFFFFFFFFFFFFFF80000
FFFFFFFFFFFFFFFFFFFFFFF00000
FFFFFFFFFFFFFFFFFFFFFFE00000
FFFFFFFFFFFFFFFFFFFFFFC00000
FFFFFFFFFFFFFFFFFFFFFF800000
FFFFFFFFFFFFFFFFFFFFFF000000
FFFFFFFFFFFFFFFFFFFFFC000000
FFFFFFFFFFFFFFFFFFFFF8000000
FFFFFFFFFFFFFFFFFFFFE0000000
FFFFFFFFFFFFFFFFFFFFC0000000
FFFFFFFFFFFFFFFFFFFF00000000
FFFFFFFFFFFFFFFFFFF800000000
FFFFFFFFFFFFFFFFFFE000000000
FFFFFFFFFFFFFFFFFC0000000000
ENDCHAR
STARTCHAR 0045
ENCODING 69
SWIDTH 1805 0
DWIDTH 130 0
BBX 111 65 1 0
BITMAP
00000003FFFFFFFFFFFFFFFFFFFE
0000001FFFFFFFFFFFFFFFFFFFFE
000000FFFFFFFFFFFFFFFFFFFFFE
000003FFFFFFFFFFFFFFFFFFFFFE
00000FFFFFFFFFFFFFFFFFFFFFFE
00003FFFFFFFFFFFFFFFFFFFFFFE
00007FFFFFFFFFFFFFFFFFFFFFFE
0000FFFFFFFFFFFFFFFFFFFFFFFE
0003FFFFFFFFFFFFFFFFFFFFFFFE
0007FFFFFFFFFFFFFFFFFFFFFFFE
000FFFFFFFFFFFFFFFFFFFFFFFFE
001FFFFFFFFFFFFFFFFFFFFFFFFE
003FFFFFFFFFFFFFFFFFFFFFFFFE
007FFFFFFFFFFFFFFFFFFFFFFFFE
007FFFFFFF000000000000000000
00FFFFFFC0000000000000000000
01FFFFFE00000000000000000000
03FFFFF000000000000000000000
03FFFFC000000000000000000000
07FFFF0000000000000000000000
07FFFE0000000000000000000000
0FFFFC0000000000000000000000
0FFFF80000000000000000000000
1FFFF00000000000000000000000
1FFFF00000000000000000000000
3FFFE00000000000000000000000
3FFFE00000000000000000000000
3FFFE00000000000000000000000
7FFFE000FFFFFFFFFFFFFFFFFFFE
7FFFC000FFFFFFFFFFFFFFFFFFFE
7FFFC000FFFFFFFFFFFFFFFFFFFE
7FFFC000FFFFFFFFFFFFFFFFFFFE
7FFFC000FFFFFFFFFFFFFFFFFFFE
FFFFC000FFFFFFFFFFFFFFFFFFFE
FFFFC000FFFFFFFFFFFFFFFFFFFE
FFFFC000FFFFFFFFFFFFFFFFFFFE
FFFFC000FFFFFFFFFFFFFFFFFFFE
FFFFC000FFFFFFFFFFFFFFFFFFFE
FFFFC000FFFFFFFFFFFFFFFFFFFE
FFFFC000FFFFFFFFFFFFFFFFFFFE
FFFFC00000000000000000000000
FFFFC00000000000000000000000
FFFFC00000000000000000000000
FFFFC00000000000000000000000
FFFFC00000000000000000000000
FFFFC00000000000000000000000
FFFFC00000000000000000000000
FFFFC00000000000000000000000
FFFFC00000000000000000000000
FFFFC00000000000000000000000
FFFFC00000000000000000000000
FFFFC00000000000000000000000
FFFFC00000000000000000000000
FFFFFFFFFFFFFFFFFFFFFFFFFFFE
FFFFFFFFFFFFFFFFFFFFFFFFFFFE
FFFFFFFFFFFFFFFFFFFFFFFFFFFE
FFFFFFFFFFFFFFFFFFFFFFFFFFFE
FFFFFFFFFFFFFFFFFFFFFFFFFFFE
FFFFFFFFFFFFFFFFFFFFFFFFFFFE
FFFFFFFFFFFFFFFFFFFFFFFFFFFE
FFFFFFFFFFFFFFFFFFFFFFFFFFFE
FFFFFFFFFFFFFFFFFFFFFFFFFFFE
FFFFFFFFFFFFFFFFFFFFFFFFFFFE
FFFFFFFFFFFFFFFFFFFFFFFFFFFE
FFFFFFFFFFFFFFFFFFFFFFFFFFFE
ENDCHAR
STARTCHAR 0046
ENCODING 70
SWIDTH 1805 0
DWIDTH 130 0
BBX 111 65 1 0
BITMAP
00000003FFFFFFFFFFFFFFFFFFFE
0000001FFFFFFFFFFFFFFFFFFFFE
000000FFFFFFFFFFFFFFFFFFFFFE
000003FFFFFFFFFFFFFFFFFFFFFE
00000FFFFFFFFFFFFFFFFFFFFFFE
00003FFFFFFFFFFFFFFFFFFFFFFE
00007FFFFFFFFFFFFFFFFFFFFFFE
0000FFFFFFFFFFFFFFFFFFFFFFFE
0003FFFFFFFFFFFFFFFFFFFFFFFE
0007FFFFFFFFFFFFFFFFFFFFFFFE
000FFFFFFFFFFFFFFFFFFFFFFFFE
001FFFFFFFFFFFFFFFFFFFFFFFFE
003FFFFFFFFFFFFFFFFFFFFFFFFE
007FFFFFFFFFFFFFFFFFFFFFFFFE
007FFFFFFF000000000000000000
00FFFFFFE0000000000000000000
01FFFFFE00000000000000000000
03FFFFF000000000000000000000
03FFFFC000000000000000000000
07FFFF8000000000000000000000
07FFFE0000000000000000000000
0FFFFC0000000000000000000000
0FFFF80000000000000000000000
1FFFF80000000000000000000000
1FFFF00000000000000000000000
3FFFF00000000000000000000000
3FFFE00000000000000000000000
3FFFE00000000000000000000000
7FFFE000FFFFFFFFFFFFFFFFFFFE
7FFFC000FFFFFFFFFFFFFFFFFFFE
7FFFC000FFFFFFFFFFFFFFFFFFFE
7FFFC000FFFFFFFFFFFFFFFFFFFE
7FFFC000FFFFFFFFFFFFFFFFFFFE
FFFFC000FFFFFFFFFFFFFFFFFFFE
FFFFC000FFFFFFFFFFFFFFFFFFFE
FFFFC000FFFFFFFFFFFFFFFFFFFE
FFFFC000FFFFFFFFFFFFFFFFFFFE
FFFFC000FFFFFFFFFFFFFFFFFFFE
FFFFC000FFFFFFFFFFFFFFFFFFFE
FFFFC000FFFFFFFFFFFFFFFFFFFE
FFFFC00000000000000000000000
FFFFC00000000000000000000000
FFFFC00000000000000000000000
FFFFC00000000000000000000000
FFFFC00000000000000000000000
FFFFC00000000000000000000000
FFFFC00000000000000000000000
FFFFC00000000000000000000000
FFFFC00000000000000000000000
FFFFC00000000000000000000000
FFFFC00000000000000000000000
FFFFC00000000000000000000000
FFFFC00000000000000000000000
FFFFC00000000000000000000000
FFFFC00000000000000000000000
FFFFC00000000000000000000000
FFFFC00000000000000000000000
FFFFC00000000000000000000000
FFFFC00000000000000000000000
FFFFC00000000000000000000000
FFFFC00000000000000000000000
FFFFC00000000000000000000000
FFFFC00000000000000000000000
FFFFC00000000000000000000000
FFFFC00000000000000000000000
ENDCHAR
STARTCHAR 0047
ENCODING 71
SWIDTH 1805 0
DWIDTH 130 0
BBX 111 65 1 0
BITMAP
0000000000FFFFFFFFFFFFFFFFFE
000000000FFFFFFFFFFFFFFFFFFE
000000007FFFFFFFFFFFFFFFFFFE
00000001FFFFFFFFFFFFFFFFFFFE
00000007FFFFFFFFFFFFFFFFFFFE
0000001FFFFFFFFFFFFFFFFFFFFE
0000003FFFFFFFFFFFFFFFFFFFFE
000000FFFFFFFFFFFFFFFFFFFFFE
000001FFFFFFFFFFFFFFFFFFFFFE
000003FFFFFFFFFFFFFFFFFFFFFE
000007FFFFFFFFFFFFFFFFFFFFFE
00000FFFFFFFFFFFFFFFFFFFFFFE
00001FFFFFFFFFFFFFFFFFFFFFFE
00003FFFFFFFFFFFFFFFFFFFFFFE
00007FFFFFFFF000000000000000
0000FFFFFFFE0000000000000000
0001FFFFFFE00000000000000000
0003FFFFFF000000000000000000
0007FFFFFC000000000000000000
0007FFFFF0000000000000000000
000FFFFFE0000000000000000000
001FFFFF80000000000000000000
001FFFFF00000000000000000000
003FFFFE00000000000000000000
007FFFFC00000000000000000000
007FFFF800000000000000000000
00FFFFF000000000000000000000
00FFFFE000000000000000000000
01FFFFC00000000000000007FFFE
01FFFF800000000000000007FFFE
03FFFF800000000000000007FFFE
03FFFF000000000000000007FFFE
07FFFE000000000000000007FFFE
07FFFE000000000000000007FFFE
07FFFC000000000000000007FFFE
0FFFFC000000000000000007FFFE
0FFFF8000000000000000007FFFE
0FFFF8000000000000000007FFFE
1FFFF8000000000000000007FFFE
1FFFF0000000000000000007FFFE
1FFFF0000000000000000007FFFE
1FFFF0000000000000000007FFFE
3FFFE0000000000000000007FFFE
3FFFE0000000000000000007FFFE
3FFFE0000000000000000007FFFE
3FFFE0000000000000000007FFFE
3FFFE0000000000000000007FFFE
7FFFE0000000000000000007FFFE
7FFFE0000000000000000007FFFE
7FFFC0000000000000000007FFFE
7FFFC0000000000000000007FFFE
7FFFFFFFFFFFFFFFFFFFFFFFFFFE
7FFFFFFFFFFFFFFFFFFFFFFFFFFE
7FFFFFFFFFFFFFFFFFFFFFFFFFFE
FFFFFFFFFFFFFFFFFFFFFFFFFFFE
FFFFFFFFFFFFFFFFFFFFFFFFFFFE
FFFFFFFFFFFFFFFFFFFFFFFFFFFE
FFFFFFFFFFFFFFFFFFFFFFFFFFFE
FFFFFFFFFFFFFFFFFFFFFFFFFFFE
FFFFFFFFFFFFFFFFFFFFFFFFFFFE
FFFFFFFFFFFFFFFFFFFFFFFFFFFE
FFFFFFFFFFFFFFFFFFFFFFFFFFFE
FFFFFFFFFFFFFFFFFFFFFFFFFFFE
FFFFFFFFFFFFFFFFFFFFFFFFFFFE
FFFFFFFFFFFFFFFFFFFFFFFFFFFE
ENDCHAR
STARTCHAR 0048
ENCODING 72
SWIDTH 1805 0
DWIDTH 130 0
BBX 111 74 1 0
BITMAP
0000000007FFFFFFFFC000000000
0000000007FFFFFFFFC000000000
0000000007FFFFFFFFC000000000
0000000007FFFFFFFFC000000000
0000000007FFFFFFFFC000000000
0000000007FFFFFFFFC000000000
0000000007FFFFFFFFC000000000
0000000000000000000000000000
0000000000000000000000000000
FFFC00000000000000000007FFFE
FFFC00000000000000000007FFFE
FFFC00000000000000000007FFFE
FFFC00000000000000000007FFFE
FFFC00000000000000000007FFFE
FFFC00000000000000000007FFFE
FFFC00000000000000000007FFFE
FFFC00000000000000000007FFFE
FFFC00000000000000000007FFFE
FFFC00000000000000000007FFFE
FFFC00000000000000000007FFFE
FFFC00000000000000000007FFFE
FFFC00000000000000000007FFFE
FFFC00000000000000000007FFFE
FFFC00000000000000000007FFFE
FFFC00000000000000000007FFFE
FFFC00000000000000000007FFFE
FFFC00000000000000000007FFFE
FFFC00000000000000000007FFFE
FFFC00000000000000000007FFFE
FFFC00000000000000000007FFFE
FFFC00000000000000000007FFFE
FFFC00000000000000000007FFFE
FFFC00000000000000000007FFFE
FFFC00000000000000000007FFFE
FFFC00000000000000000007FFFE
FFFC00000000000000000007FFFE
FFFC00000000000000000007FFFE
FFFC01FFFFFFFFFFFFFFFFFFFFFE
FFFC01FFFFFFFFFFFFFFFFFFFFFE
FFFC01FFFFFFFFFFFFFFFFFFFFFE
FFFC01FFFFFFFFFFFFFFFFFFFFFE
FFFC01FFFFFFFFFFFFFFFFFFFFFE
FFFC01FFFFFFFFFFFFFFFFFFFFFE
FFFC01FFFFFFFFFFFFFFFFFFFFFE
FFFC01FFFFFFFFFFFFFFFFFFFFFE
FFFC01FFFFFFFFFFFFFFFFFFFFFE
FFFC01FFFFFFFFFFFFFFFFFFFFFE
FFFC01FFFFFFFFFFFFFFFFFFFFFE
FFFC01FFFFFFFFFFFFFFFFFFFFFE
FFFC00000000000000000007FFFE
FFFC00000000000000000007FFFE
FFFC00000000000000000007FFFE
FFFC00000000000000000007FFFE
FFFC00000000000000000007FFFE
FFFC00000000000000000007FFFE
FFFC00000000000000000007FFFE
FFFC00000000000000000007FFFE
FFFC00000000000000000007FFFE
FFFC00000000000000000007FFFE
FFFC00000000000000000007FFFE
FFFC00000000000000000007FFFE
FFFC00000000000000000007FFFE
FFFC00000000000000000007FFFE
FFFC00000000000000000007FFFE
FFFC00000000000000000007FFFE
FFFC00000000000000000007FFFE
FFFC00000000000000000007FFFE
FFFC00000000000000000007FFFE
FFFC00000000000000000007FFFE
FFFC00000000000000000007FFFE
FFFC00000000000000000007FFFE
FFFC00000000000000000007FFFE
FFFC00000000000000000007FFFE
FFFC00000000000000000007FFFE
ENDCHAR
STARTCHAR 0049
ENCODING 73
SWIDTH 458 0
DWIDTH 33 0
BBX 14 65 1 0
BITMAP
FFFC
FFFC
FFFC
FFFC
FFFC
FFFC
FFFC
FFFC
FFFC
FFFC
FFFC
FFFC
FFFC
FFFC
FFFC
FFFC
FFFC
FFFC
FFFC
FFFC
FFFC
FFFC
FFFC
FFFC
FFFC
FFFC
FFFC
FFFC
FFFC
FFFC
FFFC
FFFC
FFFC
FFFC
FFFC
FFFC
FFFC
FFFC
FFFC
FFFC
FFFC
FFFC
FFFC
FFFC
FFFC
FFFC
FFFC
FFFC
FFFC
FFFC
FFFC
FFFC
FFFC
FFFC
FFFC
FFFC
FFFC
FFFC
FFFC
FFFC
FFFC
FFFC
FFFC
FFFC
FFFC
ENDCHAR
STARTCHAR 004A
ENCODING 74
SWIDTH 1722 0
DWIDTH 124 0
BBX 106 74 5 0
BITMAP
00000000FFFFFFFFF80000000000
00000000FFFFFFFFF80000000000
00000000FFFFFFFFF80000000000
00000000FFFFFFFFF80000000000
00000000FFFFFFFFF80000000000
00000000FFFFFFFFF80000000000
00000000FFFFFFFFF80000000000
0000000000000000000000000000
0000000000000000000000000000
00000000000000000000000FFFC0
00000000000000000000000FFFC0
00000000000000000000000FFFC0
00000000000000000000000FFFC0
00000000000000000000000FFFC0
00000000000000000000000FFFC0
00000000000000000000000FFFC0
00000000000000000000000FFFC0
00000000000000000000000FFFC0
00000000000000000000000FFFC0
00000000000000000000000FFFC0
00000000000000000000000FFFC0
00000000000000000000000FFFC0
00000000000000000000000FFFC0
00000000000000000000000FFFC0
00000000000000000000000FFFC0
00000000000000000000000FFFC0
00000000000000000000000FFFC0
00000000000000000000000FFFC0
00000000000000000000000FFFC0
00000000000000000000000FFFC0
00000000000000000000000FFFC0
00000000000000000000000FFFC0
00000000000000000000000FFFC0
00000000000000000000000FFFC0
00000000000000000000000FFFC0
00000000000000000000000FFFC0
00000000000000000000000FFFC0
00000000000000000000000FFFC0
00000000000000000000000FFFC0
00000000000000000000000FFFC0
00000000000000000000000FFFC0
00000000000000000000000FFFC0
00000000000000000000000FFFC0
00000000000000000000000FFFC0
00000000000000000000000FFFC0
00000000000000000000000FFFC0
FFFFC000000000000000000FFFC0
FFFFE000000000000000000FFFC0
7FFFF000000000000000000FFFC0
7FFFF800000000000000000FFFC0
3FFFFC00000000000000000FFFC0
3FFFFE00000000000000000FFFC0
1FFFFF00000000000000000FFFC0
0FFFFFC0000000000000000FFFC0
0FFFFFE0000000000000000FFFC0
07FFFFFC000000000000000FFFC0
07FFFFFF000000000000000FFFC0
03FFFFFFE00000000000000FFFC0
01FFFFFFFE0000000000000FFFC0
00FFFFFFFFF800000000000FFFC0
007FFFFFFFFFFFFFFFFFFFFFFFC0
003FFFFFFFFFFFFFFFFFFFFFFFC0
001FFFFFFFFFFFFFFFFFFFFFFFC0
000FFFFFFFFFFFFFFFFFFFFFFFC0
0007FFFFFFFFFFFFFFFFFFFFFFC0
0003FFFFFFFFFFFFFFFFFFFFFFC0
0000FFFFFFFFFFFFFFFFFFFFFFC0
00007FFFFFFFFFFFFFFFFFFFFFC0
00001FFFFFFFFFFFFFFFFFFFFFC0
000007FFFFFFFFFFFFFFFFFFFFC0
000001FFFFFFFFFFFFFFFFFFFFC0
0000003FFFFFFFFFFFFFFFFFFFC0
00000003FFFFFFFFFFFFFFFFFFC0
000000001FFFFFFFFFFFFFFFFFC0
ENDCHAR
STARTCHAR 004B
ENCODING 75
SWIDTH 1805 0
DWIDTH 130 0
BBX 111 74 1 0
BITMAP
0000000007FFFFFFFFC000000000
0000000007FFFFFFFFC000000000
0000000007FFFFFFFFC000000000
0000000007FFFFFFFFC000000000
0000000007FFFFFFFFC000000000
0000000007FFFFFFFFC000000000
0000000007FFFFFFFFC000000000
0000000000000000000000000000
0000000000000000000000000000
FFFC00000000000000000007FFFE
FFFC00000000000000000007FFFE
FFFC00000000000000000007FFFE
FFFC00000000000000000007FFFE
FFFC00000000000000000007FFFE
FFFC00000000000000000007FFFE
FFFC00000000000000000007FFFE
FFFC00000000000000000007FFFC
FFFC00000000000000000007FFFC
FFFC00000000000000000007FFFC
FFFC00000000000000000007FFFC
FFFC00000000000000000007FFFC
FFFC0000000000000000000FFFF8
FFFC0000000000000000000FFFF8
FFFC0000000000000000000FFFF8
FFFC0000000000000000001FFFF8
FFFC0000000000000000001FFFF0
FFFC0000000000000000003FFFF0
FFFC0000000000000000007FFFE0
FFFC000000000000000000FFFFE0
FFFC000000000000000001FFFFC0
FFFC000000000000000007FFFFC0
FFFC00000000000000000FFFFF80
FFFC00000000000000003FFFFF80
FFFC0000000000000000FFFFFF00
FFFC0000000000000007FFFFFE00
FFFC000000000000003FFFFFFE00
FFFC00000000000007FFFFFFFC00
FFFC01FFFFFFFFFFFFFFFFFFF800
FFFC01FFFFFFFFFFFFFFFFFFF000
FFFC01FFFFFFFFFFFFFFFFFFE000
FFFC01FFFFFFFFFFFFFFFFFFC000
FFFC01FFFFFFFFFFFFFFFFFF0000
FFFC01FFFFFFFFFFFFFFFFFFC000
FFFC01FFFFFFFFFFFFFFFFFFE000
FFFC01FFFFFFFFFFFFFFFFFFF000
FFFC01FFFFFFFFFFFFFFFFFFF800
FFFC01FFFFFFFFFFFFFFFFFFFC00
FFFC01FFFFFFFFFFFFFFFFFFFE00
FFFC01FFFFFFFFFFFFFF87FFFF00
FFFC000000000000000003FFFF00
FFFC000000000000000001FFFF80
FFFC000000000000000001FFFFC0
FFFC000000000000000000FFFFC0
FFFC0000000000000000007FFFE0
FFFC0000000000000000007FFFE0
FFFC0000000000000000003FFFF0
FFFC0000000000000000001FFFF0
FFFC0000000000000000001FFFF0
FFFC0000000000000000000FFFF8
FFFC0000000000000000000FFFF8
FFFC0000000000000000000FFFF8
FFFC00000000000000000007FFF8
FFFC00000000000000000007FFFC
FFFC00000000000000000007FFFC
FFFC00000000000000000007FFFC
FFFC00000000000000000007FFFC
FFFC00000000000000000007FFFC
FFFC00000000000000000007FFFE
FFFC00000000000000000007FFFE
FFFC00000000000000000007FFFE
FFFC00000000000000000007FFFE
FFFC00000000000000000007FFFE
FFFC00000000000000000007FFFE
FFFC00000000000000000007FFFE
ENDCHAR
STARTCHAR 004C
ENCODING 76
SWIDTH 1736 0
DWIDTH 125 0
BBX 106 74 1 0
BITMAP
0000000007FFFFFFFFC000000000
0000000007FFFFFFFFC000000000
0000000007FFFFFFFFC000000000
0000000007FFFFFFFFC000000000
0000000007FFFFFFFFC000000000
0000000007FFFFFFFFC000000000
0000000007FFFFFFFFC000000000
0000000000000000000000000000
0000000000000000000000000000
FFFC000000000000000000000000
FFFC000000000000000000000000
FFFC000000000000000000000000
FFFC000000000000000000000000
FFFC000000000000000000000000
FFFC000000000000000000000000
FFFC000000000000000000000000
FFFC000000000000000000000000
FFFC000000000000000000000000
FFFC000000000000000000000000
FFFC000000000000000000000000
FFFC000000000000000000000000
FFFC000000000000000000000000
FFFC000000000000000000000000
FFFC000000000000000000000000
FFFC000000000000000000000000
FFFC000000000000000000000000
FFFC000000000000000000000000
FFFC000000000000000000000000
FFFC000000000000000000000000
FFFC000000000000000000000000
FFFC000000000000000000000000
FFFC000000000000000000000000
FFFC000000000000000000000000
FFFC000000000000000000000000
FFFC000000000000000000000000
FFFC000000000000000000000000
FFFC000000000000000000000000
FFFC000000000000000000000000
FFFC000000000000000000000000
FFFC000000000000000000000000
FFFC000000000000000000000000
FFFC000000000000000000000000
FFFC000000000000000000000000
FFFC000000000000000000000000
FFFC000000000000000000000000
FFFC000000000000000000000000
FFFC000000000000000000FFFFC0
FFFC000000000000000001FFFFC0
FFFC000000000000000003FFFF80
FFFC000000000000000007FFFF80
FFFC00000000000000000FFFFF00
FFFC00000000000000001FFFFF00
FFFC00000000000000003FFFFE00
FFFC0000000000000000FFFFFC00
FFFC0000000000000001FFFFFC00
FFFC000000000000000FFFFFF800
FFFC000000000000003FFFFFF800
FFFC00000000000001FFFFFFF000
FFFC0000000000001FFFFFFFE000
FFFC000000000007FFFFFFFFC000
FFFFFFFFFFFFFFFFFFFFFFFF8000
FFFFFFFFFFFFFFFFFFFFFFFF0000
FFFFFFFFFFFFFFFFFFFFFFFE0000
FFFFFFFFFFFFFFFFFFFFFFFC0000
FFFFFFFFFFFFFFFFFFFFFFF80000
FFFFFFFFFFFFFFFFFFFFFFF00000
FFFFFFFFFFFFFFFFFFFFFFC00000
FFFFFFFFFFFFFFFFFFFFFF000000
FFFFFFFFFFFFFFFFFFFFFE000000
FFFFFFFFFFFFFFFFFFFFF8000000
FFFFFFFFFFFFFFFFFFFFC0000000
FFFFFFFFFFFFFFFFFFFF00000000
FFFFFFFFFFFFFFFFFFF000000000
FFFFFFFFFFFFFFFFFE0000000000
ENDCHAR
STARTCHAR 004D
ENCODING 77
SWIDTH 1805 0
DWIDTH 130 0
BBX 111 65 1 0
BITMAP
FFFFFFFFFFFFFFFFFF8000000000
FFFFFFFFFFFFFFFFFFFE00000000
FFFFFFFFFFFFFFFFFFFFE0000000
FFFFFFFFFFFFFFFFFFFFFC000000
FFFFFFFFFFFFFFFFFFFFFF800000
FFFFFFFFFFFFFFFFFFFFFFE00000
FFFFFFFFFFFFFFFFFFFFFFF80000
FFFFFFFFFFFFFFFFFFFFFFFC0000
FFFFFFFFFFFFFFFFFFFFFFFF0000
FFFFFFFFFFFFFFFFFFFFFFFF8000
FFFFFFFFFFFFFFFFFFFFFFFFC000
FFFFFFFFFFFFFFFFFFFFFFFFE000
FFFFFFFFFFFFFFFFFFFFFFFFF000
FFFFFFFFFFFFFFFFFFFFFFFFF800
FFFC000000000003FFFFFFFFFC00
FFFC00000000000007FFFFFFFE00
FFFC000000000000003FFFFFFF00
FFFC0000000000000007FFFFFF00
FFFC0000000000000000FFFFFF80
FFFC00000000000000003FFFFFC0
FFFC00000000000000000FFFFFC0
FFFC000000000000000007FFFFE0
FFFC000000000000000001FFFFE0
FFFC000000000000000000FFFFF0
FFFC00000000FFFC0000007FFFF0
FFFC00000000FFFC0000003FFFF0
FFFC00000000FFFC0000001FFFF8
FFFC00000000FFFC0000001FFFF8
FFFC00000000FFFC0000000FFFF8
FFFC00000000FFFC0000000FFFFC
FFFC00000000FFFC00000007FFFC
FFFC00000000FFFC00000007FFFC
FFFC00000000FFFC00000003FFFC
FFFC00000000FFFC00000003FFFC
FFFC00000000FFFC00000001FFFE
FFFC00000000FFFC00000001FFFE
FFFC00000000FFFC00000001FFFE
FFFC00000000FFFC00000000FFFE
FFFC00000000FFFC00000000FFFE
FFFC00000000FFFC00000000FFFE
FFFC00000000FFFC00000000FFFE
FFFC00000000FFFC00000000FFFE
FFFC00000000FFFC00000000FFFE
FFFC00000000FFFC000000007FFE
FFFC00000000FFFC000000007FFE
FFFC00000000FFFC000000007FFE
FFFC00000000FFFC000000007FFE
FFFC00000000FFFC000000007FFE
FFFC00000000FFFC000000007FFE
FFFC00000000FFFC000000007FFE
FFFC00000000FFFC000000007FFE
FFFC00000000FFFC000000007FFE
FFFC00000000FFFC000000007FFE
FFFC00000000FFFC000000007FFE
FFFC00000000FFFC000000007FFE
FFFC00000000FFFC000000007FFE
FFFC00000000FFFC000000007FFE
FFFC00000000FFFC000000007FFE
FFFC00000000FFFC000000007FFE
FFFC00000000FFFC000000007FFE
FFFC00000000FFFC000000007FFE
FFFC00000000FFFC000000007FFE
FFFC00000000FFFC000000007FFE
FFFC00000000FFFC000000007FFE
FFFC00000000FFFC000000007FFE
ENDCHAR
STARTCHAR 004E
ENCODING 78
SWIDTH 1736 0
DWIDTH 125 0
BBX 106 65 1 0
BITMAP
FFFFFFFFFC0000000000000FFFC0
FFFFFFFFFFE000000000000FFFC0
FFFFFFFFFFFC00000000000FFFC0
FFFFFFFFFFFF80000000000FFFC0
FFFFFFFFFFFFE0000000000FFFC0
FFFFFFFFFFFFF8000000000FFFC0
FFFFFFFFFFFFFE000000000FFFC0
FFFFFFFFFFFFFF800000000FFFC0
FFFFFFFFFFFFFFC00000000FFFC0
FFFFFFFFFFFFFFF00000000FFFC0
FFFFFFFFFFFFFFF80000000FFFC0
FFFFFFFFFFFFFFFC0000000FFFC0
FFFFFFFFFFFFFFFF0000000FFFC0
FFFFFFFFFFFFFFFF8000000FFFC0
FFFC000FFFFFFFFFC000000FFFC0
FFFC00003FFFFFFFE000000FFFC0
FFFC000003FFFFFFF800000FFFC0
FFFC0000007FFFFFFC00000FFFC0
FFFC0000000FFFFFFE00000FFFC0
FFFC00000003FFFFFF00000FFFC0
FFFC00000000FFFFFF80000FFFC0
FFFC000000003FFFFFC0000FFFC0
FFFC000000000FFFFFE0000FFFC0
FFFC0000000007FFFFF0000FFFC0
FFFC0000000001FFFFF8000FFFC0
FFFC00000000007FFFFC000FFFC0
FFFC00000000003FFFFE000FFFC0
FFFC00000000001FFFFF000FFFC0
FFFC000000000007FFFF000FFFC0
FFFC000000000003FFFF800FFFC0
FFFC000000000001FFFFC00FFFC0
FFFC000000000000FFFFE00FFFC0
FFFC0000000000007FFFF00FFFC0
FFFC0000000000003FFFF80FFFC0
FFFC0000000000001FFFFC0FFFC0
FFFC0000000000000FFFFE0FFFC0
FFFC00000000000007FFFE0FFFC0
FFFC00000000000003FFFF0FFFC0
FFFC00000000000001FFFF8FFFC0
FFFC00000000000000FFFFCFFFC0
FFFC00000000000000FFFFEFFFC0
FFFC000000000000007FFFEFFFC0
FFFC000000000000003FFFFFFFC0
FFFC000000000000001FFFFFFFC0
FFFC000000000000000FFFFFFFC0
FFFC000000000000000FFFFFFFC0
FFFC0000000000000007FFFFFFC0
FFFC0000000000000003FFFFFFC0
FFFC0000000000000003FFFFFFC0
FFFC0000000000000001FFFFFFC0
FFFC0000000000000001FFFFFFC0
FFFC0000000000000000FFFFFFC0
FFFC00000000000000007FFFFFC0
FFFC00000000000000007FFFFFC0
FFFC00000000000000003FFFFFC0
FFFC00000000000000003FFFFFC0
FFFC00000000000000001FFFFFC0
FFFC00000000000000001FFFFFC0
FFFC00000000000000000FFFFFC0
FFFC000000000000000007FFFFC0
FFFC000000000000000007FFFFC0
FFFC000000000000000003FFFFC0
FFFC000000000000000003FFFFC0
FFFC000000000000000001FFFFC0
FFFC000000000000000001FFFFC0
ENDCHAR
STARTCHAR 004F
ENCODING 79
SWIDTH 1805 0
DWIDTH 130 0
BBX 111 65 1 0
BITMAP
0000000000FFFFFFFFFFFFFFFFFE
000000000FFFFFFFFFFFFFFFFFFE
000000007FFFFFFFFFFFFFFFFFFE
00000001FFFFFFFFFFFFFFFFFFFE
00000007FFFFFFFFFFFFFFFFFFFE
0000001FFFFFFFFFFFFFFFFFFFFC
0000003FFFFFFFFFFFFFFFFFFFFC
000000FFFFFFFFFFFFFFFFFFFFFC
000001FFFFFFFFFFFFFFFFFFFFFC
000003FFFFFFFFFFFFFFFFFFFFFC
000007FFFFFFFFFFFFFFFFFFFFFC
00000FFFFFFFFFFFFFFFFFFFFFFC
00001FFFFFFFFFFFFFFFFFFFFFFC
00003FFFFFFFFFFFFFFFFFFFFFFC
00007FFFFFFFF0000000000FFFFC
0000FFFFFFFC00000000000FFFFC
0001FFFFFFE000000000000FFFF8
0003FFFFFF0000000000000FFFF8
0007FFFFFC0000000000000FFFF8
0007FFFFF00000000000000FFFF8
000FFFFFE00000000000000FFFF8
001FFFFF800000000000001FFFF0
001FFFFF000000000000001FFFF0
003FFFFE000000000000001FFFF0
007FFFFC000000000000001FFFF0
007FFFF8000000000000003FFFE0
00FFFFF0000000000000003FFFE0
00FFFFE0000000000000003FFFE0
01FFFFC0000000000000007FFFE0
01FFFF80000000000000007FFFC0
03FFFF8000000000000000FFFFC0
03FFFF0000000000000000FFFF80
07FFFE0000000000000001FFFF80
07FFFE0000000000000001FFFF80
07FFFC0000000000000003FFFF00
0FFFFC0000000000000007FFFF00
0FFFF8000000000000000FFFFE00
0FFFF8000000000000000FFFFE00
1FFFF8000000000000001FFFFC00
1FFFF0000000000000003FFFFC00
1FFFF0000000000000007FFFF800
1FFFF000000000000000FFFFF800
3FFFE000000000000001FFFFF000
3FFFE000000000000007FFFFE000
3FFFE00000000000000FFFFFE000
3FFFE00000000000003FFFFFC000
3FFFE00000000000007FFFFF8000
7FFFE0000000000003FFFFFF8000
7FFFE000000000000FFFFFFF0000
7FFFC00000000000FFFFFFFE0000
7FFFC0000000001FFFFFFFFC0000
7FFFFFFFFFFFFFFFFFFFFFF80000
7FFFFFFFFFFFFFFFFFFFFFF00000
7FFFFFFFFFFFFFFFFFFFFFE00000
FFFFFFFFFFFFFFFFFFFFFFC00000
FFFFFFFFFFFFFFFFFFFFFF800000
FFFFFFFFFFFFFFFFFFFFFF000000
FFFFFFFFFFFFFFFFFFFFFC000000
FFFFFFFFFFFFFFFFFFFFF8000000
FFFFFFFFFFFFFFFFFFFFE0000000
FFFFFFFFFFFFFFFFFFFFC0000000
FFFFFFFFFFFFFFFFFFFF00000000
FFFFFFFFFFFFFFFFFFF800000000
FFFFFFFFFFFFFFFFFFE000000000
FFFFFFFFFFFFFFFFFC0000000000
ENDCHAR
STARTCHAR 0050
ENCODING 80
SWIDTH 1805 0
DWIDTH 130 0
BBX 111 65 1 0
BITMAP
FFFFFFFFFFFFFFFFFFFFFFFFFFFE
FFFFFFFFFFFFFFFFFFFFFFFFFFFE
FFFFFFFFFFFFFFFFFFFFFFFFFFFE
FFFFFFFFFFFFFFFFFFFFFFFFFFFC
FFFFFFFFFFFFFFFFFFFFFFFFFFFC
FFFFFFFFFFFFFFFFFFFFFFFFFFFC
FFFFFFFFFFFFFFFFFFFFFFFFFFFC
FFFFFFFFFFFFFFFFFFFFFFFFFFFC
FFFFFFFFFFFFFFFFFFFFFFFFFFFC
FFFFFFFFFFFFFFFFFFFFFFFFFFFC
FFFFFFFFFFFFFFFFFFFFFFFFFFFC
FFFFFFFFFFFFFFFFFFFFFFFFFFF8
FFFFFFFFFFFFFFFFFFFFFFFFFFF8
FFFFFFFFFFFFFFFFFFFFFFFFFFF8
FFFC0000000000000000003FFFF8
FFFC0000000000000000003FFFF0
FFFC0000000000000000007FFFF0
FFFC0000000000000000007FFFF0
FFFC0000000000000000007FFFE0
FFFC000000000000000000FFFFE0
FFFC000000000000000000FFFFC0
FFFC000000000000000001FFFFC0
FFFC000000000000000003FFFF80
FFFC000000000000000003FFFF80
FFFC000000000000000007FFFF00
FFFC00000000000000000FFFFF00
FFFC00000000000000001FFFFE00
FFFC00000000000000003FFFFE00
FFFC00000000000000007FFFFC00
FFFC0000000000000000FFFFFC00
FFFC0000000000000003FFFFF800
FFFC000000000000000FFFFFF000
FFFC000000000000001FFFFFE000
FFFC00000000000000FFFFFFE000
FFFC0000000000000FFFFFFFC000
FFFC01FFFFFFFFFFFFFFFFFF8000
FFFC01FFFFFFFFFFFFFFFFFF0000
FFFC01FFFFFFFFFFFFFFFFFE0000
FFFC01FFFFFFFFFFFFFFFFFC0000
FFFC01FFFFFFFFFFFFFFFFF80000
FFFC01FFFFFFFFFFFFFFFFE00000
FFFC01FFFFFFFFFFFFFFFFC00000
FFFC01FFFFFFFFFFFFFFFF800000
FFFC01FFFFFFFFFFFFFFFE000000
FFFC01FFFFFFFFFFFFFFF8000000
FFFC01FFFFFFFFFFFFFFC0000000
FFFC01FFFFFFFFFFFFFE00000000
FFFC000000000000000000000000
FFFC000000000000000000000000
FFFC000000000000000000000000
FFFC000000000000000000000000
FFFC000000000000000000000000
FFFC000000000000000000000000
FFFC000000000000000000000000
FFFC000000000000000000000000
FFFC000000000000000000000000
FFFC000000000000000000000000
FFFC000000000000000000000000
FFFC000000000000000000000000
FFFC000000000000000000000000
FFFC000000000000000000000000
FFFC000000000000000000000000
FFFC000000000000000000000000
FFFC000000000000000000000000
FFFC000000000000000000000000
ENDCHAR
STARTCHAR 0051
ENCODING 81
SWIDTH 1805 0
DWIDTH 130 0
BBX 111 65 1 0
BITMAP
0000000000FFFFFFFFFFFFFFFFFE
000000000FFFFFFFFFFFFFFFFFFE
000000007FFFFFFFFFFFFFFFFFFE
00000001FFFFFFFFFFFFFFFFFFFE
00000007FFFFFFFFFFFFFFFFFFFE
0000001FFFFFFFFFFFFFFFFFFFFC
0000003FFFFFFFFFFFFFFFFFFFFC
000000FFFFFFFFFFFFFFFFFFFFFC
000001FFFFFFFFFFFFFFFFFFFFFC
000003FFFFFFFFFFFFFFFFFFFFFC
000007FFFFFFFFFFFFFFFFFFFFFC
00000FFFFFFFFFFFFFFFFFFFFFFC
00001FFFFFFFFFFFFFFFFFFFFFFC
00003FFFFFFFFFFFFFFFFFFFFFFC
00007FFFFFFFF0000000000FFFFC
0000FFFFFFFC00000000000FFFFC
0001FFFFFFE000000000000FFFF8
0003FFFFFF0000000000000FFFF8
0007FFFFFC0000000000000FFFF8
0007FFFFF00000000000000FFFF8
000FFFFFE00000000000000FFFF8
001FFFFF800000000000001FFFF8
001FFFFF000000000000001FFFF0
003FFFFE000000000000001FFFF0
007FFFFC000000000000001FFFF0
007FFFF8000000000000001FFFF0
00FFFFF0000000000000003FFFF0
00FFFFE0000000000000003FFFE0
01FFFFC0000000000000003FFFE0
01FFFF80000000000000007FFFE0
03FFFF80000000000000007FFFC0
03FFFF00000000000000007FFFC0
07FFFE0000000000000000FFFFC0
07FFFE0000000000000000FFFFC0
07FFFC0000000000000001FFFF80
0FFFFC0000000000000001FFFF80
0FFFF80000000000000003FFFF80
0FFFF80000000000000003FFFF00
1FFFF80000000000000007FFFF00
1FFFF0000000000000000FFFFE00
1FFFF00001FFFFFF00000FFFFE00
1FFFF000007FFFFF80001FFFFE00
3FFFE000001FFFFFE0003FFFFC00
3FFFE000000FFFFFF0007FFFFC00
3FFFE0000003FFFFFC00FFFFF800
3FFFE0000001FFFFFF03FFFFF800
3FFFE00000007FFFFF8FFFFFF000
7FFFE00000001FFFFFFFFFFFF000
7FFFE00000000FFFFFFFFFFFE000
7FFFC000000003FFFFFFFFFFC000
7FFFC000000001FFFFFFFFFFC000
7FFFFFFFFFFFFFFFFFFFFFFF8000
7FFFFFFFFFFFFFFFFFFFFFFF0000
7FFFFFFFFFFFFFFFFFFFFFFE0000
FFFFFFFFFFFFFFFFFFFFFFFC0000
FFFFFFFFFFFFFFFFFFFFFFF80000
FFFFFFFFFFFFFFFFFFFFFFF00000
FFFFFFFFFFFFFFFFFFFFFFE00000
FFFFFFFFFFFFFFFFFFFFFFF00000
FFFFFFFFFFFFFFFFFFFFFFFC0000
FFFFFFFFFFFFFFFFFFFFFFFE0000
FFFFFFFFFFFFFFFFFFFFFFFF8000
FFFFFFFFFFFFFFFFFFFFFFFFE000
FFFFFFFFFFFFFFFFFFFFFFFFF000
FFFFFFFFFFFFFFFFFF83FFFFFC00
ENDCHAR
STARTCHAR 0052
ENCODING 82
SWIDTH 1805 0
DWIDTH 130 0
BBX 111 65 1 0
BITMAP
FFFFFFFFFFFFFFFFFFFFFFFFFFFE
FFFFFFFFFFFFFFFFFFFFFFFFFFFE
FFFFFFFFFFFFFFFFFFFFFFFFFFFE
FFFFFFFFFFFFFFFFFFFFFFFFFFFC
FFFFFFFFFFFFFFFFFFFFFFFFFFFC
FFFFFFFFFFFFFFFFFFFFFFFFFFFC
FFFFFFFFFFFFFFFFFFFFFFFFFFFC
FFFFFFFFFFFFFFFFFFFFFFFFFFFC
FFFFFFFFFFFFFFFFFFFFFFFFFFFC
FFFFFFFFFFFFFFFFFFFFFFFFFFFC
FFFFFFFFFFFFFFFFFFFFFFFFFFFC
FFFFFFFFFFFFFFFFFFFFFFFFFFF8
FFFFFFFFFFFFFFFFFFFFFFFFFFF8
FFFFFFFFFFFFFFFFFFFFFFFFFFF8
FFFC0000000000000000003FFFF8
FFFC0000000000000000003FFFF0
FFFC0000000000000000007FFFF0
FFFC0000000000000000007FFFF0
FFFC0000000000000000007FFFE0
FFFC000000000000000000FFFFE0
FFFC000000000000000000FFFFE0
FFFC000000000000000001FFFFC0
FFFC000000000000000003FFFFC0
FFFC000000000000000003FFFF80
FFFC000000000000000007FFFF80
FFFC00000000000000000FFFFF00
FFFC00000000000000001FFFFF00
FFFC00000000000000003FFFFE00
FFFC00000000000000007FFFFC00
FFFC0000000000000000FFFFFC00
FFFC0000000000000003FFFFF800
FFFC000000000000000FFFFFF000
FFFC000000000000001FFFFFF000
FFFC00000000000000FFFFFFE000
FFFC0000000000000FFFFFFFC000
FFFC01FFFFFFFFFFFFFFFFFF8000
FFFC01FFFFFFFFFFFFFFFFFF0000
FFFC01FFFFFFFFFFFFFFFFFE0000
FFFC01FFFFFFFFFFFFFFFFFC0000
FFFC01FFFFFFFFFFFFFFFFF80000
FFFC01FFFFFFFFFFFFFFFFE00000
FFFC01FFFFFFFFFFFFFFFFC00000
FFFC01FFFFFFFFFFFFFFFF000000
FFFC01FFFFFFFFFFFFFFFC000000
FFFC01FFFFFFFFFFFFFFE0000000
FFFC01FFFFFFFFFFFFFE00000000
FFFC01FFFFFFFFFFFFFF00000000
FFFC00000000003FFFFF80000000
FFFC00000000001FFFFFE0000000
FFFC00000000000FFFFFF0000000
FFFC000000000003FFFFF8000000
FFFC000000000001FFFFFC000000
FFFC000000000000FFFFFE000000
FFFC0000000000007FFFFF000000
FFFC0000000000003FFFFF800000
FFFC0000000000001FFFFFE00000
FFFC00000000000007FFFFF00000
FFFC00000000000003FFFFF80000
FFFC00000000000001FFFFFC0000
FFFC00000000000000FFFFFE0000
FFFC000000000000007FFFFF0000
FFFC000000000000003FFFFF8000
FFFC000000000000001FFFFFE000
FFFC0000000000000007FFFFF000
FFFC0000000000000003FFFFF800
ENDCHAR
STARTCHAR 0053
ENCODING 83
SWIDTH 1805 0
DWIDTH 130 0
BBX 111 65 1 0
BITMAP
00000003FFFFFFFFFFFFFFFFFFFE
0000001FFFFFFFFFFFFFFFFFFFFE
000000FFFFFFFFFFFFFFFFFFFFFE
000003FFFFFFFFFFFFFFFFFFFFFE
00000FFFFFFFFFFFFFFFFFFFFFFE
00003FFFFFFFFFFFFFFFFFFFFFFE
00007FFFFFFFFFFFFFFFFFFFFFFE
0000FFFFFFFFFFFFFFFFFFFFFFFE
0003FFFFFFFFFFFFFFFFFFFFFFFE
0007FFFFFFFFFFFFFFFFFFFFFFFE
000FFFFFFFFFFFFFFFFFFFFFFFFE
001FFFFFFFFFFFFFFFFFFFFFFFFE
003FFFFFFFFFFFFFFFFFFFFFFFFE
007FFFFFFFFFFFFFFFFFFFFFFFFE
007FFFFFFF800000000000000000
00FFFFFFF0000000000000000000
01FFFFFF00000000000000000000
03FFFFFC00000000000000000000
03FFFFF000000000000000000000
07FFFFC000000000000000000000
07FFFF8000000000000000000000
0FFFFF0000000000000000000000
0FFFFE0000000000000000000000
1FFFFC0000000000000000000000
1FFFFC0000000000000000000000
3FFFF80000000000000000000000
3FFFF80000000000000000000000
3FFFF00000000000000000000000
7FFFFFFFFFFFFFFFFFFFFFFFFFFE
7FFFFFFFFFFFFFFFFFFFFFFFFFFE
7FFFFFFFFFFFFFFFFFFFFFFFFFFE
7FFFFFFFFFFFFFFFFFFFFFFFFFFC
7FFFFFFFFFFFFFFFFFFFFFFFFFFC
FFFFFFFFFFFFFFFFFFFFFFFFFFFC
FFFFFFFFFFFFFFFFFFFFFFFFFFFC
FFFFFFFFFFFFFFFFFFFFFFFFFFFC
FFFFFFFFFFFFFFFFFFFFFFFFFFFC
FFFFFFFFFFFFFFFFFFFFFFFFFFFC
FFFFFFFFFFFFFFFFFFFFFFFFFFF8
FFFFFFFFFFFFFFFFFFFFFFFFFFF8
00000000000000000000003FFFF8
00000000000000000000003FFFF0
00000000000000000000007FFFF0
00000000000000000000007FFFF0
0000000000000000000000FFFFE0
0000000000000000000001FFFFE0
0000000000000000000003FFFFC0
0000000000000000000007FFFF80
000000000000000000001FFFFF80
000000000000000000007FFFFF00
00000000000000000001FFFFFE00
0000000000000000001FFFFFFC00
000000000000000003FFFFFFFC00
FFFFFFFFFFFFFFFFFFFFFFFFF800
FFFFFFFFFFFFFFFFFFFFFFFFF000
FFFFFFFFFFFFFFFFFFFFFFFFC000
FFFFFFFFFFFFFFFFFFFFFFFF8000
FFFFFFFFFFFFFFFFFFFFFFFF0000
FFFFFFFFFFFFFFFFFFFFFFFE0000
FFFFFFFFFFFFFFFFFFFFFFF80000
FFFFFFFFFFFFFFFFFFFFFFE00000
FFFFFFFFFFFFFFFFFFFFFF800000
FFFFFFFFFFFFFFFFFFFFFE000000
FFFFFFFFFFFFFFFFFFFFF0000000
FFFFFFFFFFFFFFFFFFFF80000000
ENDCHAR
STARTCHAR 0054
ENCODING 84
SWIDTH 1805 0
DWIDTH 130 0
BBX 111 65 1 0
BITMAP
FFFFFFFFFFFFFFFFFFFFFFFFFFFE
FFFFFFFFFFFFFFFFFFFFFFFFFFFE
FFFFFFFFFFFFFFFFFFFFFFFFFFFE
FFFFFFFFFFFFFFFFFFFFFFFFFFFE
FFFFFFFFFFFFFFFFFFFFFFFFFFFE
FFFFFFFFFFFFFFFFFFFFFFFFFFFE
FFFFFFFFFFFFFFFFFFFFFFFFFFFE
FFFFFFFFFFFFFFFFFFFFFFFFFFFE
FFFFFFFFFFFFFFFFFFFFFFFFFFFE
FFFFFFFFFFFFFFFFFFFFFFFFFFFE
FFFFFFFFFFFFFFFFFFFFFFFFFFFE
FFFFFFFFFFFFFFFFFFFFFFFFFFFE
FFFFFFFFFFFFFFFFFFFFFFFFFFFE
FFFFFFFFFFFFFFFFFFFFFFFFFFFE
000000000000FFFC000000000000
000000000000FFFC000000000000
000000000000FFFC000000000000
000000000000FFFC000000000000
000000000000FFFC000000000000
000000000000FFFC000000000000
000000000000FFFC000000000000
000000000000FFFC000000000000
000000000000FFFC000000000000
000000000000FFFC000000000000
000000000000FFFC000000000000
000000000000FFFC000000000000
000000000000FFFC000000000000
000000000000FFFC000000000000
000000000000FFFC000000000000
000000000000FFFC000000000000
000000000000FFFC000000000000
000000000000FFFC000000000000
000000000000FFFC000000000000
000000000000FFFC000000000000
000000000000FFFC000000000000
000000000000FFFC000000000000
000000000000FFFC000000000000
000000000000FFFC000000000000
000000000000FFFC000000000000
000000000000FFFC000000000000
000000000000FFFC000000000000
000000000000FFFC000000000000
000000000000FFFC000000000000
000000000000FFFC000000000000
000000000000FFFC000000000000
000000000000FFFC000000000000
000000000000FFFC000000000000
000000000000FFFC000000000000
000000000000FFFC000000000000
000000000000FFFC000000000000
000000000000FFFC000000000000
000000000000FFFC000000000000
000000000000FFFC000000000000
000000000000FFFC000000000000
000000000000FFFC000000000000
000000000000FFFC000000000000
000000000000FFFC000000000000
000000000000FFFC000000000000
000000000000FFFC000000000000
000000000000FFFC000000000000
000000000000FFFC000000000000
000000000000FFFC000000000000
000000000000FFFC000000000000
000000000000FFFC000000000000
000000000000FFFC000000000000
ENDCHAR
STARTCHAR 0055
ENCODING 85
SWIDTH 1805 0
DWIDTH 130 0
BBX 111 74 1 0
BITMAP
0000000007FFFFFFFFC000000000
0000000007FFFFFFFFC000000000
0000000007FFFFFFFFC000000000
0000000007FFFFFFFFC000000000
0000000007FFFFFFFFC000000000
0000000007FFFFFFFFC000000000
0000000007FFFFFFFFC000000000
0000000000000000000000000000
0000000000000000000000000000
FFFC000000000000000000007FFE
FFFC000000000000000000007FFE
FFFC000000000000000000007FFE
FFFC000000000000000000007FFE
FFFC000000000000000000007FFE
FFFC000000000000000000007FFE
FFFC000000000000000000007FFE
FFFC000000000000000000007FFE
FFFC000000000000000000007FFE
FFFC000000000000000000007FFE
FFFC000000000000000000007FFE
FFFC000000000000000000007FFE
FFFC000000000000000000007FFE
FFFC000000000000000000007FFE
FFFC000000000000000000007FFE
FFFC000000000000000000007FFE
FFFC000000000000000000007FFE
FFFC000000000000000000007FFE
FFFC000000000000000000007FFE
FFFC000000000000000000007FFE
FFFC000000000000000000007FFE
FFFC000000000000000000007FFE
FFFC000000000000000000007FFE
FFFE000000000000000000007FFE
FFFE000000000000000000007FFE
FFFE000000000000000000007FFE
FFFE000000000000000000007FFE
FFFE000000000000000000007FFE
FFFF000000000000000000007FFE
FFFF000000000000000000007FFE
FFFF000000000000000000007FFE
7FFF000000000000000000007FFE
7FFF800000000000000000007FFE
7FFF800000000000000000007FFE
7FFFC00000000000000000007FFE
7FFFC00000000000000000007FFE
3FFFE00000000000000000007FFE
3FFFF00000000000000000007FFE
3FFFF00000000000000000007FFE
1FFFF80000000000000000007FFE
1FFFFC0000000000000000007FFE
1FFFFE0000000000000000007FFE
0FFFFF0000000000000000007FFE
0FFFFFC000000000000000007FFE
07FFFFE000000000000000007FFE
07FFFFF800000000000000007FFE
03FFFFFE00000000000000007FFE
01FFFFFFC0000000000000007FFE
01FFFFFFF8000000000000007FFE
00FFFFFFFF800000000000007FFE
007FFFFFFFFF8000000000007FFE
003FFFFFFFFFFFFFFFFFFFFFFFFE
001FFFFFFFFFFFFFFFFFFFFFFFFE
000FFFFFFFFFFFFFFFFFFFFFFFFE
0007FFFFFFFFFFFFFFFFFFFFFFFE
0003FFFFFFFFFFFFFFFFFFFFFFFE
0001FFFFFFFFFFFFFFFFFFFFFFFE
00007FFFFFFFFFFFFFFFFFFFFFFE
00003FFFFFFFFFFFFFFFFFFFFFFE
00000FFFFFFFFFFFFFFFFFFFFFFE
000003FFFFFFFFFFFFFFFFFFFFFE
0000007FFFFFFFFFFFFFFFFFFFFE
0000000FFFFFFFFFFFFFFFFFFFFE
00000001FFFFFFFFFFFFFFFFFFFE
0000000003FFFFFFFFFFFFFFFFFE
ENDCHAR
STARTCHAR 0056
ENCODING 86
SWIDTH 1736 0
DWIDTH 125 0
BBX 106 74 1 0
BITMAP
0000000007FFFFFFFFC000000000
0000000007FFFFFFFFC000000000
0000000007FFFFFFFFC000000000
0000000007FFFFFFFFC000000000
0000000007FFFFFFFFC000000000
0000000007FFFFFFFFC000000000
0000000007FFFFFFFFC000000000
0000000000000000000000000000
0000000000000000000000000000
FFFC000000000000000000FFFFC0
FFFC000000000000000001FFFFC0
FFFC000000000000000001FFFFC0
FFFC000000000000000001FFFFC0
FFFC000000000000000001FFFFC0
FFFC000000000000000001FFFF80
FFFC000000000000000003FFFF80
FFFC000000000000000003FFFF80
FFFC000000000000000007FFFF80
FFFC000000000000000007FFFF00
FFFC00000000000000000FFFFF00
FFFC00000000000000000FFFFE00
FFFC00000000000000001FFFFE00
FFFC00000000000000001FFFFE00
FFFC00000000000000003FFFFC00
FFFC00000000000000003FFFFC00
FFFC00000000000000007FFFF800
FFFC0000000000000000FFFFF000
FFFC0000000000000000FFFFF000
FFFC0000000000000001FFFFE000
FFFC0000000000000003FFFFE000
FFFC0000000000000003FFFFC000
FFFC0000000000000007FFFF8000
FFFC000000000000000FFFFF8000
FFFC000000000000001FFFFF0000
FFFC000000000000001FFFFE0000
FFFC000000000000003FFFFC0000
FFFC000000000000007FFFFC0000
FFFC00000000000000FFFFF80000
FFFC00000000000001FFFFF00000
FFFC00000000000003FFFFE00000
FFFC00000000000007FFFFC00000
FFFC0000000000000FFFFF800000
FFFC0000000000001FFFFF800000
FFFC0000000000003FFFFF000000
FFFC0000000000007FFFFE000000
FFFC000000000000FFFFFC000000
FFFC000000000003FFFFF8000000
FFFC000000000007FFFFF0000000
FFFC00000000000FFFFFE0000000
FFFC00000000003FFFFFC0000000
FFFC00000000007FFFFF80000000
FFFC0000000001FFFFFE00000000
FFFC0000000007FFFFFC00000000
FFFC000000001FFFFFF800000000
FFFC000000007FFFFFF000000000
FFFC00000001FFFFFFE000000000
FFFC0000000FFFFFFF8000000000
FFFC0000007FFFFFFF0000000000
FFFC000007FFFFFFFE0000000000
FFFC0001FFFFFFFFF80000000000
FFFFFFFFFFFFFFFFF00000000000
FFFFFFFFFFFFFFFFE00000000000
FFFFFFFFFFFFFFFF800000000000
FFFFFFFFFFFFFFFE000000000000
FFFFFFFFFFFFFFFC000000000000
FFFFFFFFFFFFFFF0000000000000
FFFFFFFFFFFFFFC0000000000000
FFFFFFFFFFFFFF00000000000000
FFFFFFFFFFFFFC00000000000000
FFFFFFFFFFFFF000000000000000
FFFFFFFFFFFF8000000000000000
FFFFFFFFFFFE0000000000000000
FFFFFFFFFFE00000000000000000
FFFFFFFFFE000000000000000000
ENDCHAR
STARTCHAR 0057
ENCODING 87
SWIDTH 1805 0
DWIDTH 130 0
BBX 111 74 1 0
BITMAP
000000000000FFFC000000000000
000000000000FFFC000000000000
000000000000FFFC000000000000
000000000000FFFC000000000000
000000000000FFFC000000000000
000000000000FFFC000000000000
000000000000FFFC000000000000
000000000000FFFC000000000000
000000000000FFFC000000000000
FFFC00000000FFFC000000007FFE
FFFC00000000FFFC000000007FFE
FFFC00000000FFFC000000007FFE
FFFC00000000FFFC000000007FFE
FFFC00000000FFFC000000007FFE
FFFC00000000FFFC000000007FFE
FFFC00000000FFFC000000007FFE
FFFC00000000FFFC000000007FFE
FFFC00000000FFFC000000007FFE
FFFC00000000FFFC000000007FFE
FFFC00000000FFFC000000007FFE
FFFC00000000FFFC000000007FFE
FFFC00000000FFFC000000007FFE
FFFC00000000FFFC000000007FFE
FFFC00000000FFFC000000007FFE
FFFC00000000FFFC000000007FFE
FFFC00000000FFFC000000007FFE
FFFC00000000FFFC000000007FFE
FFFC00000000FFFC000000007FFE
FFFC00000000FFFC000000007FFE
FFFC00000000FFFC000000007FFE
FFFC00000000FFFC000000007FFE
FFFC00000000FFFC000000007FFE
FFFE00000000FFFC000000007FFE
FFFE00000000FFFC000000007FFE
FFFE00000000FFFC000000007FFE
FFFE00000000FFFC000000007FFE
FFFE00000000FFFC000000007FFE
FFFF00000000FFFC000000007FFE
FFFF00000000FFFC000000007FFE
FFFF00000000FFFC000000007FFE
7FFF00000000FFFC000000007FFE
7FFF80000000FFFC000000007FFE
7FFF80000000FFFC000000007FFE
7FFFC0000000FFFC000000007FFE
7FFFC0000000FFFC000000007FFE
3FFFE0000000FFFC000000007FFE
3FFFF0000000FFFC000000007FFE
3FFFF0000000FFFC000000007FFE
1FFFF8000000FFFC000000007FFE
1FFFFC000000FFFC000000007FFE
1FFFFE000000FFFC000000007FFE
0FFFFF0000000000000000007FFE
0FFFFFC000000000000000007FFE
07FFFFE000000000000000007FFE
07FFFFF800000000000000007FFE
03FFFFFE00000000000000007FFE
01FFFFFFC0000000000000007FFE
01FFFFFFF8000000000000007FFE
00FFFFFFFF800000000000007FFE
007FFFFFFFFF8000000000007FFE
003FFFFFFFFFFFFFFFFFFFFFFFFE
001FFFFFFFFFFFFFFFFFFFFFFFFE
000FFFFFFFFFFFFFFFFFFFFFFFFE
0007FFFFFFFFFFFFFFFFFFFFFFFE
0003FFFFFFFFFFFFFFFFFFFFFFFE
0001FFFFFFFFFFFFFFFFFFFFFFFE
00007FFFFFFFFFFFFFFFFFFFFFFE
00003FFFFFFFFFFFFFFFFFFFFFFE
00000FFFFFFFFFFFFFFFFFFFFFFE
000003FFFFFFFFFFFFFFFFFFFFFE
0000007FFFFFFFFFFFFFFFFFFFFE
0000000FFFFFFFFFFFFFFFFFFFFE
00000001FFFFFFFFFFFFFFFFFFFE
0000000003FFFFFFFFFFFFFFFFFE
ENDCHAR
STARTCHAR 0058
ENCODING 88
SWIDTH 1805 0
DWIDTH 130 0
BBX 111 65 1 0
BITMAP
FFFFC0000000000000000007FFFE
FFFFC0000000000000000007FFFE
FFFFC0000000000000000007FFFE
FFFFC0000000000000000007FFFE
FFFFC0000000000000000007FFFE
FFFFC0000000000000000007FFFE
FFFFC0000000000000000007FFFE
7FFFC0000000000000000007FFFC
7FFFC0000000000000000007FFFC
7FFFC0000000000000000007FFFC
7FFFC0000000000000000007FFFC
7FFFC0000000000000000007FFFC
3FFFC0000000000000000007FFF8
3FFFE000000000000000000FFFF8
3FFFE000000000000000000FFFF8
3FFFF000000000000000001FFFF8
1FFFF800000000000000001FFFF0
1FFFF800000000000000003FFFF0
1FFFFC00000000000000007FFFE0
0FFFFE0000000000000000FFFFE0
0FFFFF8000000000000001FFFFC0
07FFFFC000000000000007FFFFC0
07FFFFF00000000000000FFFFF80
03FFFFF80000000000003FFFFF80
03FFFFFF000000000001FFFFFF00
01FFFFFFC00000000007FFFFFE00
00FFFFFFF8000000003FFFFFFE00
007FFFFFFFC0000007FFFFFFFC00
003FFFFFFFFFFFFFFFFFFFFFF800
001FFFFFFFFFFFFFFFFFFFFFF000
000FFFFFFFFFFFFFFFFFFFFFE000
0007FFFFFFFFFFFFFFFFFFFFC000
0003FFFFFFFFFFFFFFFFFFFF0000
0007FFFFFFFFFFFFFFFFFFFFC000
001FFFFFFFFFFFFFFFFFFFFFE000
003FFFFFFFFFFFFFFFFFFFFFF000
007FFFFFFFFFFFFFFFFFFFFFF800
00FFFFFFFFFFFFFFFFFFFFFFFC00
00FFFFFFFE00000000FFFFFFFE00
01FFFFFFC00000000007FFFFFF00
03FFFFFE000000000001FFFFFF00
03FFFFF80000000000003FFFFF80
07FFFFE00000000000001FFFFFC0
07FFFF8000000000000007FFFFC0
0FFFFF0000000000000003FFFFE0
0FFFFE0000000000000001FFFFE0
1FFFFC0000000000000000FFFFF0
1FFFF800000000000000007FFFF0
1FFFF000000000000000007FFFF0
3FFFF000000000000000003FFFF8
3FFFE000000000000000001FFFF8
3FFFE000000000000000001FFFF8
7FFFC000000000000000000FFFF8
7FFFC000000000000000000FFFFC
7FFFC0000000000000000007FFFC
7FFFC0000000000000000007FFFC
7FFFC0000000000000000007FFFC
FFFFC0000000000000000007FFFC
FFFFC0000000000000000007FFFE
FFFFC0000000000000000007FFFE
FFFFC0000000000000000007FFFE
FFFFC0000000000000000007FFFE
FFFFC0000000000000000007FFFE
FFFFC0000000000000000007FFFE
FFFFC0000000000000000007FFFE
ENDCHAR
STARTCHAR 0059
ENCODING 89
SWIDTH 1805 0
DWIDTH 130 0
BBX 110 74 1 0
BITMAP
0000000007FFFFFFFFC000000000
0000000007FFFFFFFFC000000000
0000000007FFFFFFFFC000000000
0000000007FFFFFFFFC000000000
0000000007FFFFFFFFC000000000
0000000007FFFFFFFFC000000000
0000000007FFFFFFFFC000000000
0000000000000000000000000000
0000000000000000000000000000
FFFFC000000000000000000FFFFC
7FFFE000000000000000001FFFFC
7FFFF000000000000000003FFFFC
7FFFF800000000000000003FFFF8
3FFFFC00000000000000007FFFF8
3FFFFC0000000000000000FFFFF0
1FFFFF0000000000000001FFFFE0
0FFFFF8000000000000003FFFFE0
0FFFFFC00000000000000FFFFFC0
07FFFFE00000000000001FFFFFC0
03FFFFF80000000000007FFFFF80
03FFFFFC000000000000FFFFFF00
01FFFFFF000000000003FFFFFE00
00FFFFFFC0000000000FFFFFFE00
007FFFFFF0000000007FFFFFFC00
003FFFFFFF00000003FFFFFFF800
001FFFFFFFF000003FFFFFFFF000
000FFFFFFFFFFFFFFFFFFFFFE000
0007FFFFFFFFFFFFFFFFFFFF8000
0003FFFFFFFFFFFFFFFFFFFF0000
0000FFFFFFFFFFFFFFFFFFFE0000
00007FFFFFFFFFFFFFFFFFF80000
00001FFFFFFFFFFFFFFFFFE00000
000007FFFFFFFFFFFFFFFF800000
000001FFFFFFFFFFFFFFFE000000
0000007FFFFFFFFFFFFFF8000000
00000007FFFFFFFFFFFF80000000
000000007FFFFFFFFFF800000000
000000000000FFFC000000000000
000000000000FFFC000000000000
000000000000FFFC000000000000
000000000000FFFC000000000000
000000000000FFFC000000000000
000000000000FFFC000000000000
000000000000FFFC000000000000
000000000000FFFC000000000000
000000000000FFFC000000000000
000000000000FFFC000000000000
000000000000FFFC000000000000
000000000000FFFC000000000000
000000000000FFFC000000000000
000000000000FFFC000000000000
000000000000FFFC000000000000
000000000000FFFC000000000000
000000000000FFFC000000000000
000000000000FFFC000000000000
000000000000FFFC000000000000
000000000000FFFC000000000000
000000000000FFFC000000000000
000000000000FFFC000000000000
000000000000FFFC000000000000
000000000000FFFC000000000000
000000000000FFFC000000000000
000000000000FFFC000000000000
000000000000FFFC000000000000
000000000000FFFC000000000000
000000000000FFFC000000000000
000000000000FFFC000000000000
000000000000FFFC000000000000
000000000000FFFC000000000000
000000000000FFFC000000000000
000000000000FFFC000000000000
000000000000FFFC000000000000
000000000000FFFC000000000000
000000000000FFFC000000000000
ENDCHAR
STARTCHAR 005A
ENCODING 90
SWIDTH 1805 0
DWIDTH 130 0
BBX 111 65 1 0
BITMAP
FFFFFFFFFFFFFFFFFFFFFFFFFFFE
FFFFFFFFFFFFFFFFFFFFFFFFFFFE
FFFFFFFFFFFFFFFFFFFFFFFFFFFE
FFFFFFFFFFFFFFFFFFFFFFFFFFFC
FFFFFFFFFFFFFFFFFFFFFFFFFFFC
FFFFFFFFFFFFFFFFFFFFFFFFFFFC
FFFFFFFFFFFFFFFFFFFFFFFFFFFC
FFFFFFFFFFFFFFFFFFFFFFFFFFFC
FFFFFFFFFFFFFFFFFFFFFFFFFFFC
FFFFFFFFFFFFFFFFFFFFFFFFFFFC
FFFFFFFFFFFFFFFFFFFFFFFFFFF8
FFFFFFFFFFFFFFFFFFFFFFFFFFF8
FFFFFFFFFFFFFFFFFFFFFFFFFFF8
FFFFFFFFFFFFFFFFFFFFFFFFFFF0
00000000000000000000003FFFF0
00000000000000000000003FFFF0
00000000000000000000007FFFE0
00000000000000000000007FFFE0
0000000000000000000000FFFFC0
0000000000000000000000FFFFC0
0000000000000000000001FFFF80
0000000000000000000003FFFF80
000000000000000000000FFFFF00
000000000000000000001FFFFE00
000000000000000000007FFFFE00
00000000000000000001FFFFFC00
0000000000000000000FFFFFF800
000000000000000001FFFFFFF000
00000001FFFFFFFFFFFFFFFFE000
0000001FFFFFFFFFFFFFFFFFC000
000000FFFFFFFFFFFFFFFFFF8000
000003FFFFFFFFFFFFFFFFFF0000
00001FFFFFFFFFFFFFFFFFFE0000
00003FFFFFFFFFFFFFFFFFF80000
0000FFFFFFFFFFFFFFFFFFF00000
0001FFFFFFFFFFFFFFFFFFC00000
0007FFFFFFFFFFFFFFFFFF000000
000FFFFFFFFFFFFFFFFFFC000000
001FFFFFFFFFFFFFFFFFE0000000
003FFFFFFFFFFFFFFFFE00000000
007FFFFFFF000000000000000000
00FFFFFF80000000000000000000
01FFFFF800000000000000000000
01FFFFE000000000000000000000
03FFFF8000000000000000000000
07FFFF0000000000000000000000
07FFFE0000000000000000000000
0FFFFC0000000000000000000000
0FFFF80000000000000000000000
1FFFF80000000000000000000000
1FFFF00000000000000000000000
3FFFFFFFFFFFFFFFFFFFFFFFFFFE
3FFFFFFFFFFFFFFFFFFFFFFFFFFE
3FFFFFFFFFFFFFFFFFFFFFFFFFFE
7FFFFFFFFFFFFFFFFFFFFFFFFFFE
7FFFFFFFFFFFFFFFFFFFFFFFFFFE
7FFFFFFFFFFFFFFFFFFFFFFFFFFE
7FFFFFFFFFFFFFFFFFFFFFFFFFFE
FFFFFFFFFFFFFFFFFFFFFFFFFFFE
FFFFFFFFFFFFFFFFFFFFFFFFFFFE
FFFFFFFFFFFFFFFFFFFFFFFFFFFE
FFFFFFFFFFFFFFFFFFFFFFFFFFFE
FFFFFFFFFFFFFFFFFFFFFFFFFFFE
FFFFFFFFFFFFFFFFFFFFFFFFFFFE
FFFFFFFFFFFFFFFFFFFFFFFFFFFE
ENDCHAR
STARTCHAR 005B
ENCODING 91
SWIDTH 652 0
DWIDTH 47 0
BBX 28 65 1 0
BITMAP
FFFFFFF0
FFFFFFF0
FFFFFFF0
FFFFFFF0
FFFFFFF0
FFFFFFF0
FFFFFFF0
FFFFFFF0
FFFFFFF0
FFFFFFF0
FFFFFFF0
FFFFFFF0
FFFFFFF0
FFFFFFF0
FFFC0000
FFFC0000
FFFC0000
FFFC0000
FFFC0000
FFFC0000
FFFC0000
FFFC0000
FFFC0000
FFFC0000
FFFC0000
FFFC0000
FFFC0000
FFFC0000
FFFC0000
FFFC0000
FFFC0000
FFFC0000
FFFC0000
FFFC0000
FFFC0000
FFFC0000
FFFC0000
FFFC0000
FFFC0000
FFFC0000
FFFC0000
FFFC0000
FFFC0000
FFFC0000
FFFC0000
FFFC0000
FFFC0000
FFFC0000
FFFC0000
FFFC0000
FFFC0000
FFFFFFF0
FFFFFFF0
FFFFFFF0
FFFFFFF0
FFFFFFF0
FFFFFFF0
FFFFFFF0
FFFFFFF0
FFFFFFF0
FFFFFFF0
FFFFFFF0
FFFFFFF0
FFFFFFF0
FFFFFFF0
ENDCHAR
STARTCHAR 005C
ENCODING 92
SWIDTH 722 0
DWIDTH 52 0
BBX 32 65 1 0
BITMAP
FFFC0000
7FFC0000
7FFE0000
7FFE0000
3FFE0000
3FFE0000
3FFF0000
3FFF0000
1FFF0000
1FFF8000
1FFF8000
0FFF8000
0FFF8000
0FFFC000
0FFFC000
07FFC000
07FFC000
07FFE000
03FFE000
03FFE000
03FFF000
03FFF000
01FFF000
01FFF000
01FFF800
00FFF800
00FFF800
00FFFC00
00FFFC00
007FFC00
007FFC00
007FFE00
003FFE00
003FFE00
003FFF00
003FFF00
001FFF00
001FFF00
001FFF80
000FFF80
000FFF80
000FFFC0
000FFFC0
0007FFC0
0007FFC0
0007FFE0
0007FFE0
0003FFE0
0003FFF0
0003FFF0
0001FFF0
0001FFF0
0001FFF8
0001FFF8
0000FFF8
0000FFFC
0000FFFC
00007FFC
00007FFC
00007FFE
00007FFE
00003FFE
00003FFF
00003FFF
00001FFF
ENDCHAR
STARTCHAR 005D
ENCODING 93
SWIDTH 652 0
DWIDTH 47 0
BBX 28 65 1 0
BITMAP
FFFFFFF0
FFFFFFF0
FFFFFFF0
FFFFFFF0
FFFFFFF0
FFFFFFF0
FFFFFFF0
FFFFFFF0
FFFFFFF0
FFFFFFF0
FFFFFFF0
FFFFFFF0
FFFFFFF0
FFFFFFF0
0003FFF0
0003FFF0
0003FFF0
0003FFF0
0003FFF0
0003FFF0
0003FFF0
0003FFF0
0003FFF0
0003FFF0
0003FFF0
0003FFF0
0003FFF0
0003FFF0
0003FFF0
0003FFF0
0003FFF0
0003FFF0
0003FFF0
0003FFF0
0003FFF0
0003FFF0
0003FFF0
0003FFF0
0003FFF0
0003FFF0
0003FFF0
0003FFF0
0003FFF0
0003FFF0
0003FFF0
0003FFF0
0003FFF0
0003FFF0
0003FFF0
0003FFF0
0003FFF0
FFFFFFF0
FFFFFFF0
FFFFFFF0
FFFFFFF0
FFFFFFF0
FFFFFFF0
FFFFFFF0
FFFFFFF0
FFFFFFF0
FFFFFFF0
FFFFFFF0
FFFFFFF0
FFFFFFF0
FFFFFFF0
ENDCHAR
STARTCHAR 005E
ENCODING 94
SWIDTH 777 0
DWIDTH 56 0
BBX 37 12 1 61
BITMAP
0000700000
0007FF0000
007FFFF000
07FFFFFF00
7FFFFFFFE0
FFFFFFFFF8
FFFFFFFFF8
FFFF9FFFF8
FFFC01FFF8
FFC0001FF8
FC000001F8
C000000018
ENDCHAR
STARTCHAR 005F
ENCODING 95
SWIDTH 1541 0
DWIDTH 111 0
BBX 111 14 0 0
BITMAP
FFFFFFFFFFFFFFFFFFFFFFFFFFFE
FFFFFFFFFFFFFFFFFFFFFFFFFFFE
FFFFFFFFFFFFFFFFFFFFFFFFFFFE
FFFFFFFFFFFFFFFFFFFFFFFFFFFE
FFFFFFFFFFFFFFFFFFFFFFFFFFFE
FFFFFFFFFFFFFFFFFFFFFFFFFFFE
FFFFFFFFFFFFFFFFFFFFFFFFFFFE
FFFFFFFFFFFFFFFFFFFFFFFFFFFE
FFFFFFFFFFFFFFFFFFFFFFFFFFFE
FFFFFFFFFFFFFFFFFFFFFFFFFFFE
FFFFFFFFFFFFFFFFFFFFFFFFFFFE
FFFFFFFFFFFFFFFFFFFFFFFFFFFE
FFFFFFFFFFFFFFFFFFFFFFFFFFFE
FFFFFFFFFFFFFFFFFFFFFFFFFFFE
ENDCHAR
STARTCHAR 0060
ENCODING 96
SWIDTH 458 0
DWIDTH 33 0
BBX 14 14 1 60
BITMAP
FFFC
FFFC
FFFC
FFFC
FFFC
7FFC
7FFC
7FFC
3FFC
1FFC
1FFC
07FC
03FC
007C
ENDCHAR
STARTCHAR 0061
ENCODING 97
SWIDTH 1805 0
DWIDTH 130 0
BBX 111 55 1 0
BITMAP
000000003FFFFFFFFFFFFFFFFFFE
0000001FFFFFFFFFFFFFFFFFFFFE
000003FFFFFFFFFFFFFFFFFFFFFE
00001FFFFFFFFFFFFFFFFFFFFFFE
0000FFFFFFFFFFFFFFFFFFFFFFFE
0003FFFFFFFFFFFFFFFFFFFFFFFE
000FFFFFFFFFFFFFFFFFFFFFFFFE
003FFFFFFFFFFFFFFFFFFFFFFFFE
007FFFFFFFFFFFFFFFFFFFFFFFFE
00FFFFFFFFFFFFFFFFFFFFFFFFFE
01FFFFFFFFFFFFFFFFFFFFFFFFFE
03FFFFFFFFFFFFFFFFFFFFFFFFFE
07FFFFFFFFFFFFFFFFFFFFFFFFFE
07FFFFFFFFFFFFFFFFFFFFFFFFFE
0FFFFFFFFFF00000000000007FFE
1FFFFFFFE0000000000000007FFE
1FFFFFF800000000000000007FFE
1FFFFFC000000000000000007FFE
3FFFFE0000000000000000007FFE
3FFFFC0000000000000000007FFE
7FFFF00000000000000000007FFE
7FFFE00000000000000000007FFE
7FFFC00000000000000000007FFE
7FFF800000000000000000007FFE
7FFF800000000000000000007FFE
FFFF000000000000000000007FFE
FFFF000000000000000000007FFE
FFFFFFFFFFFFFFFFFFFFFFFFFFFE
FFFFFFFFFFFFFFFFFFFFFFFFFFFE
FFFFFFFFFFFFFFFFFFFFFFFFFFFE
FFFFFFFFFFFFFFFFFFFFFFFFFFFE
FFFFFFFFFFFFFFFFFFFFFFFFFFFE
FFFFFFFFFFFFFFFFFFFFFFFFFFFE
FFFFFFFFFFFFFFFFFFFFFFFFFFFE
FFFFFFFFFFFFFFFFFFFFFFFFFFFE
FFFFFFFFFFFFFFFFFFFFFFFFFFFE
FFFFFFFFFFFFFFFFFFFFFFFFFFFE
FFFFFFFFFFFFFFFFFFFFFFFFFFFE
FFFFFFFFFFFFFFFFFFFFFFFFFFFE
FFFFFFFFFFFFFFFFFFFFFFFFFFFE
FFFFFFFFFFFFFFFFFFFFFFFFFFFE
FFFC000000000000000000007FFE
FFFC000000000000000000007FFE
FFFC000000000000000000007FFE
FFFC000000000000000000007FFE
FFFC000000000000000000007FFE
FFFC000000000000000000007FFE
FFFC000000000000000000007FFE
FFFC000000000000000000007FFE
FFFC000000000000000000007FFE
FFFC000000000000000000007FFE
FFFC000000000000000000007FFE
FFFC000000000000000000007FFE
FFFC000000000000000000007FFE
FFFC000000000000000000007FFE
ENDCHAR
STARTCHAR 0062
ENCODING 98
SWIDTH 1805 0
DWIDTH 130 0
BBX 111 55 1 0
BITMAP
FFFFFFFFFFFFFFFFFFFFFFFFFFFE
FFFFFFFFFFFFFFFFFFFFFFFFFFFE
FFFFFFFFFFFFFFFFFFFFFFFFFFFE
FFFFFFFFFFFFFFFFFFFFFFFFFFFC
FFFFFFFFFFFFFFFFFFFFFFFFFFFC
FFFFFFFFFFFFFFFFFFFFFFFFFFFC
FFFFFFFFFFFFFFFFFFFFFFFFFFFC
FFFFFFFFFFFFFFFFFFFFFFFFFFFC
FFFFFFFFFFFFFFFFFFFFFFFFFFFC
FFFFFFFFFFFFFFFFFFFFFFFFFFF8
FFFFFFFFFFFFFFFFFFFFFFFFFFF8
FFFFFFFFFFFFFFFFFFFFFFFFFFF8
FFFFFFFFFFFFFFFFFFFFFFFFFFF8
FFFFFFFFFFFFFFFFFFFFFFFFFFF0
FFFC0000000000000000003FFFF0
FFFC0000000000000000003FFFE0
FFFC0000000000000000007FFFE0
FFFC0000000000000000007FFFC0
FFFC000000000000000000FFFFC0
FFFC000000000000000003FFFF80
FFFC00000000000000000FFFFF00
FFFC0000000000000000FFFFFE00
FFFC00000000000001FFFFFFFC00
FFFC01FFFFFFFFFFFFFFFFFFF800
FFFC01FFFFFFFFFFFFFFFFFFF000
FFFC01FFFFFFFFFFFFFFFFFFE000
FFFC01FFFFFFFFFFFFFFFFFFC000
FFFC01FFFFFFFFFFFFFFFFFF0000
FFFC01FFFFFFFFFFFFFFFFFFC000
FFFC01FFFFFFFFFFFFFFFFFFE000
FFFC01FFFFFFFFFFFFFFFFFFF000
FFFC01FFFFFFFFFFFFFFFFFFFC00
FFFC01FFFFFFFFFFFFFFFFFFFE00
FFFC01FFFFFFFFFFFFFF9FFFFE00
FFFC01FFFFFFFFFFF00007FFFF00
FFFC000000000000000001FFFF80
FFFC000000000000000000FFFFC0
FFFC0000000000000000007FFFC0
FFFC0000000000000000007FFFE0
FFFC0000000000000000003FFFE0
FFFC0000000000000000003FFFF0
FFFFFFFFFFFFFFFFFFFFFFFFFFF0
FFFFFFFFFFFFFFFFFFFFFFFFFFF8
FFFFFFFFFFFFFFFFFFFFFFFFFFF8
FFFFFFFFFFFFFFFFFFFFFFFFFFF8
FFFFFFFFFFFFFFFFFFFFFFFFFFFC
FFFFFFFFFFFFFFFFFFFFFFFFFFFC
FFFFFFFFFFFFFFFFFFFFFFFFFFFC
FFFFFFFFFFFFFFFFFFFFFFFFFFFC
FFFFFFFFFFFFFFFFFFFFFFFFFFFC
FFFFFFFFFFFFFFFFFFFFFFFFFFFC
FFFFFFFFFFFFFFFFFFFFFFFFFFFC
FFFFFFFFFFFFFFFFFFFFFFFFFFFE
FFFFFFFFFFFFFFFFFFFFFFFFFFFE
FFFFFFFFFFFFFFFFFFFFFFFFFFFE
ENDCHAR
STARTCHAR 0063
ENCODING 99
SWIDTH 1805 0
DWIDTH 130 0
BBX 111 55 1 0
BITMAP
0000000001FFFFFFFFFFFFFFFFFE
000000007FFFFFFFFFFFFFFFFFFE
00000003FFFFFFFFFFFFFFFFFFFE
0000001FFFFFFFFFFFFFFFFFFFFE
0000007FFFFFFFFFFFFFFFFFFFFE
000001FFFFFFFFFFFFFFFFFFFFFE
000007FFFFFFFFFFFFFFFFFFFFFE
00000FFFFFFFFFFFFFFFFFFFFFFE
00003FFFFFFFFFFFFFFFFFFFFFFE
00007FFFFFFFFFFFFFFFFFFFFFFE
0000FFFFFFFFFFFFFFFFFFFFFFFE
0001FFFFFFFFFFFFFFFFFFFFFFFE
0003FFFFFFFFFFFFFFFFFFFFFFFE
0007FFFFFFFFFFFFFFFFFFFFFFFE
000FFFFFFFFFC000000000000000
001FFFFFFFE00000000000000000
003FFFFFFE000000000000000000
003FFFFFF0000000000000000000
007FFFFF80000000000000000000
00FFFFFE00000000000000000000
00FFFFFC00000000000000000000
01FFFFF000000000000000000000
03FFFFE000000000000000000000
03FFFFC000000000000000000000
03FFFF8000000000000000000000
07FFFF0000000000000000000000
07FFFE0000000000000000000000
0FFFFC0000000000000000000000
0FFFFC0000000000000000000000
0FFFF80000000000000000000000
1FFFF80000000000000000000000
1FFFF00000000000000000000000
1FFFF00000000000000000000000
3FFFF00000000000000000000000
3FFFE00000000000000000000000
3FFFE00000000000000000000000
3FFFE00000000000000000000000
7FFFE00000000000000000000000
7FFFE00000000000000000000000
7FFFC00000000000000000000000
7FFFC00000000000000000000000
7FFFFFFFFFFFFFFFFFFFFFFFFFFE
7FFFFFFFFFFFFFFFFFFFFFFFFFFE
7FFFFFFFFFFFFFFFFFFFFFFFFFFE
FFFFFFFFFFFFFFFFFFFFFFFFFFFE
FFFFFFFFFFFFFFFFFFFFFFFFFFFE
FFFFFFFFFFFFFFFFFFFFFFFFFFFE
FFFFFFFFFFFFFFFFFFFFFFFFFFFE
FFFFFFFFFFFFFFFFFFFFFFFFFFFE
FFFFFFFFFFFFFFFFFFFFFFFFFFFE
FFFFFFFFFFFFFFFFFFFFFFFFFFFE
FFFFFFFFFFFFFFFFFFFFFFFFFFFE
FFFFFFFFFFFFFFFFFFFFFFFFFFFE
FFFFFFFFFFFFFFFFFFFFFFFFFFFE
FFFFFFFFFFFFFFFFFFFFFFFFFFFE
ENDCHAR
STARTCHAR 0064
ENCODING 100
SWIDTH 1805 0
DWIDTH 130 0
BBX 111 55 1 0
BITMAP
FFFFFFFFFFFFFFFFFFFFFFFFFFFE
FFFFFFFFFFFFFFFFFFFFFFFFFFFE
FFFFFFFFFFFFFFFFFFFFFFFFFFFE
FFFFFFFFFFFFFFFFFFFFFFFFFFFE
FFFFFFFFFFFFFFFFFFFFFFFFFFFE
FFFFFFFFFFFFFFFFFFFFFFFFFFFC
FFFFFFFFFFFFFFFFFFFFFFFFFFFC
FFFFFFFFFFFFFFFFFFFFFFFFFFFC
FFFFFFFFFFFFFFFFFFFFFFFFFFFC
FFFFFFFFFFFFFFFFFFFFFFFFFFFC
FFFFFFFFFFFFFFFFFFFFFFFFFFFC
FFFFFFFFFFFFFFFFFFFFFFFFFFFC
FFFFFFFFFFFFFFFFFFFFFFFFFFFC
FFFFFFFFFFFFFFFFFFFFFFFFFFFC
FFFC0000000000000000000FFFFC
FFFC0000000000000000000FFFF8
FFFC0000000000000000000FFFF8
FFFC0000000000000000000FFFF8
FFFC0000000000000000000FFFF8
FFFC0000000000000000000FFFF8
FFFC0000000000000000001FFFF0
FFFC0000000000000000001FFFF0
FFFC0000000000000000001FFFF0
FFFC0000000000000000003FFFF0
FFFC0000000000000000003FFFE0
FFFC0000000000000000007FFFE0
FFFC0000000000000000007FFFE0
FFFC000000000000000000FFFFC0
FFFC000000000000000000FFFFC0
FFFC000000000000000001FFFF80
FFFC000000000000000003FFFF80
FFFC000000000000000007FFFF80
FFFC00000000000000000FFFFF00
FFFC00000000000000001FFFFF00
FFFC00000000000000007FFFFE00
FFFC0000000000000001FFFFFC00
FFFC0000000000000007FFFFFC00
FFFC000000000000001FFFFFF800
FFFC00000000000000FFFFFFF000
FFFC0000000000000FFFFFFFF000
FFFC000000000007FFFFFFFFE000
FFFFFFFFFFFFFFFFFFFFFFFFC000
FFFFFFFFFFFFFFFFFFFFFFFF8000
FFFFFFFFFFFFFFFFFFFFFFFF0000
FFFFFFFFFFFFFFFFFFFFFFFE0000
FFFFFFFFFFFFFFFFFFFFFFF80000
FFFFFFFFFFFFFFFFFFFFFFF00000
FFFFFFFFFFFFFFFFFFFFFFE00000
FFFFFFFFFFFFFFFFFFFFFF800000
FFFFFFFFFFFFFFFFFFFFFE000000
FFFFFFFFFFFFFFFFFFFFFC000000
FFFFFFFFFFFFFFFFFFFFE0000000
FFFFFFFFFFFFFFFFFFFF80000000
FFFFFFFFFFFFFFFFFFF800000000
FFFFFFFFFFFFFFFFFF0000000000
ENDCHAR
STARTCHAR 0065
ENCODING 101
SWIDTH 1805 0
DWIDTH 130 0
BBX 111 55 1 0
BITMAP
00000003FFFFFFFFFFFFFFFFFFFE
0000001FFFFFFFFFFFFFFFFFFFFE
000000FFFFFFFFFFFFFFFFFFFFFE
000007FFFFFFFFFFFFFFFFFFFFFE
00001FFFFFFFFFFFFFFFFFFFFFFE
00007FFFFFFFFFFFFFFFFFFFFFFE
0001FFFFFFFFFFFFFFFFFFFFFFFE
0003FFFFFFFFFFFFFFFFFFFFFFFE
0007FFFFFFFFFFFFFFFFFFFFFFFE
001FFFFFFFFFFFFFFFFFFFFFFFFE
003FFFFFFFFFFFFFFFFFFFFFFFFE
007FFFFFFFFFFFFFFFFFFFFFFFFE
00FFFFFFFFFFFFFFFFFFFFFFFFFE
01FFFFFFFFFFFFFFFFFFFFFFFFFE
01FFFFFFFC000000000000000000
03FFFFFE00000000000000000000
07FFFFE000000000000000000000
0FFFFF0000000000000000000000
0FFFFE0000000000000000000000
1FFFF80000000000000000000000
1FFFF00000000000000000000000
3FFFF00000000000000000000000
3FFFE00000000000000000000000
3FFFE000FFFFFFFFFFFFFFFFFFFE
7FFFE000FFFFFFFFFFFFFFFFFFFE
7FFFC000FFFFFFFFFFFFFFFFFFFE
7FFFC000FFFFFFFFFFFFFFFFFFFE
7FFFC000FFFFFFFFFFFFFFFFFFFE
FFFFC000FFFFFFFFFFFFFFFFFFFE
FFFFC000FFFFFFFFFFFFFFFFFFFE
FFFFC000FFFFFFFFFFFFFFFFFFFE
FFFFC000FFFFFFFFFFFFFFFFFFFE
FFFFC000FFFFFFFFFFFFFFFFFFFE
FFFFC000FFFFFFFFFFFFFFFFFFFE
FFFFC000FFFFFFFFFFFFFFFFFFFE
FFFFC00000000000000000000000
FFFFC00000000000000000000000
FFFFC00000000000000000000000
FFFFC00000000000000000000000
FFFFC00000000000000000000000
FFFFC00000000000000000000000
FFFFC00000000000000000000000
FFFFC00000000000000000000000
FFFFFFFFFFFFFFFFFFFFFFFFFFFE
FFFFFFFFFFFFFFFFFFFFFFFFFFFE
FFFFFFFFFFFFFFFFFFFFFFFFFFFE
FFFFFFFFFFFFFFFFFFFFFFFFFFFE
FFFFFFFFFFFFFFFFFFFFFFFFFFFE
FFFFFFFFFFFFFFFFFFFFFFFFFFFE
FFFFFFFFFFFFFFFFFFFFFFFFFFFE
FFFFFFFFFFFFFFFFFFFFFFFFFFFE
FFFFFFFFFFFFFFFFFFFFFFFFFFFE
FFFFFFFFFFFFFFFFFFFFFFFFFFFE
FFFFFFFFFFFFFFFFFFFFFFFFFFFE
FFFFFFFFFFFFFFFFFFFFFFFFFFFE
ENDCHAR
STARTCHAR 0066
ENCODING 102
SWIDTH 1805 0
DWIDTH 130 0
BBX 111 55 1 0
BITMAP
00000003FFFFFFFFFFFFFFFFFFFE
0000001FFFFFFFFFFFFFFFFFFFFE
000000FFFFFFFFFFFFFFFFFFFFFE
000007FFFFFFFFFFFFFFFFFFFFFE
00001FFFFFFFFFFFFFFFFFFFFFFE
00007FFFFFFFFFFFFFFFFFFFFFFE
0001FFFFFFFFFFFFFFFFFFFFFFFE
0003FFFFFFFFFFFFFFFFFFFFFFFE
0007FFFFFFFFFFFFFFFFFFFFFFFE
001FFFFFFFFFFFFFFFFFFFFFFFFE
003FFFFFFFFFFFFFFFFFFFFFFFFE
007FFFFFFFFFFFFFFFFFFFFFFFFE
00FFFFFFFFFFFFFFFFFFFFFFFFFE
01FFFFFFFFFFFFFFFFFFFFFFFFFE
01FFFFFFFC000000000000000000
03FFFFFE00000000000000000000
07FFFFE000000000000000000000
0FFFFF8000000000000000000000
0FFFFE0000000000000000000000
1FFFF80000000000000000000000
1FFFF80000000000000000000000
3FFFF00000000000000000000000
3FFFE00000000000000000000000
3FFFE000FFFFFFFFFFFFFFFFFFFE
7FFFE000FFFFFFFFFFFFFFFFFFFE
7FFFC000FFFFFFFFFFFFFFFFFFFE
7FFFC000FFFFFFFFFFFFFFFFFFFE
7FFFC000FFFFFFFFFFFFFFFFFFFE
FFFFC000FFFFFFFFFFFFFFFFFFFE
FFFFC000FFFFFFFFFFFFFFFFFFFE
FFFFC000FFFFFFFFFFFFFFFFFFFE
FFFFC000FFFFFFFFFFFFFFFFFFFE
FFFFC000FFFFFFFFFFFFFFFFFFFE
FFFFC000FFFFFFFFFFFFFFFFFFFE
FFFFC000FFFFFFFFFFFFFFFFFFFE
FFFFC00000000000000000000000
FFFFC00000000000000000000000
FFFFC00000000000000000000000
FFFFC00000000000000000000000
FFFFC00000000000000000000000
FFFFC00000000000000000000000
FFFFC00000000000000000000000
FFFFC00000000000000000000000
FFFFC00000000000000000000000
FFFFC00000000000000000000000
FFFFC00000000000000000000000
FFFFC00000000000000000000000
FFFFC00000000000000000000000
FFFFC00000000000000000000000
FFFFC00000000000000000000000
FFFFC00000000000000000000000
FFFFC00000000000000000000000
FFFFC00000000000000000000000
FFFFC00000000000000000000000
FFFFC00000000000000000000000
ENDCHAR
STARTCHAR 0067
ENCODING 103
SWIDTH 1805 0
DWIDTH 130 0
BBX 111 55 1 0
BITMAP
0000000001FFFFFFFFFFFFFFFFFE
000000007FFFFFFFFFFFFFFFFFFE
00000003FFFFFFFFFFFFFFFFFFFE
0000001FFFFFFFFFFFFFFFFFFFFE
0000007FFFFFFFFFFFFFFFFFFFFE
000001FFFFFFFFFFFFFFFFFFFFFE
000007FFFFFFFFFFFFFFFFFFFFFE
00000FFFFFFFFFFFFFFFFFFFFFFE
00003FFFFFFFFFFFFFFFFFFFFFFE
00007FFFFFFFFFFFFFFFFFFFFFFE
0000FFFFFFFFFFFFFFFFFFFFFFFE
0001FFFFFFFFFFFFFFFFFFFFFFFE
0003FFFFFFFFFFFFFFFFFFFFFFFE
0007FFFFFFFFFFFFFFFFFFFFFFFE
000FFFFFFFFFC000000000000000
001FFFFFFFE00000000000000000
003FFFFFFE000000000000000000
003FFFFFF0000000000000000000
007FFFFF80000000000000000000
00FFFFFE00000000000000000000
00FFFFFC00000000000000000000
01FFFFF000000000000000000000
03FFFFE000000000000000000000
03FFFFC00000000000000007FFFE
03FFFF800000000000000007FFFE
07FFFF000000000000000007FFFE
07FFFE000000000000000007FFFE
0FFFFC000000000000000007FFFE
0FFFFC000000000000000007FFFE
0FFFF8000000000000000007FFFE
1FFFF8000000000000000007FFFE
1FFFF0000000000000000007FFFE
1FFFF0000000000000000007FFFE
3FFFF0000000000000000007FFFE
3FFFE0000000000000000007FFFE
3FFFE0000000000000000007FFFE
3FFFE0000000000000000007FFFE
7FFFE0000000000000000007FFFE
7FFFE0000000000000000007FFFE
7FFFC0000000000000000007FFFE
7FFFC0000000000000000007FFFE
7FFFFFFFFFFFFFFFFFFFFFFFFFFE
7FFFFFFFFFFFFFFFFFFFFFFFFFFE
7FFFFFFFFFFFFFFFFFFFFFFFFFFE
FFFFFFFFFFFFFFFFFFFFFFFFFFFE
FFFFFFFFFFFFFFFFFFFFFFFFFFFE
FFFFFFFFFFFFFFFFFFFFFFFFFFFE
FFFFFFFFFFFFFFFFFFFFFFFFFFFE
FFFFFFFFFFFFFFFFFFFFFFFFFFFE
FFFFFFFFFFFFFFFFFFFFFFFFFFFE
FFFFFFFFFFFFFFFFFFFFFFFFFFFE
FFFFFFFFFFFFFFFFFFFFFFFFFFFE
FFFFFFFFFFFFFFFFFFFFFFFFFFFE
FFFFFFFFFFFFFFFFFFFFFFFFFFFE
FFFFFFFFFFFFFFFFFFFFFFFFFFFE
ENDCHAR
STARTCHAR 0068
ENCODING 104
SWIDTH 1805 0
DWIDTH 130 0
BBX 111 65 1 0
BITMAP
0000000007FFFFFFFFC000000000
0000000007FFFFFFFFC000000000
0000000007FFFFFFFFC000000000
0000000007FFFFFFFFC000000000
0000000007FFFFFFFFC000000000
0000000007FFFFFFFFC000000000
0000000007FFFFFFFFC000000000
0000000000000000000000000000
0000000000000000000000000000
0000000000000000000000000000
FFFC00000000000000000007FFFE
FFFC00000000000000000007FFFE
FFFC00000000000000000007FFFE
FFFC00000000000000000007FFFE
FFFC00000000000000000007FFFE
FFFC00000000000000000007FFFE
FFFC00000000000000000007FFFE
FFFC00000000000000000007FFFE
FFFC00000000000000000007FFFE
FFFC00000000000000000007FFFE
FFFC00000000000000000007FFFE
FFFC00000000000000000007FFFE
FFFC00000000000000000007FFFE
FFFC00000000000000000007FFFE
FFFC00000000000000000007FFFE
FFFC00000000000000000007FFFE
FFFC00000000000000000007FFFE
FFFC00000000000000000007FFFE
FFFC00000000000000000007FFFE
FFFC00000000000000000007FFFE
FFFC00000000000000000007FFFE
FFFC00000000000000000007FFFE
FFFC00000000000000000007FFFE
FFFC01FFFFFFFFFFFFFFFFFFFFFE
FFFC01FFFFFFFFFFFFFFFFFFFFFE
FFFC01FFFFFFFFFFFFFFFFFFFFFE
FFFC01FFFFFFFFFFFFFFFFFFFFFE
FFFC01FFFFFFFFFFFFFFFFFFFFFE
FFFC01FFFFFFFFFFFFFFFFFFFFFE
FFFC01FFFFFFFFFFFFFFFFFFFFFE
FFFC01FFFFFFFFFFFFFFFFFFFFFE
FFFC01FFFFFFFFFFFFFFFFFFFFFE
FFFC01FFFFFFFFFFFFFFFFFFFFFE
FFFC01FFFFFFFFFFFFFFFFFFFFFE
FFFC01FFFFFFFFFFFFFFFFFFFFFE
FFFC00000000000000000007FFFE
FFFC00000000000000000007FFFE
FFFC00000000000000000007FFFE
FFFC00000000000000000007FFFE
FFFC00000000000000000007FFFE
FFFC00000000000000000007FFFE
FFFC00000000000000000007FFFE
FFFC00000000000000000007FFFE
FFFC00000000000000000007FFFE
FFFC00000000000000000007FFFE
FFFC00000000000000000007FFFE
FFFC00000000000000000007FFFE
FFFC00000000000000000007FFFE
FFFC00000000000000000007FFFE
FFFC00000000000000000007FFFE
FFFC00000000000000000007FFFE
FFFC00000000000000000007FFFE
FFFC00000000000000000007FFFE
FFFC00000000000000000007FFFE
FFFC00000000000000000007FFFE
ENDCHAR
STARTCHAR 0069
ENCODING 105
SWIDTH 458 0
DWIDTH 33 0
BBX 14 55 1 0
BITMAP
FFFC
FFFC
FFFC
FFFC
FFFC
FFFC
FFFC
FFFC
FFFC
FFFC
FFFC
FFFC
FFFC
FFFC
FFFC
FFFC
FFFC
FFFC
FFFC
FFFC
FFFC
FFFC
FFFC
FFFC
FFFC
FFFC
FFFC
FFFC
FFFC
FFFC
FFFC
FFFC
FFFC
FFFC
FFFC
FFFC
FFFC
FFFC
FFFC
FFFC
FFFC
FFFC
FFFC
FFFC
FFFC
FFFC
FFFC
FFFC
FFFC
FFFC
FFFC
FFFC
FFFC
FFFC
FFFC
ENDCHAR
STARTCHAR 006A
ENCODING 106
SWIDTH 1722 0
DWIDTH 124 0
BBX 106 65 5 0
BITMAP
00000000FFFFFFFFF80000000000
00000000FFFFFFFFF80000000000
00000000FFFFFFFFF80000000000
00000000FFFFFFFFF80000000000
00000000FFFFFFFFF80000000000
00000000FFFFFFFFF80000000000
00000000FFFFFFFFF80000000000
0000000000000000000000000000
0000000000000000000000000000
0000000000000000000000000000
00000000000000000000000FFFC0
00000000000000000000000FFFC0
00000000000000000000000FFFC0
00000000000000000000000FFFC0
00000000000000000000000FFFC0
00000000000000000000000FFFC0
00000000000000000000000FFFC0
00000000000000000000000FFFC0
00000000000000000000000FFFC0
00000000000000000000000FFFC0
00000000000000000000000FFFC0
00000000000000000000000FFFC0
00000000000000000000000FFFC0
00000000000000000000000FFFC0
00000000000000000000000FFFC0
00000000000000000000000FFFC0
00000000000000000000000FFFC0
00000000000000000000000FFFC0
00000000000000000000000FFFC0
00000000000000000000000FFFC0
00000000000000000000000FFFC0
00000000000000000000000FFFC0
00000000000000000000000FFFC0
00000000000000000000000FFFC0
00000000000000000000000FFFC0
00000000000000000000000FFFC0
00000000000000000000000FFFC0
FFFFC000000000000000000FFFC0
FFFFE000000000000000000FFFC0
7FFFF000000000000000000FFFC0
7FFFF800000000000000000FFFC0
3FFFFC00000000000000000FFFC0
3FFFFE00000000000000000FFFC0
1FFFFF00000000000000000FFFC0
0FFFFFC0000000000000000FFFC0
0FFFFFE0000000000000000FFFC0
07FFFFFC000000000000000FFFC0
07FFFFFF000000000000000FFFC0
03FFFFFFE00000000000000FFFC0
01FFFFFFFE0000000000000FFFC0
00FFFFFFFFF800000000000FFFC0
007FFFFFFFFFFFFFFFFFFFFFFFC0
003FFFFFFFFFFFFFFFFFFFFFFFC0
001FFFFFFFFFFFFFFFFFFFFFFFC0
000FFFFFFFFFFFFFFFFFFFFFFFC0
0007FFFFFFFFFFFFFFFFFFFFFFC0
0003FFFFFFFFFFFFFFFFFFFFFFC0
0000FFFFFFFFFFFFFFFFFFFFFFC0
00007FFFFFFFFFFFFFFFFFFFFFC0
00001FFFFFFFFFFFFFFFFFFFFFC0
000007FFFFFFFFFFFFFFFFFFFFC0
000001FFFFFFFFFFFFFFFFFFFFC0
0000003FFFFFFFFFFFFFFFFFFFC0
00000003FFFFFFFFFFFFFFFFFFC0
000000001FFFFFFFFFFFFFFFFFC0
ENDCHAR
STARTCHAR 006B
ENCODING 107
SWIDTH 1805 0
DWIDTH 130 0
BBX 111 65 1 0
BITMAP
0000000007FFFFFFFFC000000000
0000000007FFFFFFFFC000000000
0000000007FFFFFFFFC000000000
0000000007FFFFFFFFC000000000
0000000007FFFFFFFFC000000000
0000000007FFFFFFFFC000000000
0000000007FFFFFFFFC000000000
0000000000000000000000000000
0000000000000000000000000000
0000000000000000000000000000
FFFC00000000000000000007FFFE
FFFC00000000000000000007FFFE
FFFC00000000000000000007FFFE
FFFC00000000000000000007FFFE
FFFC00000000000000000007FFFE
FFFC00000000000000000007FFFE
FFFC00000000000000000007FFFC
FFFC00000000000000000007FFFC
FFFC00000000000000000007FFFC
FFFC00000000000000000007FFFC
FFFC00000000000000000007FFFC
FFFC00000000000000000007FFF8
FFFC0000000000000000000FFFF8
FFFC0000000000000000000FFFF0
FFFC0000000000000000001FFFF0
FFFC0000000000000000001FFFF0
FFFC0000000000000000003FFFE0
FFFC000000000000000000FFFFC0
FFFC000000000000000001FFFFC0
FFFC00000000000000000FFFFF80
FFFC00000000000000007FFFFF00
FFFC0000000000000007FFFFFE00
FFFC00000000000001FFFFFFFC00
FFFC01FFFFFFFFFFFFFFFFFFF800
FFFC01FFFFFFFFFFFFFFFFFFF000
FFFC01FFFFFFFFFFFFFFFFFFE000
FFFC01FFFFFFFFFFFFFFFFFFC000
FFFC01FFFFFFFFFFFFFFFFFF0000
FFFC01FFFFFFFFFFFFFFFFFFC000
FFFC01FFFFFFFFFFFFFFFFFFE000
FFFC01FFFFFFFFFFFFFFFFFFF800
FFFC01FFFFFFFFFFFFFFFFFFFC00
FFFC01FFFFFFFFFFFFFFFFFFFE00
FFFC01FFFFFFFFFFFFFFCFFFFF00
FFFC01FFFFFFFFFFFFFF83FFFF80
FFFC000000000000000001FFFF80
FFFC000000000000000000FFFFC0
FFFC0000000000000000007FFFE0
FFFC0000000000000000003FFFE0
FFFC0000000000000000001FFFF0
FFFC0000000000000000001FFFF0
FFFC0000000000000000000FFFF8
FFFC0000000000000000000FFFF8
FFFC00000000000000000007FFF8
FFFC00000000000000000007FFFC
FFFC00000000000000000007FFFC
FFFC00000000000000000007FFFC
FFFC00000000000000000007FFFC
FFFC00000000000000000007FFFC
FFFC00000000000000000007FFFE
FFFC00000000000000000007FFFE
FFFC00000000000000000007FFFE
FFFC00000000000000000007FFFE
FFFC00000000000000000007FFFE
FFFC00000000000000000007FFFE
ENDCHAR
STARTCHAR 006C
ENCODING 108
SWIDTH 1736 0
DWIDTH 125 0
BBX 106 65 1 0
BITMAP
0000000007FFFFFFFFC000000000
0000000007FFFFFFFFC000000000
0000000007FFFFFFFFC000000000
0000000007FFFFFFFFC000000000
0000000007FFFFFFFFC000000000
0000000007FFFFFFFFC000000000
0000000007FFFFFFFFC000000000
0000000000000000000000000000
0000000000000000000000000000
0000000000000000000000000000
FFFC000000000000000000000000
FFFC000000000000000000000000
FFFC000000000000000000000000
FFFC000000000000000000000000
FFFC000000000000000000000000
FFFC000000000000000000000000
FFFC000000000000000000000000
FFFC000000000000000000000000
FFFC000000000000000000000000
FFFC000000000000000000000000
FFFC000000000000000000000000
FFFC000000000000000000000000
FFFC000000000000000000000000
FFFC000000000000000000000000
FFFC000000000000000000000000
FFFC000000000000000000000000
FFFC000000000000000000000000
FFFC000000000000000000000000
FFFC000000000000000000000000
FFFC000000000000000000000000
FFFC000000000000000000000000
FFFC000000000000000000000000
FFFC000000000000000000000000
FFFC000000000000000000000000
FFFC000000000000000000000000
FFFC000000000000000000000000
FFFC000000000000000000000000
FFFC000000000000000000FFFFC0
FFFC000000000000000001FFFFC0
FFFC000000000000000003FFFF80
FFFC000000000000000007FFFF80
FFFC00000000000000000FFFFF00
FFFC00000000000000001FFFFF00
FFFC00000000000000003FFFFE00
FFFC0000000000000000FFFFFC00
FFFC0000000000000001FFFFFC00
FFFC000000000000000FFFFFF800
FFFC000000000000003FFFFFF800
FFFC00000000000001FFFFFFF000
FFFC0000000000001FFFFFFFE000
FFFC000000000007FFFFFFFFC000
FFFFFFFFFFFFFFFFFFFFFFFF8000
FFFFFFFFFFFFFFFFFFFFFFFF0000
FFFFFFFFFFFFFFFFFFFFFFFE0000
FFFFFFFFFFFFFFFFFFFFFFFC0000
FFFFFFFFFFFFFFFFFFFFFFF80000
FFFFFFFFFFFFFFFFFFFFFFF00000
FFFFFFFFFFFFFFFFFFFFFFC00000
FFFFFFFFFFFFFFFFFFFFFF000000
FFFFFFFFFFFFFFFFFFFFFE000000
FFFFFFFFFFFFFFFFFFFFF8000000
FFFFFFFFFFFFFFFFFFFFC0000000
FFFFFFFFFFFFFFFFFFFF00000000
FFFFFFFFFFFFFFFFFFF000000000
FFFFFFFFFFFFFFFFFE0000000000
ENDCHAR
STARTCHAR 006D
ENCODING 109
SWIDTH 1805 0
DWIDTH 130 0
BBX 111 55 1 0
BITMAP
FFFFFFFFFFFFFFFFFFF800000000
FFFFFFFFFFFFFFFFFFFFF0000000
FFFFFFFFFFFFFFFFFFFFFF800000
FFFFFFFFFFFFFFFFFFFFFFF00000
FFFFFFFFFFFFFFFFFFFFFFFE0000
FFFFFFFFFFFFFFFFFFFFFFFF8000
FFFFFFFFFFFFFFFFFFFFFFFFE000
FFFFFFFFFFFFFFFFFFFFFFFFF800
FFFFFFFFFFFFFFFFFFFFFFFFFC00
FFFFFFFFFFFFFFFFFFFFFFFFFE00
FFFFFFFFFFFFFFFFFFFFFFFFFF00
FFFFFFFFFFFFFFFFFFFFFFFFFF80
FFFFFFFFFFFFFFFFFFFFFFFFFFC0
FFFFFFFFFFFFFFFFFFFFFFFFFFC0
FFFC0000000000003FFFFFFFFFE0
FFFC000000000000000FFFFFFFE0
FFFC00000000000000007FFFFFF0
FFFC00000000000000000FFFFFF0
FFFC000000000000000001FFFFF8
FFFC0000000000000000007FFFF8
FFFC0000000000000000003FFFF8
FFFC0000000000000000001FFFFC
FFFC0000000000000000000FFFFC
FFFC00000000FFFC00000007FFFC
FFFC00000000FFFC00000003FFFC
FFFC00000000FFFC00000003FFFE
FFFC00000000FFFC00000001FFFE
FFFC00000000FFFC00000001FFFE
FFFC00000000FFFC00000000FFFE
FFFC00000000FFFC00000000FFFE
FFFC00000000FFFC00000000FFFE
FFFC00000000FFFC00000000FFFE
FFFC00000000FFFC00000000FFFE
FFFC00000000FFFC000000007FFE
FFFC00000000FFFC000000007FFE
FFFC00000000FFFC000000007FFE
FFFC00000000FFFC000000007FFE
FFFC00000000FFFC000000007FFE
FFFC00000000FFFC000000007FFE
FFFC00000000FFFC000000007FFE
FFFC00000000FFFC000000007FFE
FFFC00000000FFFC000000007FFE
FFFC00000000FFFC000000007FFE
FFFC00000000FFFC000000007FFE
FFFC00000000FFFC000000007FFE
FFFC00000000FFFC000000007FFE
FFFC00000000FFFC000000007FFE
FFFC00000000FFFC000000007FFE
FFFC00000000FFFC000000007FFE
FFFC00000000FFFC000000007FFE
FFFC00000000FFFC000000007FFE
FFFC00000000FFFC000000007FFE
FFFC00000000FFFC000000007FFE
FFFC00000000FFFC000000007FFE
FFFC00000000FFFC000000007FFE
ENDCHAR
STARTCHAR 006E
ENCODING 110
SWIDTH 1736 0
DWIDTH 125 0
BBX 106 55 1 0
BITMAP
FFFFFFFFFF0000000000000FFFC0
FFFFFFFFFFFC00000000000FFFC0
FFFFFFFFFFFFC0000000000FFFC0
FFFFFFFFFFFFF8000000000FFFC0
FFFFFFFFFFFFFF000000000FFFC0
FFFFFFFFFFFFFFC00000000FFFC0
FFFFFFFFFFFFFFF00000000FFFC0
FFFFFFFFFFFFFFFC0000000FFFC0
FFFFFFFFFFFFFFFF0000000FFFC0
FFFFFFFFFFFFFFFFC000000FFFC0
FFFFFFFFFFFFFFFFF000000FFFC0
FFFFFFFFFFFFFFFFF800000FFFC0
FFFFFFFFFFFFFFFFFE00000FFFC0
FFFFFFFFFFFFFFFFFF00000FFFC0
FFFC000FFFFFFFFFFFC0000FFFC0
FFFC00000FFFFFFFFFE0000FFFC0
FFFC000000FFFFFFFFF0000FFFC0
FFFC0000000FFFFFFFF8000FFFC0
FFFC00000001FFFFFFFE000FFFC0
FFFC000000003FFFFFFF000FFFC0
FFFC000000000FFFFFFF800FFFC0
FFFC0000000003FFFFFFC00FFFC0
FFFC0000000000FFFFFFE00FFFC0
FFFC00000000003FFFFFF00FFFC0
FFFC00000000000FFFFFF80FFFC0
FFFC000000000007FFFFFC0FFFC0
FFFC000000000001FFFFFE0FFFC0
FFFC000000000000FFFFFF0FFFC0
FFFC0000000000007FFFFF8FFFC0
FFFC0000000000001FFFFFCFFFC0
FFFC0000000000000FFFFFEFFFC0
FFFC00000000000007FFFFEFFFC0
FFFC00000000000003FFFFFFFFC0
FFFC00000000000001FFFFFFFFC0
FFFC00000000000000FFFFFFFFC0
FFFC000000000000007FFFFFFFC0
FFFC000000000000003FFFFFFFC0
FFFC000000000000001FFFFFFFC0
FFFC000000000000001FFFFFFFC0
FFFC000000000000000FFFFFFFC0
FFFC0000000000000007FFFFFFC0
FFFC0000000000000003FFFFFFC0
FFFC0000000000000001FFFFFFC0
FFFC0000000000000000FFFFFFC0
FFFC0000000000000000FFFFFFC0
FFFC00000000000000007FFFFFC0
FFFC00000000000000003FFFFFC0
FFFC00000000000000003FFFFFC0
FFFC00000000000000001FFFFFC0
FFFC00000000000000000FFFFFC0
FFFC000000000000000007FFFFC0
FFFC000000000000000007FFFFC0
FFFC000000000000000003FFFFC0
FFFC000000000000000001FFFFC0
FFFC000000000000000001FFFFC0
ENDCHAR
STARTCHAR 006F
ENCODING 111
SWIDTH 1805 0
DWIDTH 130 0
BBX 111 55 1 0
BITMAP
0000000001FFFFFFFFFFFFFFFFFE
000000007FFFFFFFFFFFFFFFFFFE
00000003FFFFFFFFFFFFFFFFFFFE
0000001FFFFFFFFFFFFFFFFFFFFE
0000007FFFFFFFFFFFFFFFFFFFFE
000001FFFFFFFFFFFFFFFFFFFFFC
000007FFFFFFFFFFFFFFFFFFFFFC
00000FFFFFFFFFFFFFFFFFFFFFFC
00003FFFFFFFFFFFFFFFFFFFFFFC
00007FFFFFFFFFFFFFFFFFFFFFFC
0000FFFFFFFFFFFFFFFFFFFFFFFC
0001FFFFFFFFFFFFFFFFFFFFFFFC
0003FFFFFFFFFFFFFFFFFFFFFFFC
0007FFFFFFFFFFFFFFFFFFFFFFFC
000FFFFFFFFFC0000000000FFFFC
001FFFFFFFE000000000000FFFF8
003FFFFFFE0000000000000FFFF8
003FFFFFF00000000000000FFFF8
007FFFFF800000000000000FFFF8
00FFFFFE000000000000000FFFF8
00FFFFFC000000000000001FFFF0
01FFFFF0000000000000001FFFF0
03FFFFE0000000000000001FFFF0
03FFFFC0000000000000003FFFF0
03FFFF80000000000000003FFFE0
07FFFF00000000000000007FFFE0
07FFFE00000000000000007FFFE0
0FFFFC0000000000000000FFFFC0
0FFFFC0000000000000000FFFFC0
0FFFF80000000000000001FFFF80
1FFFF80000000000000003FFFF80
1FFFF00000000000000007FFFF80
1FFFF0000000000000000FFFFF00
3FFFF0000000000000001FFFFF00
3FFFE0000000000000007FFFFE00
3FFFE000000000000001FFFFFC00
3FFFE000000000000007FFFFFC00
7FFFE00000000000001FFFFFF800
7FFFE0000000000000FFFFFFF000
7FFFC000000000000FFFFFFFF000
7FFFC00000000007FFFFFFFFE000
7FFFFFFFFFFFFFFFFFFFFFFFC000
7FFFFFFFFFFFFFFFFFFFFFFF8000
7FFFFFFFFFFFFFFFFFFFFFFF0000
FFFFFFFFFFFFFFFFFFFFFFFE0000
FFFFFFFFFFFFFFFFFFFFFFF80000
FFFFFFFFFFFFFFFFFFFFFFF00000
FFFFFFFFFFFFFFFFFFFFFFE00000
FFFFFFFFFFFFFFFFFFFFFF800000
FFFFFFFFFFFFFFFFFFFFFE000000
FFFFFFFFFFFFFFFFFFFFFC000000
FFFFFFFFFFFFFFFFFFFFE0000000
FFFFFFFFFFFFFFFFFFFF80000000
FFFFFFFFFFFFFFFFFFF800000000
FFFFFFFFFFFFFFFFFF0000000000
ENDCHAR
STARTCHAR 0070
ENCODING 112
SWIDTH 1805 0
DWIDTH 130 0
BBX 111 55 1 0
BITMAP
FFFFFFFFFFFFFFFFFFFFFFFFFFFE
FFFFFFFFFFFFFFFFFFFFFFFFFFFE
FFFFFFFFFFFFFFFFFFFFFFFFFFFE
FFFFFFFFFFFFFFFFFFFFFFFFFFFC
FFFFFFFFFFFFFFFFFFFFFFFFFFFC
FFFFFFFFFFFFFFFFFFFFFFFFFFFC
FFFFFFFFFFFFFFFFFFFFFFFFFFFC
FFFFFFFFFFFFFFFFFFFFFFFFFFFC
FFFFFFFFFFFFFFFFFFFFFFFFFFFC
FFFFFFFFFFFFFFFFFFFFFFFFFFFC
FFFFFFFFFFFFFFFFFFFFFFFFFFF8
FFFFFFFFFFFFFFFFFFFFFFFFFFF8
FFFFFFFFFFFFFFFFFFFFFFFFFFF8
FFFFFFFFFFFFFFFFFFFFFFFFFFF0
FFFC0000000000000000003FFFF0
FFFC0000000000000000003FFFF0
FFFC0000000000000000007FFFE0
FFFC0000000000000000007FFFE0
FFFC000000000000000000FFFFC0
FFFC000000000000000001FFFFC0
FFFC000000000000000001FFFF80
FFFC000000000000000003FFFF80
FFFC00000000000000000FFFFF00
FFFC00000000000000001FFFFF00
FFFC00000000000000003FFFFE00
FFFC0000000000000000FFFFFC00
FFFC0000000000000007FFFFF800
FFFC000000000000003FFFFFF800
FFFC00000000000007FFFFFFF000
FFFC01FFFFFFFFFFFFFFFFFFE000
FFFC01FFFFFFFFFFFFFFFFFFC000
FFFC01FFFFFFFFFFFFFFFFFF8000
FFFC01FFFFFFFFFFFFFFFFFF0000
FFFC01FFFFFFFFFFFFFFFFFC0000
FFFC01FFFFFFFFFFFFFFFFF80000
FFFC01FFFFFFFFFFFFFFFFE00000
FFFC01FFFFFFFFFFFFFFFFC00000
FFFC01FFFFFFFFFFFFFFFF000000
FFFC01FFFFFFFFFFFFFFFC000000
FFFC01FFFFFFFFFFFFFFE0000000
FFFC01FFFFFFFFFFFFFE00000000
FFFC000000000000000000000000
FFFC000000000000000000000000
FFFC000000000000000000000000
FFFC000000000000000000000000
FFFC000000000000000000000000
FFFC000000000000000000000000
FFFC000000000000000000000000
FFFC000000000000000000000000
FFFC000000000000000000000000
FFFC000000000000000000000000
FFFC000000000000000000000000
FFFC000000000000000000000000
FFFC000000000000000000000000
FFFC000000000000000000000000
ENDCHAR
STARTCHAR 0071
ENCODING 113
SWIDTH 1805 0
DWIDTH 130 0
BBX 111 55 1 0
BITMAP
0000000001FFFFFFFFFFFFFFFFFE
000000007FFFFFFFFFFFFFFFFFFE
00000003FFFFFFFFFFFFFFFFFFFE
0000001FFFFFFFFFFFFFFFFFFFFE
0000007FFFFFFFFFFFFFFFFFFFFE
000001FFFFFFFFFFFFFFFFFFFFFE
000007FFFFFFFFFFFFFFFFFFFFFE
00000FFFFFFFFFFFFFFFFFFFFFFE
00003FFFFFFFFFFFFFFFFFFFFFFE
00007FFFFFFFFFFFFFFFFFFFFFFE
0000FFFFFFFFFFFFFFFFFFFFFFFC
0001FFFFFFFFFFFFFFFFFFFFFFFC
0003FFFFFFFFFFFFFFFFFFFFFFFC
0007FFFFFFFFFFFFFFFFFFFFFFFC
000FFFFFFFFFC00000000007FFFC
001FFFFFFFE0000000000007FFFC
003FFFFFFE00000000000007FFFC
003FFFFFF000000000000007FFF8
007FFFFF8000000000000007FFF8
00FFFFFE000000000000000FFFF8
00FFFFFC000000000000000FFFF8
01FFFFF0000000000000000FFFF0
03FFFFE0000000000000000FFFF0
03FFFFC0000000000000001FFFF0
03FFFF80000000000000001FFFF0
07FFFF00000000000000003FFFE0
07FFFE00000000000000003FFFE0
0FFFFC00000000000000007FFFC0
0FFFFC0000000000000000FFFFC0
0FFFF80000000000000001FFFFC0
1FFFF80001FFFFFF000003FFFF80
1FFFF000007FFFFF800007FFFF80
1FFFF000001FFFFFE0000FFFFF00
3FFFF000000FFFFFF0003FFFFF00
3FFFE0000003FFFFFC007FFFFE00
3FFFE0000001FFFFFF01FFFFFC00
3FFFE00000007FFFFF87FFFFFC00
7FFFE00000001FFFFFFFFFFFF800
7FFFE00000000FFFFFFFFFFFF000
7FFFC000000003FFFFFFFFFFF000
7FFFC000000001FFFFFFFFFFE000
7FFFFFFFFFFFFFFFFFFFFFFFC000
7FFFFFFFFFFFFFFFFFFFFFFF8000
7FFFFFFFFFFFFFFFFFFFFFFF0000
FFFFFFFFFFFFFFFFFFFFFFFC0000
FFFFFFFFFFFFFFFFFFFFFFF80000
FFFFFFFFFFFFFFFFFFFFFFF00000
FFFFFFFFFFFFFFFFFFFFFFE00000
FFFFFFFFFFFFFFFFFFFFFFF00000
FFFFFFFFFFFFFFFFFFFFFFFC0000
FFFFFFFFFFFFFFFFFFFFFFFE0000
FFFFFFFFFFFFFFFFFFFFFFFF8000
FFFFFFFFFFFFFFFFFFFFFFFFE000
FFFFFFFFFFFFFFFFFFFFFFFFF000
FFFFFFFFFFFFFFFFFF83FFFFFC00
ENDCHAR
STARTCHAR 0072
ENCODING 114
SWIDTH 1805 0
DWIDTH 130 0
BBX 111 55 1 0
BITMAP
FFFFFFFFFFFFFFFFFFFFFFFFFFFE
FFFFFFFFFFFFFFFFFFFFFFFFFFFE
FFFFFFFFFFFFFFFFFFFFFFFFFFFE
FFFFFFFFFFFFFFFFFFFFFFFFFFFE
FFFFFFFFFFFFFFFFFFFFFFFFFFFC
FFFFFFFFFFFFFFFFFFFFFFFFFFFC
FFFFFFFFFFFFFFFFFFFFFFFFFFFC
FFFFFFFFFFFFFFFFFFFFFFFFFFFC
FFFFFFFFFFFFFFFFFFFFFFFFFFFC
FFFFFFFFFFFFFFFFFFFFFFFFFFFC
FFFFFFFFFFFFFFFFFFFFFFFFFFF8
FFFFFFFFFFFFFFFFFFFFFFFFFFF8
FFFFFFFFFFFFFFFFFFFFFFFFFFF8
FFFFFFFFFFFFFFFFFFFFFFFFFFF8
FFFC0000000000000000003FFFF0
FFFC0000000000000000003FFFF0
FFFC0000000000000000007FFFF0
FFFC0000000000000000007FFFE0
FFFC000000000000000000FFFFE0
FFFC000000000000000001FFFFC0
FFFC000000000000000001FFFFC0
FFFC000000000000000003FFFF80
FFFC00000000000000000FFFFF80
FFFC00000000000000001FFFFF00
FFFC00000000000000003FFFFE00
FFFC0000000000000000FFFFFE00
FFFC0000000000000007FFFFFC00
FFFC000000000000003FFFFFF800
FFFC00000000000007FFFFFFF000
FFFC01FFFFFFFFFFFFFFFFFFE000
FFFC01FFFFFFFFFFFFFFFFFFC000
FFFC01FFFFFFFFFFFFFFFFFF8000
FFFC01FFFFFFFFFFFFFFFFFF0000
FFFC01FFFFFFFFFFFFFFFFFE0000
FFFC01FFFFFFFFFFFFFFFFF80000
FFFC01FFFFFFFFFFFFFFFFE00000
FFFC01FFFFFFFFFFFFFFFFC00000
FFFC01FFFFFFFFFFFFFFFE000000
FFFC01FFFFFFFFFFFFFFF8000000
FFFC01FFFFFFFFFFFFFF80000000
FFFC01FFFFFFFFFFFFFF00000000
FFFC00000000003FFFFFC0000000
FFFC00000000000FFFFFE0000000
FFFC000000000007FFFFF8000000
FFFC000000000001FFFFFC000000
FFFC000000000000FFFFFF000000
FFFC0000000000003FFFFF800000
FFFC0000000000001FFFFFC00000
FFFC00000000000007FFFFF00000
FFFC00000000000003FFFFF80000
FFFC00000000000000FFFFFE0000
FFFC000000000000007FFFFF0000
FFFC000000000000001FFFFFC000
FFFC000000000000000FFFFFE000
FFFC0000000000000003FFFFF800
ENDCHAR
STARTCHAR 0073
ENCODING 115
SWIDTH 1805 0
DWIDTH 130 0
BBX 111 55 1 0
BITMAP
00000003FFFFFFFFFFFFFFFFFFFE
0000001FFFFFFFFFFFFFFFFFFFFE
000000FFFFFFFFFFFFFFFFFFFFFE
000007FFFFFFFFFFFFFFFFFFFFFE
00001FFFFFFFFFFFFFFFFFFFFFFE
00007FFFFFFFFFFFFFFFFFFFFFFE
0001FFFFFFFFFFFFFFFFFFFFFFFE
0003FFFFFFFFFFFFFFFFFFFFFFFE
0007FFFFFFFFFFFFFFFFFFFFFFFE
001FFFFFFFFFFFFFFFFFFFFFFFFE
003FFFFFFFFFFFFFFFFFFFFFFFFE
007FFFFFFFFFFFFFFFFFFFFFFFFE
00FFFFFFFFFFFFFFFFFFFFFFFFFE
01FFFFFFFFFFFFFFFFFFFFFFFFFE
01FFFFFF00000000000000000000
03FFFFF000000000000000000000
07FFFF8000000000000000000000
0FFFFF0000000000000000000000
0FFFFE0000000000000000000000
1FFFFC0000000000000000000000
1FFFF80000000000000000000000
3FFFF80000000000000000000000
3FFFF00000000000000000000000
3FFFFFFFFFFFFFFFFFFFFFFFFFFE
7FFFFFFFFFFFFFFFFFFFFFFFFFFE
7FFFFFFFFFFFFFFFFFFFFFFFFFFE
7FFFFFFFFFFFFFFFFFFFFFFFFFFC
7FFFFFFFFFFFFFFFFFFFFFFFFFFC
FFFFFFFFFFFFFFFFFFFFFFFFFFFC
FFFFFFFFFFFFFFFFFFFFFFFFFFFC
FFFFFFFFFFFFFFFFFFFFFFFFFFFC
FFFFFFFFFFFFFFFFFFFFFFFFFFFC
FFFFFFFFFFFFFFFFFFFFFFFFFFF8
FFFFFFFFFFFFFFFFFFFFFFFFFFF8
FFFFFFFFFFFFFFFFFFFFFFFFFFF8
00000000000000000000003FFFF0
00000000000000000000003FFFF0
00000000000000000000007FFFE0
00000000000000000000007FFFE0
0000000000000000000000FFFFC0
0000000000000000000003FFFF80
000000000000000000000FFFFF80
00000000000000000000FFFFFF00
FFFFFFFFFFFFFFFFFFFFFFFFFE00
FFFFFFFFFFFFFFFFFFFFFFFFFC00
FFFFFFFFFFFFFFFFFFFFFFFFF800
FFFFFFFFFFFFFFFFFFFFFFFFE000
FFFFFFFFFFFFFFFFFFFFFFFFC000
FFFFFFFFFFFFFFFFFFFFFFFF0000
FFFFFFFFFFFFFFFFFFFFFFFE0000
FFFFFFFFFFFFFFFFFFFFFFF80000
FFFFFFFFFFFFFFFFFFFFFFC00000
FFFFFFFFFFFFFFFFFFFFFF000000
FFFFFFFFFFFFFFFFFFFFF8000000
FFFFFFFFFFFFFFFFFFFF80000000
ENDCHAR
STARTCHAR 0074
ENCODING 116
SWIDTH 1805 0
DWIDTH 130 0
BBX 111 55 1 0
BITMAP
FFFFFFFFFFFFFFFFFFFFFFFFFFFE
FFFFFFFFFFFFFFFFFFFFFFFFFFFE
FFFFFFFFFFFFFFFFFFFFFFFFFFFE
FFFFFFFFFFFFFFFFFFFFFFFFFFFE
FFFFFFFFFFFFFFFFFFFFFFFFFFFE
FFFFFFFFFFFFFFFFFFFFFFFFFFFE
FFFFFFFFFFFFFFFFFFFFFFFFFFFE
FFFFFFFFFFFFFFFFFFFFFFFFFFFE
FFFFFFFFFFFFFFFFFFFFFFFFFFFE
FFFFFFFFFFFFFFFFFFFFFFFFFFFE
FFFFFFFFFFFFFFFFFFFFFFFFFFFE
FFFFFFFFFFFFFFFFFFFFFFFFFFFE
FFFFFFFFFFFFFFFFFFFFFFFFFFFE
FFFFFFFFFFFFFFFFFFFFFFFFFFFE
000000000000FFFC000000000000
000000000000FFFC000000000000
000000000000FFFC000000000000
000000000000FFFC000000000000
000000000000FFFC000000000000
000000000000FFFC000000000000
000000000000FFFC000000000000
000000000000FFFC000000000000
000000000000FFFC000000000000
000000000000FFFC000000000000
000000000000FFFC000000000000
000000000000FFFC000000000000
000000000000FFFC000000000000
000000000000FFFC000000000000
000000000000FFFC000000000000
000000000000FFFC000000000000
000000000000FFFC000000000000
000000000000FFFC000000000000
000000000000FFFC000000000000
000000000000FFFC000000000000
000000000000FFFC000000000000
000000000000FFFC000000000000
000000000000FFFC000000000000
000000000000FFFC000000000000
000000000000FFFC000000000000
000000000000FFFC000000000000
000000000000FFFC000000000000
000000000000FFFC000000000000
000000000000FFFC000000000000
000000000000FFFC000000000000
000000000000FFFC000000000000
000000000000FFFC000000000000
000000000000FFFC000000000000
000000000000FFFC000000000000
000000000000FFFC000000000000
000000000000FFFC000000000000
000000000000FFFC000000000000
000000000000FFFC000000000000
000000000000FFFC000000000000
000000000000FFFC000000000000
000000000000FFFC000000000000
ENDCHAR
STARTCHAR 0075
ENCODING 117
SWIDTH 1805 0
DWIDTH 130 0
BBX 111 65 1 0
BITMAP
0000000007FFFFFFFFC000000000
0000000007FFFFFFFFC000000000
0000000007FFFFFFFFC000000000
0000000007FFFFFFFFC000000000
0000000007FFFFFFFFC000000000
0000000007FFFFFFFFC000000000
0000000007FFFFFFFFC000000000
0000000000000000000000000000
0000000000000000000000000000
0000000000000000000000000000
FFFC000000000000000000007FFE
FFFC000000000000000000007FFE
FFFC000000000000000000007FFE
FFFC000000000000000000007FFE
FFFC000000000000000000007FFE
FFFC000000000000000000007FFE
FFFC000000000000000000007FFE
FFFC000000000000000000007FFE
FFFC000000000000000000007FFE
FFFC000000000000000000007FFE
FFFC000000000000000000007FFE
FFFC000000000000000000007FFE
FFFC000000000000000000007FFE
FFFC000000000000000000007FFE
FFFC000000000000000000007FFE
FFFC000000000000000000007FFE
FFFC000000000000000000007FFE
FFFC000000000000000000007FFE
FFFC000000000000000000007FFE
FFFC000000000000000000007FFE
FFFC000000000000000000007FFE
FFFC000000000000000000007FFE
FFFE000000000000000000007FFE
FFFE000000000000000000007FFE
FFFE000000000000000000007FFE
FFFE000000000000000000007FFE
FFFF000000000000000000007FFE
FFFF000000000000000000007FFE
FFFF000000000000000000007FFE
FFFF800000000000000000007FFE
7FFF800000000000000000007FFE
7FFFC00000000000000000007FFE
7FFFE00000000000000000007FFE
7FFFF00000000000000000007FFE
7FFFF80000000000000000007FFE
3FFFFC0000000000000000007FFE
3FFFFF0000000000000000007FFE
1FFFFFE000000000000000007FFE
1FFFFFFC00000000000000007FFE
1FFFFFFFE0000000000000007FFE
0FFFFFFFFFF80000000000007FFE
07FFFFFFFFFFFFFFFFFFFFFFFFFE
07FFFFFFFFFFFFFFFFFFFFFFFFFE
03FFFFFFFFFFFFFFFFFFFFFFFFFE
01FFFFFFFFFFFFFFFFFFFFFFFFFE
00FFFFFFFFFFFFFFFFFFFFFFFFFE
007FFFFFFFFFFFFFFFFFFFFFFFFE
001FFFFFFFFFFFFFFFFFFFFFFFFE
000FFFFFFFFFFFFFFFFFFFFFFFFE
0003FFFFFFFFFFFFFFFFFFFFFFFE
0000FFFFFFFFFFFFFFFFFFFFFFFE
00001FFFFFFFFFFFFFFFFFFFFFFE
000003FFFFFFFFFFFFFFFFFFFFFE
0000001FFFFFFFFFFFFFFFFFFFFE
000000003FFFFFFFFFFFFFFFFFFE
ENDCHAR
STARTCHAR 0076
ENCODING 118
SWIDTH 1736 0
DWIDTH 125 0
BBX 106 65 1 0
BITMAP
0000000007FFFFFFFFC000000000
0000000007FFFFFFFFC000000000
0000000007FFFFFFFFC000000000
0000000007FFFFFFFFC000000000
0000000007FFFFFFFFC000000000
0000000007FFFFFFFFC000000000
0000000007FFFFFFFFC000000000
0000000000000000000000000000
0000000000000000000000000000
0000000000000000000000000000
FFFC000000000000000000FFFFC0
FFFC000000000000000001FFFFC0
FFFC000000000000000001FFFFC0
FFFC000000000000000001FFFFC0
FFFC000000000000000001FFFF80
FFFC000000000000000003FFFF80
FFFC000000000000000003FFFF80
FFFC000000000000000007FFFF80
FFFC000000000000000007FFFF00
FFFC00000000000000000FFFFF00
FFFC00000000000000000FFFFF00
FFFC00000000000000001FFFFE00
FFFC00000000000000003FFFFE00
FFFC00000000000000007FFFFC00
FFFC00000000000000007FFFF800
FFFC0000000000000000FFFFF800
FFFC0000000000000001FFFFF000
FFFC0000000000000003FFFFE000
FFFC0000000000000007FFFFE000
FFFC000000000000000FFFFFC000
FFFC000000000000001FFFFF8000
FFFC000000000000003FFFFF0000
FFFC000000000000007FFFFF0000
FFFC00000000000000FFFFFE0000
FFFC00000000000001FFFFFC0000
FFFC00000000000003FFFFF80000
FFFC00000000000007FFFFF00000
FFFC0000000000001FFFFFE00000
FFFC0000000000003FFFFFC00000
FFFC000000000000FFFFFF800000
FFFC000000000001FFFFFF000000
FFFC000000000007FFFFFE000000
FFFC00000000001FFFFFF8000000
FFFC00000000007FFFFFF0000000
FFFC0000000001FFFFFFE0000000
FFFC0000000007FFFFFFC0000000
FFFC000000003FFFFFFF00000000
FFFC00000000FFFFFFFE00000000
FFFC0000000FFFFFFFF800000000
FFFC000000FFFFFFFFF000000000
FFFC00007FFFFFFFFFC000000000
FFFFFFFFFFFFFFFFFF8000000000
FFFFFFFFFFFFFFFFFE0000000000
FFFFFFFFFFFFFFFFF80000000000
FFFFFFFFFFFFFFFFF00000000000
FFFFFFFFFFFFFFFFC00000000000
FFFFFFFFFFFFFFFF000000000000
FFFFFFFFFFFFFFFC000000000000
FFFFFFFFFFFFFFE0000000000000
FFFFFFFFFFFFFF80000000000000
FFFFFFFFFFFFFE00000000000000
FFFFFFFFFFFFF000000000000000
FFFFFFFFFFFF8000000000000000
FFFFFFFFFFF80000000000000000
FFFFFFFFFE000000000000000000
ENDCHAR
STARTCHAR 0077
ENCODING 119
SWIDTH 1805 0
DWIDTH 130 0
BBX 111 65 1 0
BITMAP
000000000000FFFC000000000000
000000000000FFFC000000000000
000000000000FFFC000000000000
000000000000FFFC000000000000
000000000000FFFC000000000000
000000000000FFFC000000000000
000000000000FFFC000000000000
000000000000FFFC000000000000
000000000000FFFC000000000000
000000000000FFFC000000000000
FFFC00000000FFFC000000007FFE
FFFC00000000FFFC000000007FFE
FFFC00000000FFFC000000007FFE
FFFC00000000FFFC000000007FFE
FFFC00000000FFFC000000007FFE
FFFC00000000FFFC000000007FFE
FFFC00000000FFFC000000007FFE
FFFC00000000FFFC000000007FFE
FFFC00000000FFFC000000007FFE
FFFC00000000FFFC000000007FFE
FFFC00000000FFFC000000007FFE
FFFC00000000FFFC000000007FFE
FFFC00000000FFFC000000007FFE
FFFC00000000FFFC000000007FFE
FFFC00000000FFFC000000007FFE
FFFC00000000FFFC000000007FFE
FFFC00000000FFFC000000007FFE
FFFC00000000FFFC000000007FFE
FFFC00000000FFFC000000007FFE
FFFC00000000FFFC000000007FFE
FFFC00000000FFFC000000007FFE
FFFC00000000FFFC000000007FFE
FFFE00000000FFFC000000007FFE
FFFE00000000FFFC000000007FFE
FFFE00000000FFFC000000007FFE
FFFE00000000FFFC000000007FFE
FFFF00000000FFFC000000007FFE
FFFF00000000FFFC000000007FFE
FFFF00000000FFFC000000007FFE
FFFF80000000FFFC000000007FFE
7FFF80000000FFFC000000007FFE
7FFFC0000000FFFC000000007FFE
7FFFE00000000000000000007FFE
7FFFF00000000000000000007FFE
7FFFF80000000000000000007FFE
3FFFFC0000000000000000007FFE
3FFFFF0000000000000000007FFE
1FFFFFE000000000000000007FFE
1FFFFFFC00000000000000007FFE
1FFFFFFFE0000000000000007FFE
0FFFFFFFFFF80000000000007FFE
07FFFFFFFFFFFFFFFFFFFFFFFFFE
07FFFFFFFFFFFFFFFFFFFFFFFFFE
03FFFFFFFFFFFFFFFFFFFFFFFFFE
01FFFFFFFFFFFFFFFFFFFFFFFFFE
00FFFFFFFFFFFFFFFFFFFFFFFFFE
007FFFFFFFFFFFFFFFFFFFFFFFFE
001FFFFFFFFFFFFFFFFFFFFFFFFE
000FFFFFFFFFFFFFFFFFFFFFFFFE
0003FFFFFFFFFFFFFFFFFFFFFFFE
0000FFFFFFFFFFFFFFFFFFFFFFFE
00001FFFFFFFFFFFFFFFFFFFFFFE
000003FFFFFFFFFFFFFFFFFFFFFE
0000001FFFFFFFFFFFFFFFFFFFFE
000000003FFFFFFFFFFFFFFFFFFE
ENDCHAR
STARTCHAR 0078
ENCODING 120
SWIDTH 1805 0
DWIDTH 130 0
BBX 111 55 1 0
BITMAP
FFFFC0000000000000000007FFFE
FFFFC0000000000000000007FFFE
FFFFC0000000000000000007FFFE
FFFFC0000000000000000007FFFE
FFFFC0000000000000000007FFFE
FFFFC0000000000000000007FFFE
FFFFC0000000000000000007FFFC
7FFFC0000000000000000007FFFC
7FFFC0000000000000000007FFFC
7FFFC0000000000000000007FFFC
7FFFC0000000000000000007FFFC
3FFFC0000000000000000007FFF8
3FFFE000000000000000000FFFF8
3FFFE000000000000000000FFFF0
1FFFF000000000000000001FFFF0
1FFFF800000000000000003FFFF0
0FFFFC00000000000000007FFFE0
0FFFFE0000000000000000FFFFC0
07FFFF8000000000000003FFFFC0
03FFFFF00000000000000FFFFF80
01FFFFFC0000000000007FFFFF00
01FFFFFFC0000000000FFFFFFE00
00FFFFFFFF00000003FFFFFFFC00
007FFFFFFFFFFFFFFFFFFFFFF800
003FFFFFFFFFFFFFFFFFFFFFF000
000FFFFFFFFFFFFFFFFFFFFFE000
0007FFFFFFFFFFFFFFFFFFFFC000
0003FFFFFFFFFFFFFFFFFFFF0000
0007FFFFFFFFFFFFFFFFFFFFC000
001FFFFFFFFFFFFFFFFFFFFFE000
003FFFFFFFFFFFFFFFFFFFFFF800
007FFFFFFFFFFFFFFFFFFFFFFC00
00FFFFFFFFFFFFFFFFFFFFFFFE00
01FFFFFFF8000000007FFFFFFF00
03FFFFFE000000000001FFFFFF80
07FFFFE00000000000003FFFFF80
07FFFF800000000000000FFFFFC0
0FFFFE0000000000000003FFFFE0
0FFFFC0000000000000000FFFFE0
1FFFF000000000000000007FFFF0
1FFFF000000000000000003FFFF0
3FFFE000000000000000001FFFF8
3FFFE000000000000000001FFFF8
3FFFC000000000000000000FFFF8
7FFFC000000000000000000FFFFC
7FFFC0000000000000000007FFFC
7FFFC0000000000000000007FFFC
7FFFC0000000000000000007FFFC
FFFFC0000000000000000007FFFC
FFFFC0000000000000000007FFFE
FFFFC0000000000000000007FFFE
FFFFC0000000000000000007FFFE
FFFFC0000000000000000007FFFE
FFFFC0000000000000000007FFFE
FFFFC0000000000000000007FFFE
ENDCHAR
STARTCHAR 0079
ENCODING 121
SWIDTH 1805 0
DWIDTH 130 0
BBX 110 65 1 0
BITMAP
0000000007FFFFFFFFC000000000
0000000007FFFFFFFFC000000000
0000000007FFFFFFFFC000000000
0000000007FFFFFFFFC000000000
0000000007FFFFFFFFC000000000
0000000007FFFFFFFFC000000000
0000000007FFFFFFFFC000000000
0000000000000000000000000000
0000000000000000000000000000
0000000000000000000000000000
FFFFC000000000000000000FFFFC
7FFFE000000000000000001FFFFC
7FFFF000000000000000003FFFFC
3FFFF800000000000000007FFFF8
3FFFFC00000000000000007FFFF8
1FFFFE0000000000000001FFFFF0
1FFFFF0000000000000003FFFFE0
0FFFFF8000000000000007FFFFE0
0FFFFFC00000000000000FFFFFC0
07FFFFF00000000000003FFFFF80
03FFFFF8000000000000FFFFFF80
01FFFFFE000000000001FFFFFF00
01FFFFFF80000000000FFFFFFE00
00FFFFFFF0000000003FFFFFFC00
007FFFFFFE00000001FFFFFFF800
003FFFFFFFE000001FFFFFFFF000
001FFFFFFFFFFFFFFFFFFFFFE000
0007FFFFFFFFFFFFFFFFFFFFC000
0003FFFFFFFFFFFFFFFFFFFF8000
0001FFFFFFFFFFFFFFFFFFFE0000
00007FFFFFFFFFFFFFFFFFFC0000
00003FFFFFFFFFFFFFFFFFF00000
00000FFFFFFFFFFFFFFFFFC00000
000003FFFFFFFFFFFFFFFF000000
0000007FFFFFFFFFFFFFF8000000
0000000FFFFFFFFFFFFFC0000000
00000000FFFFFFFFFFFC00000000
000000000000FFFC000000000000
000000000000FFFC000000000000
000000000000FFFC000000000000
000000000000FFFC000000000000
000000000000FFFC000000000000
000000000000FFFC000000000000
000000000000FFFC000000000000
000000000000FFFC000000000000
000000000000FFFC000000000000
000000000000FFFC000000000000
000000000000FFFC000000000000
000000000000FFFC000000000000
000000000000FFFC000000000000
000000000000FFFC000000000000
000000000000FFFC000000000000
000000000000FFFC000000000000
000000000000FFFC000000000000
000000000000FFFC000000000000
000000000000FFFC000000000000
000000000000FFFC000000000000
000000000000FFFC000000000000
000000000000FFFC000000000000
000000000000FFFC000000000000
000000000000FFFC000000000000
000000000000FFFC000000000000
000000000000FFFC000000000000
000000000000FFFC000000000000
000000000000FFFC000000000000
ENDCHAR
STARTCHAR 007A
ENCODING 122
SWIDTH 1805 0
DWIDTH 130 0
BBX 111 55 1 0
BITMAP
FFFFFFFFFFFFFFFFFFFFFFFFFFFE
FFFFFFFFFFFFFFFFFFFFFFFFFFFE
FFFFFFFFFFFFFFFFFFFFFFFFFFFE
FFFFFFFFFFFFFFFFFFFFFFFFFFFC
FFFFFFFFFFFFFFFFFFFFFFFFFFFC
FFFFFFFFFFFFFFFFFFFFFFFFFFFC
FFFFFFFFFFFFFFFFFFFFFFFFFFFC
FFFFFFFFFFFFFFFFFFFFFFFFFFFC
FFFFFFFFFFFFFFFFFFFFFFFFFFFC
FFFFFFFFFFFFFFFFFFFFFFFFFFF8
FFFFFFFFFFFFFFFFFFFFFFFFFFF8
FFFFFFFFFFFFFFFFFFFFFFFFFFF8
FFFFFFFFFFFFFFFFFFFFFFFFFFF0
FFFFFFFFFFFFFFFFFFFFFFFFFFF0
00000000000000000000003FFFF0
00000000000000000000003FFFE0
00000000000000000000007FFFE0
00000000000000000000007FFFC0
0000000000000000000000FFFF80
0000000000000000000001FFFF80
0000000000000000000003FFFF00
000000000000000000000FFFFE00
00000000000000000000FFFFFC00
00000001FFFFFFFFFFFFFFFFF800
0000003FFFFFFFFFFFFFFFFFF000
000003FFFFFFFFFFFFFFFFFFE000
00000FFFFFFFFFFFFFFFFFFFC000
00007FFFFFFFFFFFFFFFFFFF8000
0000FFFFFFFFFFFFFFFFFFFE0000
0003FFFFFFFFFFFFFFFFFFFC0000
000FFFFFFFFFFFFFFFFFFFF00000
001FFFFFFFFFFFFFFFFFFFC00000
003FFFFFFFFFFFFFFFFFFE000000
007FFFFFFFFFFFFFFFFFF0000000
00FFFFFFFFFFFFFFFFFF00000000
01FFFFF000000000000000000000
03FFFF0000000000000000000000
07FFFE0000000000000000000000
07FFFC0000000000000000000000
0FFFF80000000000000000000000
1FFFF00000000000000000000000
1FFFFFFFFFFFFFFFFFFFFFFFFFFE
3FFFFFFFFFFFFFFFFFFFFFFFFFFE
3FFFFFFFFFFFFFFFFFFFFFFFFFFE
3FFFFFFFFFFFFFFFFFFFFFFFFFFE
7FFFFFFFFFFFFFFFFFFFFFFFFFFE
7FFFFFFFFFFFFFFFFFFFFFFFFFFE
7FFFFFFFFFFFFFFFFFFFFFFFFFFE
7FFFFFFFFFFFFFFFFFFFFFFFFFFE
FFFFFFFFFFFFFFFFFFFFFFFFFFFE
FFFFFFFFFFFFFFFFFFFFFFFFFFFE
FFFFFFFFFFFFFFFFFFFFFFFFFFFE
FFFFFFFFFFFFFFFFFFFFFFFFFFFE
FFFFFFFFFFFFFFFFFFFFFFFFFFFE
FFFFFFFFFFFFFFFFFFFFFFFFFFFE
ENDCHAR
STARTCHAR 007B
ENCODING 123
SWIDTH 916 0
DWIDTH 66 0
BBX 46 65 1 0
BITMAP
0000000000FC
000000000FFC
000000007FFC
00000001FFFC
00000007FFFC
0000001FFFFC
0000003FFFFC
000000FFFFFC
000001FFFFFC
000003FFFFFC
000007FFFFFC
00000FFFFFFC
00001FFFFFFC
00003FFFFFFC
00007FFFFFE0
0000FFFFFE00
0001FFFFF800
0003FFFFE000
0007FFFFC000
0007FFFF0000
000FFFFE0000
001FFFFC0000
001FFFF80000
003FFFF00000
007FFFF00000
007FFFE00000
00FFFFC00000
00FFFF800000
01FFFF800000
01FFFF000000
03FFFF000000
03FFFE000000
07FFFE000000
07FFFC000000
07FFFC000000
0FFFF8000000
0FFFF8000000
0FFFF8000000
1FFFF0000000
1FFFF0000000
1FFFF0000000
1FFFF0000000
3FFFE0000000
3FFFE0000000
3FFFE0000000
3FFFE0000000
3FFFE0000000
7FFFE0000000
7FFFE0000000
7FFFC0000000
7FFFC0000000
7FFFFFFFFFFC
7FFFFFFFFFFC
7FFFFFFFFFFC
FFFFFFFFFFFC
FFFFFFFFFFFC
FFFFFFFFFFFC
FFFFFFFFFFFC
FFFFFFFFFFFC
FFFFFFFFFFFC
FFFFFFFFFFFC
FFFFFFFFFFFC
FFFFFFFFFFFC
FFFFFFFFFFFC
FFFFFFFFFFFC
ENDCHAR
STARTCHAR 007C
ENCODING 124
SWIDTH 458 0
DWIDTH 33 0
BBX 14 74 1 0
BITMAP
FFFC
FFFC
FFFC
FFFC
FFFC
FFFC
FFFC
FFFC
FFFC
FFFC
FFFC
FFFC
FFFC
FFFC
FFFC
FFFC
FFFC
FFFC
FFFC
FFFC
FFFC
FFFC
FFFC
FFFC
FFFC
FFFC
FFFC
FFFC
FFFC
FFFC
FFFC
FFFC
FFFC
0000
0000
0000
0000
0000
0000
0000
0000
0000
0000
0000
FFFC
FFFC
FFFC
FFFC
FFFC
FFFC
FFFC
FFFC
FFFC
FFFC
FFFC
FFFC
FFFC
FFFC
FFFC
FFFC
FFFC
FFFC
FFFC
FFFC
FFFC
FFFC
FFFC
FFFC
FFFC
FFFC
FFFC
FFFC
FFFC
FFFC
ENDCHAR
STARTCHAR 007D
ENCODING 125
SWIDTH 916 0
DWIDTH 66 0
BBX 46 65 1 0
BITMAP
FC0000000000
FFC000000000
FFF800000000
FFFE00000000
FFFF80000000
FFFFE0000000
FFFFF0000000
FFFFFC000000
FFFFFE000000
FFFFFF000000
FFFFFF800000
FFFFFFE00000
FFFFFFF00000
FFFFFFF80000
0FFFFFFC0000
01FFFFFC0000
007FFFFE0000
001FFFFF0000
000FFFFF8000
0003FFFFC000
0001FFFFC000
0000FFFFE000
00007FFFF000
00003FFFF000
00001FFFF800
00001FFFF800
00000FFFFC00
000007FFFC00
000007FFFE00
000003FFFE00
000003FFFF00
000001FFFF00
000001FFFF80
000000FFFF80
000000FFFF80
0000007FFFC0
0000007FFFC0
0000007FFFC0
0000003FFFE0
0000003FFFE0
0000003FFFE0
0000001FFFE0
0000001FFFF0
0000001FFFF0
0000001FFFF0
0000001FFFF0
0000001FFFF8
0000001FFFF8
0000000FFFF8
0000000FFFF8
0000000FFFF8
FFFFFFFFFFF8
FFFFFFFFFFF8
FFFFFFFFFFFC
FFFFFFFFFFFC
FFFFFFFFFFFC
FFFFFFFFFFFC
FFFFFFFFFFFC
FFFFFFFFFFFC
FFFFFFFFFFFC
FFFFFFFFFFFC
FFFFFFFFFFFC
FFFFFFFFFFFC
FFFFFFFFFFFC
FFFFFFFFFFFC
ENDCHAR
STARTCHAR 007E
ENCODING 126
SWIDTH 777 0
DWIDTH 56 0
BBX 37 7 1 67
BITMAP
FFFFFFFFF8
FFFFFFFFF8
FFFFFFFFF8
FFFFFFFFF8
FFFFFFFFF8
FFFFFFFFF8
FFFFFFFFF8
ENDCHAR
STARTCHAR 2010
ENCODING 8208
SWIDTH 1041 0
DWIDTH 75 0
BBX 55 12 1 25
BITMAP
FFFFFFFFFFFFFE
FFFFFFFFFFFFFE
FFFFFFFFFFFFFE
FFFFFFFFFFFFFE
FFFFFFFFFFFFFE
FFFFFFFFFFFFFE
FFFFFFFFFFFFFE
FFFFFFFFFFFFFE
FFFFFFFFFFFFFE
FFFFFFFFFFFFFE
FFFFFFFFFFFFFE
FFFFFFFFFFFFFE
ENDCHAR
ENDFONT
